<svg width="17" height="42" viewBox="0 0 17 42" fill="none" xmlns="http://www.w3.org/2000/svg">
<path d="M7.76406 0.931529L9.93869 0.919854C13.9204 0.898315 16.2777 4.00899 16.2562 7.99056L14.507 8C14.5224 4.98476 12.9444 2.65353 9.9292 2.66899L7.75451 2.68072C4.7692 2.76948 2.35366 5.18502 2.26484 8.17039L2.11503 35.9594C2.10517 37.8086 3.5963 39.2995 5.44557 39.2894L6.89533 39.2816C8.71936 39.2112 10.1916 37.739 10.262 35.915L10.3727 15.3977C10.3726 15.3876 10.3726 15.3775 10.3729 15.3673C10.3839 14.8843 10.7843 14.4974 11.2673 14.5031C11.7503 14.509 12.1328 14.9052 12.1219 15.3883L12.0112 35.9055C11.9055 38.683 9.66336 40.9251 6.88589 41.0308L5.43614 41.0386C2.62071 41.0538 0.350653 38.7838 0.365843 35.9683L0.515769 8.17971C0.537308 4.19813 3.78243 0.953011 7.76406 0.931529Z" fill="#5A9247"/>
</svg>
