<svg xmlns="http://www.w3.org/2000/svg" viewBox="0 0 34.08 34.1"><defs><style>.cls-1,.cls-3{fill:#5a9247;}.cls-1{stroke:#5a9247;stroke-width:0.2px;}.cls-2{fill:#b08257;}</style></defs><title>Ресурс 20</title><g id="Слой_2" data-name="Слой 2"><g id="Слой_1-2" data-name="Слой 1"><path class="cls-1" d="M20.77,13.82l-5,4.76-2.38-2.45a.81.81,0,0,0-1.14,0l.07.07-.07-.07a.81.81,0,0,0,0,1.14h0l2.94,3h0a.82.82,0,0,0,1.14,0h0L21.89,15a.81.81,0,0,0,0-1.14h0a.82.82,0,0,0-1.15,0l.07.07Z"/><path class="cls-2" d="M17,6.47A10.59,10.59,0,1,0,27.63,17.05,10.59,10.59,0,0,0,17,6.47Zm0,19.75a9.17,9.17,0,1,1,9.17-9.17A9.18,9.18,0,0,1,17,26.22Z"/><path class="cls-2" d="M6.26,17.05A10.79,10.79,0,1,1,17,27.84,10.79,10.79,0,0,1,6.26,17.05Zm1.82,0a9,9,0,1,0,9-9A9,9,0,0,0,8.08,17.05Zm-1.62,0A10.59,10.59,0,1,1,17,27.64,10.59,10.59,0,0,1,6.46,17.05Zm1.42,0A9.17,9.17,0,1,0,17,7.88,9.18,9.18,0,0,0,7.88,17.05Z"/><path class="cls-3" d="M34,16.63l-2.3-3.49L31.9,9a.76.76,0,0,0-.42-.72L27.75,6.35,25.87,2.62a.78.78,0,0,0-.69-.41h0L21,2.43,17.46.13a.74.74,0,0,0-.83,0l-3.5,2.3L9,2.2a.75.75,0,0,0-.72.42L6.34,6.34,2.62,8.23A.78.78,0,0,0,2.2,9l.23,4.18-2.3,3.5a.74.74,0,0,0,0,.83L2.43,21l-.24,4.19a.78.78,0,0,0,.42.72l3.73,1.88,1.88,3.73a.77.77,0,0,0,.68.42h0l4.19-.24L16.62,34a.7.7,0,0,0,.42.13.69.69,0,0,0,.41-.13L21,31.66l4.18.24a.74.74,0,0,0,.72-.42l1.89-3.73,3.73-1.88a.77.77,0,0,0,.41-.72L31.65,21,34,17.47A.79.79,0,0,0,34,16.63ZM30.13,20.8l.22,3.94-3.51,1.78a.75.75,0,0,0-.33.33l-1.77,3.51-3.94-.22h0a.82.82,0,0,0-.43.12L17,32.43l-3.28-2.17a.8.8,0,0,0-.42-.13l-4,.22L7.59,26.84a.73.73,0,0,0-.34-.33L3.74,24.74,4,20.8a.93.93,0,0,0-.12-.46L1.67,17.05l2.17-3.29A.74.74,0,0,0,4,13.3L3.74,9.36,7.25,7.59a.73.73,0,0,0,.33-.34l1.77-3.5L13.29,4a.88.88,0,0,0,.47-.13L17,1.67l3.29,2.17A.72.72,0,0,0,20.8,4l3.94-.22,1.77,3.5a.73.73,0,0,0,.33.34l3.51,1.77-.22,3.94a.93.93,0,0,0,.12.46l2.17,3.29-2.17,3.29A.76.76,0,0,0,30.13,20.8Z"/></g></g></svg>