<svg width="34" height="34" viewBox="0 0 34 34" fill="none" xmlns="http://www.w3.org/2000/svg">
<g clip-path="url(#clip0)">
<path d="M20.7775 13.7685L20.7769 13.7691L15.7401 18.5265L13.3571 16.0749C13.0468 15.7554 12.5359 15.7481 12.2167 16.0585L12.2862 16.1299L12.2167 16.0585C11.8973 16.369 11.8901 16.8796 12.2003 17.199L12.2004 17.1991L15.1409 20.2177L15.1409 20.2177L15.1416 20.2184C15.4527 20.5314 15.9556 20.5421 16.2796 20.2423L16.2796 20.2423L16.2804 20.2417L21.8992 14.9419C22.055 14.795 22.146 14.5922 22.152 14.3782C22.158 14.1643 22.0787 13.9567 21.9315 13.8012L21.9309 13.8007C21.6196 13.4771 21.1064 13.4629 20.7775 13.7685L20.7775 13.7685Z" fill="#5A9247" stroke="#5A9247" stroke-width="0.2"/>
<path d="M17.0548 6.31602C11.1612 6.31602 6.36912 11.1081 6.36912 17.0017C6.36912 22.8956 11.1612 27.6877 17.0548 27.6877C22.9487 27.6877 27.7408 22.8956 27.7408 17.0017C27.7408 11.1081 22.9487 6.31602 17.0548 6.31602ZM17.0548 26.0706C12.0511 26.0706 7.98623 21.9986 7.98623 17.0017C7.98623 12.0048 12.0511 7.93313 17.0548 7.93313C22.0635 7.93313 26.1237 11.9933 26.1237 17.0017C26.1237 22.0102 22.0635 26.0706 17.0548 26.0706Z" fill="#B08257" stroke="#B08257" stroke-width="0.2"/>
<path d="M25.9229 2.55099L25.9232 2.55156L27.8002 6.26349L31.5116 8.14024C31.5117 8.14028 31.5118 8.14033 31.5119 8.14037C31.8002 8.28447 31.9751 8.58662 31.9565 8.90839L25.9229 2.55099ZM25.9229 2.55099C25.7763 2.26571 25.4765 2.09196 25.1561 2.10709L25.1554 2.10713M25.9229 2.55099L25.1554 2.10713M25.1554 2.10713L20.9794 2.33231L17.4996 0.0333127L17.4995 0.0332582M25.1554 2.10713L17.4995 0.0332582M17.4995 0.0332582C17.2298 -0.144595 16.8801 -0.144559 16.6101 0.0332286L16.61 0.0333127M17.4995 0.0332582L16.61 0.0333127M16.61 0.0333127L13.1302 2.33226L8.96211 2.10024L8.95624 2.20007L8.9618 2.10022L8.96198 2.10023C8.63978 2.08133 8.33782 2.25632 8.19373 2.54492C8.1937 2.54499 8.19366 2.54506 8.19363 2.54513L6.31663 6.25657L2.60497 8.13354L2.60452 8.13377M16.61 0.0333127L2.60452 8.13377M2.60452 8.13377C2.31877 8.28012 2.14538 8.58003 2.16051 8.90062L2.16055 8.90146M2.60452 8.13377L2.16055 8.90146M2.16055 8.90146L2.39232 13.0702L0.0936429 16.5499L0.0935914 16.55M2.16055 8.90146L0.0935914 16.55M0.0935914 16.55C-0.0842618 16.8198 -0.0842262 17.1694 0.0935619 17.4394L0.0935914 16.55ZM20.8087 30.0386V30.0386L24.7183 30.2545L26.4744 26.7776C26.5516 26.6236 26.6764 26.4983 26.8306 26.4211L26.8304 26.4212L26.8755 26.5104L26.8307 26.421L20.8087 30.0386ZM20.8087 30.0386L20.8069 30.0385M20.8087 30.0386L20.8069 30.0385M20.8069 30.0385C20.635 30.0323 20.4653 30.0766 20.3187 30.1663L20.3187 30.1663M20.8069 30.0385L20.3187 30.1663M20.3187 30.1663L20.3158 30.1682M20.3187 30.1663L20.3158 30.1682M20.3158 30.1682L17.0548 32.3214L13.795 30.1688C13.7948 30.1687 13.7947 30.1686 13.7945 30.1685C13.6631 30.0799 13.5084 30.0319 13.3497 30.0312H13.3493M20.3158 30.1682L13.3493 30.0312M13.3493 30.0312H13.3139V30.0311M13.3493 30.0312L13.3139 30.0311M13.3139 30.0311L13.3083 30.0314M13.3139 30.0311L13.3083 30.0314M13.3083 30.0314L9.39853 30.2475M13.3083 30.0314L9.39853 30.2475M4.01817 20.7556L4.01815 20.7556L3.80201 24.665L7.28604 26.4141L4.01817 20.7556ZM4.01817 20.7556L4.01824 20.7537M4.01817 20.7556L4.01824 20.7537M4.01824 20.7537C4.02449 20.5818 3.97978 20.4121 3.89012 20.2656L3.89017 20.2655M4.01824 20.7537L3.89017 20.2655M3.89017 20.2655L3.88828 20.2627M3.89017 20.2655L3.88828 20.2627M3.88828 20.2627L1.73533 17.0017L3.88733 13.7421C3.8875 13.7418 3.88766 13.7416 3.88783 13.7413C3.98689 13.5964 4.03291 13.4215 4.01807 13.2465L3.802 9.3382L7.27919 7.58232C7.27923 7.5823 7.27927 7.58228 7.27931 7.58226C7.4333 7.50508 7.55821 7.38017 7.6354 7.22617C7.63542 7.22613 7.63544 7.22609 7.63546 7.22606L9.39134 3.74886L13.3011 3.96502L13.3011 3.96504M3.88828 20.2627L13.3011 3.96504M13.3011 3.96504L13.3032 3.96511M13.3011 3.96504L13.3032 3.96511M13.3032 3.96511C13.4747 3.97104 13.6443 3.92669 13.7911 3.83704L13.7911 3.83709M13.3032 3.96511L13.7911 3.83709M13.7911 3.83709L13.7941 3.83514M13.7911 3.83709L13.7941 3.83514M13.7941 3.83514L17.0548 1.6822L20.3145 3.83425C20.3147 3.8344 20.3149 3.83455 20.3151 3.8347C20.4603 3.93372 20.6352 3.97978 20.8103 3.96493L24.7183 3.74886L26.4744 7.22606C26.5516 7.3801 26.6765 7.50505 26.8306 7.58226C26.8306 7.58228 26.8306 7.5823 26.8307 7.58232L30.3076 9.3382L30.0917 13.248L30.0917 13.248M13.7941 3.83514L30.0917 13.248M30.0917 13.248L30.0916 13.2499M30.0917 13.248L30.0916 13.2499M30.0916 13.2499C30.0854 13.4216 30.1301 13.5912 30.2194 13.7376L30.2193 13.7377M30.0916 13.2499L30.2193 13.7377M30.2193 13.7377L30.2213 13.7407M30.2193 13.7377L30.2213 13.7407M30.2213 13.7407L32.3745 17.0017L30.2221 20.2615C30.222 20.2617 30.2218 20.2619 30.2217 20.2621M30.2213 13.7407L30.2217 20.2621M30.2217 20.2621C30.123 20.4072 30.077 20.5818 30.0918 20.7571L30.2217 20.2621ZM9.39853 30.2475L7.64265 26.7704C7.64261 26.7703 7.64257 26.7702 7.64253 26.7701L7.64251 26.7701L7.55325 26.8151M9.39853 30.2475L7.28618 26.4141L7.24132 26.5035C7.37638 26.571 7.48571 26.6804 7.55325 26.8151M7.55325 26.8151L9.33875 30.351L7.55325 26.8151ZM31.7245 13.0773L31.9565 8.90861L25.1412 31.8962C25.463 31.9147 25.7648 31.7398 25.9092 31.4516C25.9092 31.4516 25.9092 31.4515 25.9093 31.4514L27.786 27.7398L31.498 25.8629L31.4986 25.8626C31.7838 25.716 31.9576 25.4165 31.9424 25.0958L31.9424 25.0949L31.7104 20.9262L34.009 17.4465L34.0091 17.4464C34.1869 17.1767 34.1869 16.8268 34.0092 16.557C34.0091 16.557 34.0091 16.557 34.0091 16.5569L31.7245 13.0773ZM20.9724 31.6642L25.1409 31.8962L2.15337 25.0947L2.2532 25.1005L2.15336 25.0949L2.15336 25.0948C2.13477 25.4166 2.30935 25.7189 2.59803 25.863C2.59811 25.863 2.59819 25.8631 2.59826 25.8631L6.30971 27.7398L8.18668 31.4518L8.18691 31.4522C8.33326 31.738 8.63316 31.9114 8.95376 31.8962L8.9546 31.8962L13.1233 31.6642L16.6017 33.9619C16.6019 33.9621 16.6022 33.9622 16.6024 33.9624C16.8711 34.1459 17.2247 34.1459 17.4934 33.9624C17.4936 33.9622 17.4938 33.9621 17.4941 33.9619L20.9724 31.6642ZM2.3854 20.9261L2.40352 20.9536L2.48708 20.8987L2.38723 20.8932L2.3854 20.9261ZM30.3076 24.6651L30.3112 24.7304L30.4111 24.7249L30.366 24.6356L30.3076 24.6651Z" fill="#5A9247" stroke="#5A9247" stroke-width="0.2"/>
</g>
<defs>
<clipPath id="clip0">
<rect width="34" height="34" fill="white"/>
</clipPath>
</defs>
</svg>
