<svg width="230" height="64" viewBox="0 0 230 64" fill="none" xmlns="http://www.w3.org/2000/svg">
<path d="M61.4385 22.5699L58.918 24.7598L58.1978 25.2068L63.644 31.6425C64.5892 32.6705 65.3544 33.3408 65.9845 33.609V33.8772L65.5344 33.9219L64.5892 33.9665C64.2741 34.0559 63.9591 34.0559 63.734 34.0559C63.1939 34.0559 62.6538 33.9219 62.1587 33.6537C61.6186 33.3855 61.1685 33.028 60.7184 32.5811L55.6323 26.5029H55.5873V30.3464C55.5873 31.1509 55.6323 31.7766 55.6773 32.2235C55.7673 32.6705 55.8573 32.9833 56.0373 33.2068C56.2174 33.4302 56.4424 33.5643 56.7575 33.609V33.8772H51.5814V33.609C52.0315 33.5196 52.3465 33.2515 52.5266 32.7598C52.7066 32.3129 52.7516 31.5084 52.7516 30.3017V22.3017C52.7516 21.095 52.6616 20.2459 52.5266 19.7989C52.3465 19.352 52.0765 19.0839 51.5814 18.9945V18.771H56.7125V19.0392C56.2624 19.1286 55.9473 19.3967 55.8123 19.8436C55.6323 20.2906 55.5422 21.1397 55.5422 22.3017V24.8939L55.8123 24.9386C59.2781 20.9163 61.3035 18.9051 61.9336 18.8604C62.5638 18.8157 63.779 18.771 65.6244 18.7263V19.2179C65.2193 19.1732 64.8593 19.2626 64.5442 19.4414L61.4385 22.5699ZM55.5422 26.4582L55.5873 26.4135L55.5422 26.3688V26.4582Z" fill="white"/>
<path d="M70.8454 20.9609V30.3017C70.8454 31.5084 70.9354 32.3129 71.1155 32.8045C71.2955 33.2514 71.6106 33.5196 72.0607 33.609V33.8771H66.8845V33.609C67.3346 33.5196 67.6497 33.2514 67.8297 32.7598C68.0098 32.3129 68.0548 31.4637 68.0548 30.3017V22.3017C68.0548 21.095 67.9648 20.2459 67.8297 19.7989C67.6497 19.352 67.3346 19.0838 66.8845 18.9945V18.771H72.0157C72.8708 18.771 73.546 18.771 74.0861 18.8604C74.6262 18.9051 75.1213 18.9945 75.4814 19.1285C75.8865 19.2626 76.2466 19.4414 76.5616 19.6649C77.7769 20.4246 78.407 21.5866 78.407 23.2403C78.407 24.1788 78.182 25.028 77.6869 25.7431C77.2368 26.4581 76.6067 27.0392 75.8415 27.3967C75.0763 27.7989 74.2211 27.9777 73.3659 27.9777C72.9609 27.9777 72.6008 27.933 72.3307 27.8883L71.7006 25.609C71.7456 25.609 71.7906 25.609 71.7906 25.609C71.8356 25.609 71.8806 25.609 71.9706 25.609C72.1507 25.609 72.2857 25.609 72.3757 25.609C72.4658 25.609 72.5108 25.609 72.6008 25.609C73.366 25.609 74.0411 25.4302 74.5812 25.028C75.1213 24.6257 75.3914 24.0894 75.3914 23.285C75.3914 21.676 74.2661 20.9162 72.0607 20.9162C71.6556 20.9162 71.2505 20.9162 70.8454 20.9609Z" fill="white"/>
<path d="M88.0842 30.3018H82.4579L81.6477 32.1342C81.5127 32.4023 81.4227 32.6705 81.4227 32.894C81.4227 33.2515 81.6027 33.475 81.9628 33.5643V33.8325C81.3777 33.8325 80.5675 33.8325 79.5773 33.8325C78.5421 33.8325 77.8219 33.8325 77.5069 33.8325V33.5643C77.7769 33.475 78.002 33.2962 78.137 33.1174C78.272 32.9386 78.4971 32.4917 78.8121 31.8213L85.1585 17.8772H85.5186L91.91 32.0001C92.2701 32.8493 92.7202 33.3856 93.1252 33.5643V33.8325C92.8102 33.8325 92.18 33.8325 91.1448 33.8325C90.5147 33.8325 90.0646 33.8325 89.7495 33.8325C89.4344 33.8325 89.1194 33.8325 88.8943 33.8325C88.6243 33.8325 88.4442 33.8325 88.3542 33.8325V33.5643C88.7593 33.475 88.9393 33.2068 88.9393 32.8046C88.9393 32.6258 88.8943 32.4023 88.7593 32.0448L88.0842 30.3018ZM87.274 28.0671L85.2935 23.285L83.3131 28.0671H87.274Z" fill="white"/>
<path d="M105.818 18.7709V22.0335H105.548C105.008 21.5866 104.423 21.229 103.793 21.0056C103.162 20.7821 102.442 20.6927 101.632 20.6927C100.642 20.6927 99.6967 20.9162 98.9315 21.4078C98.1213 21.8994 97.5362 22.5251 97.0861 23.3743C96.636 24.2234 96.411 25.2067 96.411 26.2793C96.411 27.1285 96.546 27.8882 96.771 28.5586C97.0411 29.2737 97.4012 29.8547 97.8513 30.3463C98.3014 30.838 98.8415 31.2402 99.5166 31.5083C100.147 31.7765 100.867 31.9106 101.587 31.9106C103.207 31.9106 104.558 31.3743 105.638 30.3463L105.953 30.4357L105.593 33.4748C104.243 33.9664 102.892 34.2346 101.497 34.2346C100.327 34.2346 99.2466 34.0558 98.2564 33.6536C97.2661 33.2514 96.411 32.715 95.6908 32C94.9706 31.2849 94.4305 30.4357 94.0254 29.4525C93.6203 28.4692 93.4403 27.3966 93.4403 26.2346C93.4403 25.0726 93.6204 24.0447 93.9804 23.0614C94.3405 22.0782 94.8806 21.229 95.5558 20.5139C96.2309 19.7988 97.0411 19.2178 97.9863 18.8603C98.9315 18.4581 99.9667 18.2793 101.047 18.2793C101.407 18.2793 101.812 18.324 102.307 18.4134C103.207 18.5921 103.838 18.7262 104.153 18.7709C104.468 18.8156 104.693 18.8603 104.828 18.8603H105.008C105.188 18.8603 105.323 18.8156 105.458 18.6815L105.818 18.7709Z" fill="white"/>
<path d="M118.601 27.1285H112.119V30.3017C112.119 31.0615 112.164 31.6872 112.209 32.1341C112.299 32.5811 112.389 32.9386 112.569 33.1621C112.75 33.3855 112.975 33.5196 113.245 33.609V33.8771C112.524 33.8325 111.624 33.8324 110.634 33.8324C109.599 33.8324 108.744 33.8325 108.023 33.8771V33.609C108.339 33.5643 108.564 33.4302 108.744 33.2068C108.924 32.9833 109.059 32.6704 109.104 32.2235C109.194 31.7766 109.194 31.1509 109.194 30.3464V22.3017C109.194 21.095 109.104 20.2905 108.924 19.7989C108.744 19.352 108.429 19.0838 107.978 18.9945V18.771H109.149C109.644 18.8157 110.139 18.8157 110.589 18.8157C111.084 18.8157 111.534 18.8157 112.029 18.771H113.2V19.0392C112.75 19.1285 112.479 19.3967 112.299 19.8883C112.119 20.3799 112.029 21.1844 112.029 22.3464V24.8045H118.511V22.3464C118.511 21.1397 118.421 20.3352 118.286 19.8436C118.106 19.3967 117.836 19.1285 117.386 19.0392V18.771H118.556C119.051 18.8157 119.546 18.8157 119.996 18.8157C120.491 18.8157 120.941 18.8157 121.436 18.771H122.607V19.0392C122.157 19.1285 121.841 19.3967 121.661 19.8883C121.481 20.3799 121.391 21.1844 121.391 22.3464V30.3464C121.391 31.4637 121.481 32.2682 121.661 32.7598C121.841 33.2514 122.157 33.5196 122.607 33.6537V33.9218H117.476V33.6537C117.791 33.609 118.016 33.4302 118.196 33.2514C118.376 33.028 118.466 32.7151 118.556 32.2682C118.601 31.8213 118.646 31.1956 118.646 30.3911L118.601 27.1285Z" fill="white"/>
<path d="M132.239 18.3242C133.409 18.3242 134.489 18.503 135.479 18.9052C136.47 19.3075 137.325 19.8438 138.045 20.5589C138.765 21.2739 139.305 22.1231 139.71 23.0616C140.115 24.0449 140.296 25.1175 140.296 26.2795C140.296 27.4415 140.115 28.5142 139.71 29.4974C139.305 30.4806 138.765 31.3298 138.045 32.0449C137.325 32.76 136.47 33.2963 135.524 33.6985C134.534 34.1008 133.454 34.2795 132.329 34.2795C131.159 34.2795 130.033 34.1008 129.043 33.6985C128.053 33.2963 127.153 32.76 126.432 32.0449C125.712 31.3298 125.127 30.4806 124.767 29.4974C124.362 28.5142 124.182 27.4415 124.182 26.2795C124.182 25.0728 124.362 24.0002 124.767 23.0616C125.172 22.0784 125.712 21.2292 126.432 20.5589C127.153 19.8438 128.008 19.3075 128.998 18.9052C129.943 18.503 131.068 18.3242 132.239 18.3242ZM132.284 20.6929C131.294 20.6929 130.393 20.9164 129.628 21.408C128.818 21.8996 128.233 22.57 127.783 23.4192C127.333 24.2684 127.108 25.2516 127.108 26.3689C127.108 27.4862 127.333 28.4248 127.738 29.2739C128.188 30.1231 128.773 30.7935 129.538 31.2404C130.303 31.6873 131.204 31.9555 132.194 31.9555C132.914 31.9555 133.589 31.8214 134.219 31.5533C134.849 31.2851 135.389 30.8829 135.84 30.3913C136.29 29.8996 136.65 29.2739 136.92 28.6035C137.19 27.8885 137.28 27.1287 137.28 26.3242C137.28 25.4751 137.145 24.76 136.92 24.0449C136.695 23.3745 136.335 22.7488 135.885 22.2572C135.434 21.7656 134.894 21.3633 134.264 21.0952C133.679 20.827 133.004 20.6929 132.284 20.6929Z" fill="white"/>
<path d="M150.198 20.961C149.658 20.9163 149.252 20.8716 148.982 20.8716C147.992 20.8716 147.182 21.0503 146.552 21.4079C145.877 21.7654 145.562 22.3911 145.562 23.2403C145.562 24.0448 145.877 24.6705 146.462 25.0727C147.047 25.4749 147.767 25.6984 148.577 25.6984C148.847 25.6984 149.072 25.6984 149.342 25.6537L149.432 25.9219L145.517 32.3129C145.112 32.9833 144.706 33.4302 144.301 33.6984C143.896 33.9219 143.401 34.0559 142.726 34.0559C142.366 34.0559 141.691 34.0112 140.656 33.8772V33.609C140.926 33.5196 141.151 33.4302 141.331 33.2515C141.511 33.0727 141.736 32.7598 142.051 32.3129L145.472 27.0392C143.491 26.3688 142.501 25.028 142.501 23.1062C142.501 22.3017 142.681 21.5867 143.041 20.961C143.401 20.3353 143.941 19.8436 144.616 19.4861C145.112 19.2179 145.607 19.0392 146.192 18.9051C146.777 18.8157 147.542 18.7263 148.532 18.7263H154.159V18.9945C153.708 19.0839 153.393 19.352 153.213 19.7989C153.033 20.2459 152.988 21.095 152.988 22.3017V30.3017C152.988 31.5084 153.078 32.3129 153.213 32.7598C153.393 33.2068 153.708 33.4749 154.159 33.609V33.8772H148.982V33.609C149.297 33.5643 149.523 33.3855 149.703 33.2068C149.883 32.9833 149.973 32.6705 150.063 32.2235C150.153 31.7766 150.153 31.1509 150.153 30.3464L150.198 20.961Z" fill="white"/>
<path d="M160.19 20.9609V30.3017C160.19 31.5084 160.28 32.3129 160.46 32.8045C160.64 33.2514 160.955 33.5196 161.405 33.609V33.8771H156.184V33.609C156.634 33.5196 156.949 33.2514 157.129 32.7598C157.309 32.3129 157.354 31.4637 157.354 30.3017V22.3017C157.354 21.095 157.264 20.2459 157.129 19.7989C156.949 19.352 156.634 19.0838 156.184 18.9945V18.771H161.315C162.17 18.771 162.845 18.771 163.386 18.8604C163.926 18.9051 164.421 18.9945 164.781 19.1285C165.186 19.2626 165.546 19.4414 165.861 19.6649C167.076 20.4246 167.706 21.5866 167.706 23.2403C167.706 24.1788 167.481 25.028 166.986 25.7431C166.536 26.4581 165.906 27.0392 165.141 27.3967C164.376 27.7989 163.521 27.9777 162.665 27.9777C162.26 27.9777 161.9 27.933 161.63 27.8883L161 25.609C161.045 25.609 161.09 25.609 161.09 25.609C161.135 25.609 161.18 25.609 161.27 25.609C161.45 25.609 161.585 25.609 161.675 25.609C161.765 25.609 161.81 25.609 161.9 25.609C162.665 25.609 163.341 25.4302 163.881 25.028C164.421 24.6257 164.691 24.0894 164.691 23.285C164.691 21.676 163.566 20.9162 161.36 20.9162C161 20.9162 160.595 20.9162 160.19 20.9609Z" fill="white"/>
<path d="M181.254 18.7709V22.0335H180.984C180.444 21.5866 179.859 21.229 179.229 21.0056C178.599 20.7821 177.879 20.6927 177.068 20.6927C176.078 20.6927 175.133 20.9162 174.368 21.4078C173.558 21.8994 172.973 22.5251 172.523 23.3743C172.072 24.2234 171.847 25.2067 171.847 26.2793C171.847 27.1285 171.982 27.8882 172.207 28.5586C172.477 29.2737 172.838 29.8547 173.288 30.3463C173.738 30.838 174.278 31.2402 174.953 31.5083C175.583 31.7765 176.303 31.9106 177.023 31.9106C178.644 31.9106 179.994 31.3743 181.074 30.3463L181.389 30.4357L181.029 33.4748C179.679 33.9664 178.329 34.2346 176.933 34.2346C175.763 34.2346 174.683 34.0558 173.693 33.6536C172.703 33.2514 171.847 32.715 171.127 32C170.407 31.2849 169.867 30.4357 169.462 29.4525C169.057 28.4692 168.877 27.3966 168.877 26.2346C168.877 25.0726 169.057 24.0447 169.417 23.0614C169.777 22.0782 170.317 21.229 170.992 20.5139C171.667 19.7988 172.477 19.2178 173.423 18.8603C174.368 18.4581 175.403 18.2793 176.483 18.2793C176.843 18.2793 177.249 18.324 177.744 18.4134C178.644 18.5921 179.274 18.7262 179.589 18.7709C179.904 18.8156 180.129 18.8603 180.264 18.8603H180.444C180.624 18.8603 180.759 18.8156 180.894 18.6815L181.254 18.7709Z" fill="white"/>
<path d="M193.182 22.5699L190.661 24.7598L189.941 25.2068L195.342 31.6425C196.288 32.6705 197.053 33.3408 197.683 33.609V33.8772L197.233 33.9219L196.288 33.9665C195.973 34.0559 195.658 34.0559 195.433 34.0559C194.892 34.0559 194.352 33.9219 193.857 33.6537C193.317 33.3855 192.867 33.028 192.417 32.5811L187.331 26.5029H187.286V30.3464C187.286 31.1509 187.331 31.7766 187.376 32.2235C187.466 32.6705 187.556 32.9833 187.736 33.2068C187.916 33.4302 188.141 33.5643 188.456 33.609V33.8772H183.28V33.609C183.73 33.5196 184.045 33.2515 184.225 32.7598C184.405 32.3129 184.45 31.5084 184.45 30.3017V22.3017C184.45 21.095 184.36 20.2459 184.225 19.7989C184.045 19.352 183.775 19.0839 183.28 18.9945V18.771H188.456V19.0392C188.006 19.1286 187.691 19.3967 187.556 19.8436C187.376 20.2906 187.286 21.1397 187.286 22.3017V24.8939L187.556 24.9386C191.022 20.9163 193.047 18.9051 193.677 18.8604C194.307 18.8157 195.523 18.771 197.368 18.7263V19.2179C196.963 19.1732 196.603 19.2626 196.288 19.4414L193.182 22.5699ZM187.286 26.4582L187.331 26.4135L187.286 26.3688V26.4582Z" fill="white"/>
<path d="M199.753 34.5922V22.3017C199.753 21.4973 199.708 20.8716 199.663 20.4246C199.573 19.9777 199.483 19.6648 199.303 19.4414C199.123 19.2179 198.898 19.0838 198.583 19.0391V18.771H203.759V19.0391C203.399 19.0838 203.174 19.2179 202.994 19.3967C202.814 19.6202 202.724 19.933 202.634 20.3799C202.589 20.8269 202.544 21.4526 202.544 22.3464V28.3799L212.266 18.0559H212.536V30.3911C212.536 31.1956 212.581 31.8213 212.626 32.2682C212.716 32.7151 212.806 33.028 212.986 33.2514C213.166 33.4749 213.391 33.609 213.706 33.6537V33.9218H208.53V33.6537C208.89 33.609 209.115 33.4749 209.295 33.2961C209.476 33.0727 209.566 32.7598 209.656 32.3129C209.701 31.866 209.746 31.2403 209.746 30.3464V24.2682L200.023 34.5922H199.753Z" fill="white"/>
<path d="M222.168 17.9665C221.763 17.9665 221.358 17.9218 220.998 17.7877C220.638 17.6537 220.323 17.5196 220.053 17.3408C219.783 17.162 219.558 16.9386 219.423 16.7151C219.243 16.447 219.198 16.1788 219.153 15.9106H220.413C220.413 16.0447 220.503 16.2235 220.593 16.3576C220.683 16.4917 220.818 16.6257 220.998 16.7151C221.133 16.8045 221.358 16.8939 221.538 16.9386C221.763 16.9833 221.988 17.028 222.213 17.028C222.438 17.028 222.663 16.9833 222.888 16.9386C223.114 16.8939 223.294 16.8045 223.429 16.7151C223.564 16.6257 223.699 16.4917 223.789 16.3576C223.879 16.2235 223.969 16.0894 223.969 15.9106H225.229C225.229 16.1788 225.139 16.447 224.959 16.7151C224.779 16.9833 224.599 17.162 224.329 17.3408C224.059 17.5196 223.744 17.6537 223.384 17.7877C222.933 17.8771 222.573 17.9665 222.168 17.9665ZM215.507 34.5922V22.3017C215.507 21.4972 215.462 20.8715 215.417 20.4246C215.327 19.9777 215.237 19.6648 215.057 19.4414C214.877 19.2179 214.652 19.0838 214.337 19.0391V18.771H219.513V19.0391C219.153 19.0838 218.928 19.2179 218.748 19.3967C218.568 19.6201 218.478 19.933 218.387 20.3799C218.342 20.8268 218.297 21.4525 218.297 22.3464V28.3799L228.02 18.0559H228.29V30.3911C228.29 31.1956 228.335 31.8213 228.38 32.2682C228.47 32.7151 228.56 33.028 228.74 33.2514C228.92 33.4749 229.145 33.609 229.46 33.6537V33.9218H224.284V33.6537C224.644 33.609 224.869 33.4749 225.049 33.2961C225.229 33.0727 225.319 32.7598 225.409 32.3129C225.454 31.866 225.499 31.2403 225.499 30.3464V24.2682L215.777 34.5922H215.507Z" fill="white"/>
<path d="M51.8063 54.3911L51.5362 51.3967L51.8063 51.352C52.5714 52.2906 53.0665 52.7822 53.3816 52.7822C53.6967 52.7822 54.0117 52.6481 54.3268 52.3353C54.6419 52.0224 54.8219 51.6202 54.9569 51.1732C55.047 50.6816 55.092 50.1453 55.092 49.5196V43.3073C55.092 42.1006 55.002 41.2515 54.8669 40.8045C54.6869 40.3576 54.3718 40.1341 53.9217 40.0894V39.8213H66.3894V40.0894C65.9393 40.1788 65.6693 40.447 65.4892 40.8939C65.3092 41.3855 65.2192 42.19 65.2192 43.3073V51.1732C65.2192 52.2906 65.3092 53.0503 65.4892 53.542C65.6693 54.0336 65.9843 54.3017 66.3894 54.3911V54.6593H61.2133V54.3911C61.5284 54.3464 61.7534 54.1677 61.8885 53.9889C62.0685 53.7654 62.1585 53.4526 62.2485 53.0056C62.2935 52.5587 62.3386 51.933 62.3386 51.1732V42.0559H57.9276C57.8826 42.4135 57.8826 42.8157 57.8826 43.3073V49.5643C57.8826 50.0559 57.8826 50.4582 57.8826 50.6816C57.8826 52.1118 57.4775 53.1844 56.7123 53.8995C55.9472 54.6146 55.047 55.0168 54.0567 55.0168C53.0665 55.0168 52.3014 54.8381 51.8063 54.3911Z" fill="white"/>
<path d="M71.1605 45.676H73.681C74.4462 45.676 74.9863 45.5867 75.3464 45.4526C75.7065 45.2738 75.9765 45.0057 76.1115 44.6034H76.3366C76.2916 45.0057 76.2916 45.6313 76.2916 46.4805C76.3366 47.5978 76.3366 48.447 76.3366 49.028H76.1115C75.9765 48.6258 75.7515 48.3576 75.3914 48.1788C75.0313 48.0001 74.4912 47.9554 73.726 47.9554H71.1605V51.3073C71.1605 51.6649 71.2055 51.933 71.2955 52.1118C71.3855 52.2906 71.5205 52.38 71.7456 52.4246C71.9706 52.4693 72.3307 52.514 72.8258 52.514H74.3112C75.1213 52.514 75.7515 52.4246 76.1566 52.2459C76.5616 52.0671 76.8317 51.7543 77.0117 51.3073L77.2368 51.352L76.8767 54.704H67.2446V54.4358C67.6947 54.3464 68.0098 54.0783 68.1448 53.6313C68.3249 53.1844 68.3699 52.38 68.3699 51.2179V43.3073C68.3699 42.1006 68.2798 41.2962 68.1448 40.8492C67.9648 40.4023 67.6947 40.1341 67.2446 40.0894V39.8213H76.9667V43.0392H76.6067C76.4716 42.6369 76.2016 42.3688 75.8865 42.19C75.5714 42.0559 74.9863 41.9665 74.1311 41.9665H71.1605V45.676Z" fill="white"/>
<path d="M90.2896 39.8212V42.9944H90.0196C89.4795 42.5475 88.9393 42.1899 88.3092 42.0112C87.6791 41.7877 87.0039 41.6983 86.1937 41.6983C85.2035 41.6983 84.3033 41.9218 83.5382 42.3687C82.773 42.8156 82.1429 43.486 81.7378 44.2905C81.2877 45.1396 81.1076 46.0782 81.1076 47.1508C81.1076 47.9553 81.2427 48.7151 81.4677 49.3855C81.6928 50.0558 82.0528 50.6369 82.5029 51.1285C82.953 51.6201 83.4931 52.0223 84.1233 52.2905C84.7534 52.5586 85.4286 52.6927 86.1487 52.6927C87.7241 52.6927 89.0744 52.2011 90.1096 51.1732L90.3797 51.2625L90.0196 54.257C88.7143 54.7486 87.364 54.972 86.0137 54.972C84.8434 54.972 83.8082 54.7933 82.818 54.391C81.8278 53.9888 81.0176 53.4525 80.3425 52.7821C79.6673 52.067 79.1272 51.2625 78.7221 50.2793C78.362 49.3408 78.137 48.2681 78.137 47.1508C78.137 46.0335 78.317 45.0056 78.6771 44.0223C79.0372 43.0838 79.5773 42.2346 80.2074 41.5195C80.8826 40.8045 81.6928 40.2681 82.593 39.9106C83.4932 39.5084 84.5284 39.3296 85.6086 39.3296C85.9687 39.3296 86.3738 39.3743 86.8239 39.4637C87.7241 39.6424 88.3092 39.7765 88.6243 39.8212C88.9393 39.8659 89.1644 39.9106 89.2544 39.9106H89.4344C89.6145 39.9106 89.7495 39.8659 89.8845 39.7318L90.2896 39.8212Z" fill="white"/>
<path d="M99.0215 39.4189C100.192 39.4189 101.227 39.5977 102.217 40C103.207 40.3575 104.018 40.8938 104.693 41.6089C105.413 42.2793 105.908 43.1284 106.313 44.067C106.673 45.0055 106.898 46.0782 106.898 47.2402C106.898 48.3575 106.718 49.4301 106.358 50.3687C105.953 51.3519 105.458 52.1564 104.738 52.8715C104.063 53.5865 103.207 54.1229 102.262 54.4804C101.317 54.8826 100.237 55.0614 99.1115 55.0614C97.9413 55.0614 96.8611 54.8826 95.8708 54.4804C94.8806 54.1229 94.0254 53.5419 93.3053 52.8715C92.5851 52.1564 92.045 51.3519 91.6399 50.3687C91.2348 49.4301 91.0548 48.3575 91.0548 47.2402C91.0548 46.0782 91.2348 45.0055 91.6399 44.067C92 43.1284 92.5401 42.2793 93.2603 41.6089C93.9804 40.8938 94.7906 40.3575 95.7808 40C96.816 39.5977 97.8513 39.4189 99.0215 39.4189ZM99.0665 41.6983C98.0763 41.6983 97.2211 41.9217 96.456 42.4134C95.6908 42.905 95.0607 43.5307 94.6556 44.3798C94.2505 45.229 94.0254 46.1675 94.0254 47.2402C94.0254 48.3128 94.2505 49.2513 94.6556 50.1005C95.0607 50.9497 95.6458 51.5754 96.411 52.0223C97.1761 52.4692 98.0313 52.6927 99.0215 52.6927C99.7417 52.6927 100.417 52.5586 101.002 52.2905C101.632 52.0223 102.127 51.6648 102.577 51.1731C103.027 50.6815 103.387 50.1005 103.613 49.4301C103.838 48.7597 103.973 48 103.973 47.1955C103.973 46.391 103.838 45.6312 103.613 44.9608C103.387 44.2905 103.027 43.7094 102.577 43.2178C102.127 42.7262 101.587 42.3687 101.002 42.1005C100.462 41.8324 99.7867 41.6983 99.0665 41.6983Z" fill="white"/>
<path d="M117.701 42.0559H111.354V51.1732C111.354 51.933 111.399 52.514 111.444 52.961C111.534 53.4079 111.624 53.7207 111.804 53.9442C111.984 54.1677 112.209 54.3017 112.479 54.3911V54.6593C111.759 54.6146 110.904 54.6146 109.914 54.6146C108.924 54.6146 108.068 54.6146 107.348 54.6593V54.3911C107.618 54.3464 107.888 54.2124 108.023 53.9889C108.204 53.7654 108.294 53.4526 108.384 53.0056C108.474 52.5587 108.474 51.933 108.474 51.1732V43.3073C108.474 42.1453 108.384 41.3408 108.204 40.8939C108.023 40.447 107.708 40.1788 107.303 40.0894V39.8213H108.474H120.491H121.616V40.0894C121.166 40.1788 120.896 40.447 120.716 40.8939C120.536 41.3855 120.446 42.19 120.446 43.3073V51.1732C120.446 52.2906 120.536 53.0503 120.716 53.542C120.896 54.0336 121.211 54.3017 121.616 54.3911V54.6593H116.575V54.3911C116.89 54.3464 117.115 54.1677 117.25 53.9889C117.431 53.7654 117.521 53.4526 117.611 53.0056C117.656 52.5587 117.701 51.933 117.701 51.1732V42.0559Z" fill="white"/>
<path d="M124.092 55.3744V43.3073C124.092 42.5029 124.047 41.9219 124.002 41.4749C123.912 41.028 123.822 40.7152 123.642 40.4917C123.462 40.2682 123.237 40.1341 122.967 40.0895V39.8213H128.008V40.0895C127.693 40.1341 127.423 40.2682 127.243 40.447C127.063 40.6258 126.973 40.9833 126.883 41.3855C126.838 41.8325 126.793 42.4582 126.793 43.3073V49.2068L136.38 39.0615H136.65V51.1286C136.65 51.933 136.695 52.514 136.74 52.961C136.83 53.4079 136.92 53.7207 137.1 53.9442C137.28 54.1677 137.505 54.3017 137.775 54.3464V54.6146H132.734V54.3464C133.049 54.3017 133.319 54.1677 133.499 53.9889C133.679 53.8101 133.769 53.4526 133.859 53.0503C133.904 52.6034 133.949 51.9777 133.949 51.1286V45.2291L124.407 55.3297L124.092 55.3744Z" fill="white"/>
<path d="M145.022 51.1732C145.022 51.9777 145.067 52.5587 145.112 53.0056C145.202 53.4526 145.292 53.7654 145.472 53.9889C145.652 54.2124 145.877 54.3464 146.237 54.3911V54.6593H141.061V54.3911C141.376 54.3464 141.601 54.2124 141.781 53.9889C141.916 53.7654 142.051 53.4526 142.096 53.0503C142.141 52.6034 142.186 52.0224 142.186 51.1732V42.0112H141.106C140.341 42.0112 139.755 42.1006 139.395 42.2347C139.035 42.3688 138.765 42.6369 138.63 42.9945H138.315L138.63 39.8213H148.757L149.027 42.9945H148.757C148.577 42.6369 148.307 42.3688 147.947 42.2347C147.587 42.1006 147.002 42.0112 146.237 42.0112H145.067L145.022 51.1732Z" fill="white"/>
<path d="M156.859 39.4189C158.029 39.4189 159.065 39.5977 160.055 40C161.045 40.3575 161.855 40.8938 162.53 41.6089C163.25 42.2793 163.746 43.1284 164.151 44.067C164.511 45.0055 164.736 46.0782 164.736 47.2402C164.736 48.3575 164.556 49.4301 164.196 50.3687C163.791 51.3519 163.296 52.1564 162.575 52.8715C161.9 53.5865 161.045 54.1229 160.1 54.4804C159.155 54.8826 158.074 55.0614 156.949 55.0614C155.779 55.0614 154.699 54.8826 153.708 54.4804C152.718 54.1229 151.863 53.5419 151.143 52.8715C150.423 52.1564 149.883 51.3519 149.477 50.3687C149.072 49.4301 148.892 48.3575 148.892 47.2402C148.892 46.0782 149.072 45.0055 149.477 44.067C149.838 43.1284 150.378 42.2793 151.098 41.6089C151.818 40.8938 152.628 40.3575 153.618 40C154.609 39.5977 155.689 39.4189 156.859 39.4189ZM156.904 41.6983C155.914 41.6983 155.059 41.9217 154.294 42.4134C153.528 42.905 152.898 43.5307 152.493 44.3798C152.088 45.229 151.863 46.1675 151.863 47.2402C151.863 48.3128 152.088 49.2513 152.493 50.1005C152.898 50.9497 153.483 51.5754 154.249 52.0223C155.014 52.4692 155.869 52.6927 156.859 52.6927C157.579 52.6927 158.254 52.5586 158.84 52.2905C159.47 52.0223 159.965 51.6648 160.415 51.1731C160.865 50.6815 161.225 50.1005 161.45 49.4301C161.675 48.7597 161.81 48 161.81 47.1955C161.81 46.391 161.675 45.6312 161.45 44.9608C161.225 44.2905 160.865 43.7094 160.415 43.2178C159.965 42.7262 159.425 42.3687 158.84 42.1005C158.254 41.8324 157.579 41.6983 156.904 41.6983Z" fill="white"/>
<path d="M179.454 39.0168H179.769L183.235 52.4694C183.415 53.0951 183.55 53.542 183.73 53.7654C183.865 54.0336 184.09 54.2571 184.405 54.3911V54.6593C184.225 54.6593 183.955 54.6593 183.55 54.6593C183.145 54.6593 182.605 54.6593 181.93 54.6593C180.849 54.6593 180.129 54.6593 179.814 54.6593V54.3911C180.264 54.2571 180.489 53.9442 180.489 53.4526L178.914 45.6314L174.548 55.1062H174.188L169.777 45.6314L168.247 52.8269C168.157 53.2291 168.112 53.4973 168.112 53.6314C168.112 54.0336 168.292 54.3018 168.697 54.3911V54.6593C168.067 54.6146 167.391 54.6146 166.626 54.6146C165.816 54.6146 165.141 54.6146 164.556 54.6593V54.3911C164.781 54.3018 164.961 54.2124 165.096 54.123C165.231 53.9889 165.321 53.8101 165.411 53.542C165.501 53.2738 165.636 52.8716 165.816 52.2906L169.147 39.0168H169.417L174.413 49.7878L179.454 39.0168Z" fill="white"/>
<path d="M195.523 48.0448H189.176V51.1732C189.176 51.933 189.221 52.514 189.266 52.961C189.356 53.4079 189.446 53.7207 189.626 53.9442C189.806 54.1677 190.031 54.3017 190.301 54.3911V54.6593C189.581 54.6146 188.726 54.6146 187.736 54.6146C186.746 54.6146 185.89 54.6146 185.17 54.6593V54.3911C185.44 54.3464 185.71 54.2124 185.845 53.9889C186.025 53.7654 186.115 53.4526 186.205 53.0056C186.296 52.5587 186.296 51.933 186.296 51.1732V43.3073C186.296 42.1453 186.205 41.3408 186.025 40.8939C185.845 40.447 185.53 40.1788 185.125 40.0894V39.8213H186.296C186.791 39.866 187.241 39.866 187.736 39.866C188.231 39.866 188.681 39.866 189.131 39.8213H190.256V40.0894C189.851 40.1788 189.536 40.447 189.356 40.8939C189.176 41.3855 189.131 42.19 189.131 43.3073V45.7207H195.477V43.3073C195.477 42.1453 195.387 41.3408 195.252 40.8939C195.072 40.447 194.802 40.1788 194.352 40.0894V39.8213H195.477C195.973 39.866 196.468 39.866 196.918 39.866C197.368 39.866 197.863 39.866 198.313 39.8213H199.438V40.0894C198.988 40.1788 198.718 40.447 198.538 40.8939C198.358 41.3855 198.268 42.19 198.268 43.3073V51.1732C198.268 52.2906 198.358 53.0503 198.538 53.542C198.718 54.0336 199.033 54.3017 199.438 54.3911V54.6593H194.352V54.3911C194.667 54.3464 194.892 54.1677 195.027 53.9889C195.207 53.7654 195.297 53.4526 195.387 53.0056C195.432 52.5587 195.477 51.933 195.477 51.1732C195.523 51.1732 195.523 48.0448 195.523 48.0448Z" fill="white"/>
<path d="M201.509 55.3744V43.3073C201.509 42.5029 201.464 41.9219 201.419 41.4749C201.329 41.028 201.239 40.7152 201.059 40.4917C200.879 40.2682 200.654 40.1341 200.384 40.0895V39.8213H205.425V40.0895C205.11 40.1341 204.84 40.2682 204.66 40.447C204.479 40.6258 204.389 40.9833 204.299 41.3855C204.254 41.8325 204.209 42.4582 204.209 43.3073V49.2068L213.796 39.0615H214.067V51.1286C214.067 51.933 214.112 52.514 214.157 52.961C214.247 53.4079 214.337 53.7207 214.517 53.9442C214.697 54.1677 214.922 54.3017 215.192 54.3464V54.6146H210.151V54.3464C210.466 54.3017 210.736 54.1677 210.916 53.9889C211.096 53.8101 211.186 53.4526 211.276 53.0503C211.321 52.6034 211.366 51.9777 211.366 51.1286V45.2291L201.824 55.3297L201.509 55.3744Z" fill="white"/>
<path d="M225.499 43.5755L223.023 45.7207L222.303 46.123L227.614 52.4247C228.515 53.4526 229.28 54.0783 229.91 54.3464V54.6146L229.46 54.6593L228.515 54.704C228.2 54.7934 227.93 54.7934 227.704 54.7934C227.164 54.7934 226.669 54.6593 226.129 54.3911C225.634 54.123 225.139 53.7654 224.734 53.3185L219.738 47.3297H219.693V51.1286C219.693 51.933 219.738 52.514 219.783 52.961C219.873 53.4079 219.963 53.7207 220.143 53.9442C220.323 54.1677 220.548 54.3017 220.863 54.3464V54.6146H215.822V54.3464C216.272 54.2571 216.587 53.9889 216.722 53.542C216.857 53.095 216.947 52.2906 216.947 51.1286V43.3073C216.947 42.1453 216.857 41.2962 216.722 40.8492C216.587 40.4023 216.272 40.1342 215.822 40.0895V39.8213H220.863V40.0895C220.413 40.1788 220.143 40.447 219.963 40.8939C219.783 41.3409 219.693 42.1453 219.693 43.3073V45.8548L219.963 45.8995C223.339 41.9666 225.364 39.9554 225.994 39.9107C226.624 39.866 227.795 39.8213 229.595 39.7766V40.3129C229.19 40.2682 228.83 40.3576 228.56 40.5364L225.499 43.5755ZM219.693 47.3744L219.738 47.3297L219.693 47.285V47.3744Z" fill="white"/>
<path d="M0.180725 61.3184H14.9439C16.7443 59.6201 16.7443 57.3408 16.7443 57.3408V49.4749H23.5858V57.3408C23.5858 57.3408 23.5858 59.6201 25.3862 61.3184H230.001V64H0.180725V61.3184Z" fill="white"/>
<path d="M20.1644 0C29.2564 3.62011 36.0978 11.7542 38.9335 19.9777V19.933C36.728 24.5363 34.1174 27.1285 32.7671 28.2458C31.8219 26.5028 30.7417 24.6257 29.3914 22.7039C29.1663 21.9888 27.1409 15.4637 30.4266 6.7486C29.8865 6.21229 29.3014 5.72067 28.7162 5.18436C26.4207 10.8156 26.1507 15.6425 26.4658 18.905C22.5949 14.3464 17.3738 9.78771 10.4423 6.30168C9.90215 6.7933 9.36203 7.32961 8.86693 7.86592C27.411 16.8492 33.6223 33.743 35.5127 41.2514C31.9569 45.7654 26.6458 49.5196 20.2544 52.067C8.10176 47.2402 0 38.257 0 27.933C0 25.3408 0.495108 22.6145 1.44031 19.8883C3.15068 23.6872 5.44618 27.0838 7.96673 30.1229C5.9863 30.1229 2.92564 29.8101 0 28.4246C0 29.2737 0.0900196 30.0782 0.225049 30.8827C3.06067 32 5.89628 32.2682 7.87671 32.2682C8.68689 32.2682 9.36203 32.2235 9.81213 32.1788C14.0431 36.7374 18.7691 40.3128 22.82 42.905C21.3796 44.2905 17.8689 46.9274 11.3425 47.3296C12.2427 47.9553 13.1879 48.581 14.1331 49.162C20.0744 48.1788 23.3151 45.4525 24.6204 44.067C26.5558 45.229 28.2661 46.1676 29.6164 46.838C30.2466 46.3464 30.8767 45.8547 31.4618 45.3631C29.1663 44.2011 25.3855 42.1452 21.1996 39.1955C21.4247 23.9106 11.6125 13.3631 7.33659 9.51955C6.8865 10.0559 6.4364 10.6369 6.03131 11.2179C9.94716 14.838 18.589 24.3128 19.0841 37.6313C12.7378 32.7598 6.03131 25.9218 2.56556 17.1173C2.25049 17.743 1.98043 18.4134 1.75538 19.0391C4.81605 11.1285 11.4775 3.48603 20.1644 0ZM39.7436 22.8827C40.1487 24.581 40.3288 26.2793 40.3288 27.933C40.3288 32.3575 38.8434 36.5587 36.1879 40.2682C36.5029 39.8659 36.773 39.419 37.0431 39.0168C36.3229 36.5587 35.2877 33.5196 33.6673 30.2123C34.9726 29.1844 37.4481 26.9497 39.7436 22.8827Z" fill="white"/>
</svg>
