<?xml version="1.0" standalone="no"?>
<!DOCTYPE svg PUBLIC "-//W3C//DTD SVG 20010904//EN"
 "http://www.w3.org/TR/2001/REC-SVG-20010904/DTD/svg10.dtd">
<svg version="1.0" xmlns="http://www.w3.org/2000/svg"
 width="1528.000000pt" height="1528.000000pt" viewBox="0 0 1528.000000 1528.000000"
 preserveAspectRatio="xMidYMid meet">
<metadata>
Created by potrace 1.11, written by Peter Selinger 2001-2013
</metadata>
<g transform="translate(0.000000,1528.000000) scale(0.100000,-0.100000)"
fill="#000000" stroke="none">
<path d="M7572 15250 c-34 -16 -65 -29 -67 -29 -3 0 -30 -12 -60 -26 -31 -14
-58 -25 -60 -25 -8 0 -345 -167 -435 -216 -141 -76 -315 -177 -318 -186 -2 -4
-9 -8 -15 -8 -7 0 -56 -29 -110 -65 -54 -36 -103 -65 -107 -65 -5 0 -14 -8
-19 -17 -6 -10 -11 -13 -11 -8 0 7 -3 7 -8 0 -4 -5 -34 -28 -67 -50 -33 -22
-61 -43 -63 -47 -2 -5 -8 -8 -14 -8 -5 0 -35 -20 -66 -44 -32 -24 -93 -69
-137 -101 -44 -32 -81 -62 -83 -67 -2 -4 -8 -8 -13 -8 -5 0 -18 -8 -28 -17
-10 -10 -36 -31 -57 -48 -51 -40 -275 -226 -294 -245 -9 -8 -51 -46 -95 -85
-98 -87 -118 -106 -113 -110 3 -3 90 -50 253 -135 105 -55 145 -77 318 -176
71 -41 133 -74 138 -74 5 0 9 -4 9 -9 0 -5 14 -14 30 -21 17 -7 30 -16 30 -20
0 -4 11 -11 24 -14 14 -3 31 -12 38 -19 8 -6 24 -18 36 -24 56 -32 67 -38 76
-46 28 -19 167 -107 171 -107 3 0 13 -6 22 -14 34 -27 247 -166 255 -166 4 0
8 -3 8 -7 0 -5 25 -24 55 -43 30 -19 55 -38 55 -42 0 -5 6 -8 13 -8 7 0 22 -8
33 -19 11 -10 44 -35 74 -56 30 -21 57 -41 60 -44 3 -4 18 -15 35 -25 16 -11
34 -23 40 -28 5 -5 37 -29 70 -54 71 -53 85 -63 190 -146 44 -34 82 -65 85
-68 3 -3 28 -23 55 -45 28 -22 55 -44 61 -50 6 -5 28 -23 50 -40 21 -16 51
-42 66 -57 16 -16 31 -28 35 -28 3 0 13 -8 22 -18 9 -9 32 -30 51 -46 193
-158 668 -615 900 -866 52 -57 112 -121 132 -143 21 -22 55 -60 75 -85 21 -24
56 -64 78 -88 22 -23 51 -57 65 -74 14 -18 39 -48 56 -67 l31 -36 -4 54 c-1
30 -6 92 -9 139 -9 123 -9 553 0 705 11 202 22 335 31 395 2 14 7 50 10 80 3
30 8 69 11 85 3 17 7 44 9 60 4 28 7 48 19 130 3 17 5 30 6 30 1 0 3 9 5 20 1
11 6 38 10 60 3 22 7 49 9 60 1 11 5 26 9 33 5 6 6 12 3 12 -2 0 2 28 10 62 8
35 17 78 20 98 3 19 8 38 10 41 2 3 5 19 8 35 3 16 20 83 37 149 17 66 32 127
34 135 2 8 4 15 5 15 1 0 3 7 5 15 10 44 35 132 40 140 4 6 8 21 11 33 2 13
19 70 38 127 20 57 33 107 30 111 -2 4 0 10 5 13 5 4 19 37 31 74 13 37 28 81
35 97 7 17 27 68 45 115 18 47 39 100 47 119 17 39 23 31 -87 121 -23 19 -53
45 -66 58 -13 12 -27 22 -32 22 -5 0 -15 7 -22 14 -6 8 -55 48 -108 88 -53 40
-101 76 -107 81 -23 19 -187 133 -265 185 -47 31 -86 60 -88 64 -2 4 -8 8 -14
8 -5 0 -28 13 -51 29 -244 166 -731 423 -1072 564 -92 38 -95 38 -163 7z"/>
<path d="M10062 13657 c-9 -11 -108 -287 -118 -332 -7 -28 -10 -38 -17 -55 -5
-12 -21 -68 -33 -112 -1 -5 -2 -9 -4 -10 -1 -2 -3 -10 -5 -18 -2 -8 -18 -64
-35 -125 -29 -106 -39 -148 -45 -190 -2 -11 -4 -21 -5 -22 -2 -2 -4 -7 -5 -13
-1 -5 -4 -12 -5 -15 -1 -3 -3 -13 -4 -22 -1 -10 -5 -24 -9 -30 -5 -7 -6 -13
-4 -13 3 0 1 -17 -4 -37 -5 -21 -18 -85 -29 -143 -26 -133 -28 -146 -35 -195
-3 -22 -8 -51 -11 -65 -4 -25 -11 -71 -20 -145 -3 -22 -6 -61 -7 -87 -1 -27
-4 -48 -7 -48 -4 0 -6 -10 -7 -22 0 -13 -4 -57 -7 -98 -13 -161 -16 -211 -20
-365 -2 -88 -5 -164 -6 -170 -1 -5 -2 -12 -1 -15 6 -16 4 -107 -2 -118 -5 -6
-5 -12 0 -12 4 0 9 -42 9 -93 1 -50 5 -128 8 -172 4 -44 8 -107 10 -140 2 -33
5 -60 6 -60 0 0 3 -18 5 -40 2 -22 7 -60 10 -85 4 -25 8 -58 10 -75 2 -16 6
-48 10 -70 3 -22 8 -53 11 -70 3 -16 7 -37 9 -45 2 -8 6 -32 9 -52 3 -21 11
-59 17 -85 6 -27 13 -57 15 -68 5 -29 35 -147 42 -165 8 -22 8 -22 16 -62 4
-20 15 -45 24 -55 27 -30 102 -144 102 -154 0 -5 5 -9 10 -9 6 0 10 -6 10 -14
0 -8 4 -16 8 -18 5 -1 37 -48 72 -103 35 -55 87 -137 117 -182 29 -46 53 -87
53 -93 0 -5 5 -10 10 -10 6 0 10 -5 10 -10 0 -6 18 -39 40 -74 22 -35 40 -68
40 -75 0 -6 3 -11 8 -11 4 0 18 -21 32 -47 13 -27 27 -50 30 -53 3 -3 10 -15
17 -26 6 -12 41 -74 77 -139 36 -64 66 -121 66 -126 0 -5 5 -9 12 -9 6 0 9 -3
5 -6 -3 -3 4 -23 16 -43 12 -20 29 -49 37 -64 7 -15 19 -26 26 -25 28 7 314
282 444 428 36 40 75 83 88 96 12 13 22 27 22 33 0 5 4 11 9 13 5 2 34 35 65
73 31 39 62 77 69 85 37 45 141 187 197 270 36 52 71 101 77 108 7 7 20 28 28
46 9 18 25 43 35 54 11 12 20 23 20 26 0 3 27 48 60 100 32 53 56 96 52 96 -4
0 -2 4 4 8 6 4 24 30 39 57 15 28 38 70 52 95 14 25 65 122 113 215 l87 170
-15 35 c-9 19 -17 44 -19 54 -2 10 -27 78 -55 150 -29 72 -53 133 -54 136 -2
11 -26 67 -50 117 -13 28 -24 59 -24 67 0 9 -4 16 -10 16 -5 0 -10 9 -10 20 0
11 -5 20 -10 20 -6 0 -9 3 -9 8 1 4 -4 23 -11 42 -16 42 -205 419 -256 510
-20 36 -46 83 -57 105 -11 22 -26 47 -32 55 -7 8 -23 35 -36 60 -13 25 -34 59
-46 76 -13 17 -23 34 -23 37 0 6 -93 156 -112 182 -4 6 -45 66 -90 135 -45 69
-86 130 -91 135 -4 6 -25 35 -47 65 -22 30 -43 60 -48 65 -4 6 -27 38 -51 73
-24 34 -48 62 -52 62 -5 0 -9 5 -9 11 0 8 -190 249 -267 339 -12 14 -30 35
-40 47 -107 124 -220 247 -360 392 -51 52 -93 97 -93 100 0 4 -9 12 -19 18
-15 9 -21 9 -29 0z"/>
<path d="M4874 13314 c-74 -83 -75 -83 -149 -170 -27 -32 -62 -71 -77 -88 -27
-29 -37 -66 -20 -66 11 0 159 -140 336 -316 231 -231 482 -505 643 -701 17
-21 41 -49 53 -63 12 -14 34 -41 49 -60 14 -19 31 -40 36 -46 38 -42 206 -257
217 -277 5 -10 17 -26 26 -36 21 -21 150 -201 302 -421 36 -51 221 -336 222
-340 0 -3 15 -27 32 -55 18 -27 41 -66 52 -85 10 -19 21 -37 24 -40 3 -3 16
-25 29 -50 14 -25 27 -47 31 -50 3 -3 14 -21 23 -40 18 -36 25 -48 64 -112 13
-21 20 -38 17 -38 -4 0 -1 -7 7 -16 18 -22 66 -112 178 -339 105 -213 173
-357 211 -450 10 -25 42 -98 64 -147 9 -20 16 -40 16 -45 0 -4 6 -19 13 -33 7
-14 21 -47 31 -75 10 -27 24 -63 31 -80 17 -39 116 -316 120 -335 2 -8 13 -42
25 -75 12 -33 23 -67 25 -75 1 -8 11 -40 20 -70 42 -135 55 -180 75 -254 12
-43 24 -89 26 -102 2 -13 9 -35 14 -49 5 -14 8 -25 5 -25 -2 0 2 -18 10 -40 8
-22 12 -40 10 -40 -2 0 1 -15 6 -32 11 -38 68 -298 75 -343 6 -36 11 -61 19
-95 3 -14 7 -36 9 -50 15 -91 19 -118 22 -145 7 -53 41 -280 44 -280 0 0 2
-27 5 -61 2 -33 6 -78 9 -100 8 -57 16 -148 22 -239 3 -44 7 -102 9 -130 2
-27 6 -176 9 -329 5 -262 6 -280 25 -297 11 -11 23 -19 27 -19 4 0 25 -15 48
-33 23 -19 51 -39 63 -45 12 -7 28 -18 35 -24 8 -7 21 -17 30 -23 77 -48 414
-280 416 -286 2 -5 9 -9 15 -9 7 0 38 -18 70 -40 31 -22 62 -40 67 -40 6 0 10
-4 10 -10 0 -5 4 -10 10 -10 5 0 60 -33 122 -73 147 -95 465 -287 477 -287 5
0 11 -4 13 -8 2 -5 15 -15 30 -23 56 -29 254 -143 281 -161 15 -11 27 -16 27
-11 0 4 4 3 8 -3 4 -6 43 -30 87 -54 167 -89 409 -218 525 -279 l46 -24 49 44
c27 24 64 59 83 77 18 17 36 32 39 32 12 0 523 525 523 537 0 3 8 13 18 22 10
9 65 72 121 140 115 138 112 128 72 258 -5 17 -6 34 -3 38 4 3 1 9 -5 13 -6 4
-13 21 -16 39 -3 17 -8 36 -11 41 -3 5 -8 23 -11 40 -3 18 -12 51 -19 75 -12
35 -37 120 -41 137 0 3 -9 32 -19 65 -18 60 -22 73 -25 87 -1 4 -9 27 -17 50
-9 24 -17 48 -18 53 -4 18 -37 120 -46 140 -5 11 -14 38 -20 60 -6 22 -14 47
-17 55 -4 8 -7 17 -8 20 -1 3 -4 12 -7 20 -3 8 -13 35 -21 60 -18 51 -115 317
-124 340 -4 8 -7 17 -8 20 -1 3 -6 16 -12 30 -22 50 -125 305 -127 315 -1 6
-6 17 -11 25 -5 8 -10 20 -11 25 -1 6 -25 61 -53 124 -28 63 -51 120 -51 127
0 6 -6 17 -14 23 -8 7 -17 22 -20 34 -3 12 -31 76 -63 142 -31 66 -56 123 -55
128 1 4 -2 7 -8 7 -6 0 -9 3 -8 8 3 6 -161 341 -172 352 -3 3 -27 48 -54 100
-27 52 -58 111 -69 130 -11 19 -32 58 -47 85 -15 28 -36 66 -46 85 -10 19 -23
38 -29 42 -7 5 -7 8 0 8 6 0 5 4 -1 8 -6 4 -23 30 -38 57 -15 28 -52 90 -82
139 -29 49 -54 90 -54 92 0 1 -18 30 -40 63 -22 33 -40 65 -40 71 0 5 -4 10
-10 10 -5 0 -12 11 -16 24 -3 14 -12 27 -20 30 -8 3 -14 10 -14 16 0 9 -85
145 -100 160 -13 13 -80 121 -80 129 0 5 -4 11 -8 13 -5 2 -29 32 -53 68 -24
36 -47 70 -51 75 -53 66 -105 145 -100 149 3 3 1 6 -5 6 -6 0 -23 19 -39 43
-41 60 -128 171 -136 175 -5 2 -8 8 -8 13 0 5 -7 17 -15 26 -8 10 -62 79 -121
153 -58 74 -114 143 -123 152 -9 9 -29 34 -46 55 -32 40 -199 235 -250 292
-33 37 -37 41 -150 165 -109 120 -469 481 -589 591 -54 50 -111 101 -126 115
-49 45 -164 147 -200 176 -19 16 -42 36 -50 44 -43 40 -90 80 -94 80 -3 0 -16
10 -29 23 -12 12 -42 38 -66 57 -24 19 -51 42 -61 50 -10 8 -28 22 -40 30 -12
8 -28 20 -34 25 -41 38 -197 155 -206 155 -5 0 -10 4 -10 9 0 4 -27 27 -61 50
-33 23 -66 46 -72 52 -13 11 -103 76 -137 99 -12 8 -32 22 -44 31 -11 8 -70
49 -131 90 -60 41 -111 77 -113 82 -2 4 -8 7 -13 7 -5 0 -50 27 -100 60 -50
33 -94 60 -98 60 -4 0 -16 9 -26 20 -10 11 -21 20 -25 20 -3 0 -69 38 -146 85
-76 46 -155 92 -174 102 -19 9 -37 19 -40 22 -3 4 -25 17 -50 30 -25 14 -48
29 -52 35 -4 6 -8 7 -8 2 0 -5 -6 -4 -12 1 -7 6 -40 25 -73 43 -33 18 -82 45
-110 60 -124 68 -388 200 -399 200 -7 0 -44 -34 -82 -76z"/>
<path d="M4202 12469 c-51 -71 -92 -134 -92 -140 0 -5 -4 -9 -10 -9 -5 0 -10
-4 -10 -9 0 -4 -26 -48 -58 -97 -67 -102 -180 -286 -237 -389 -84 -149 -96
-171 -113 -205 -9 -19 -21 -38 -27 -42 -5 -4 -6 -8 -1 -8 5 0 1 -9 -8 -19 -10
-11 -19 -25 -20 -33 -1 -7 -11 -29 -21 -48 -24 -45 -77 -153 -99 -205 -10 -22
-22 -48 -27 -57 -6 -12 -6 -18 1 -18 5 0 9 -3 8 -7 0 -5 2 -17 7 -28 4 -11 19
-47 32 -80 13 -33 28 -69 33 -80 5 -11 36 -81 69 -155 32 -74 89 -197 125
-272 37 -76 67 -141 67 -145 1 -5 9 -19 18 -33 10 -14 34 -56 53 -95 20 -38
54 -104 77 -145 23 -41 47 -86 54 -100 6 -14 14 -27 17 -30 5 -5 13 -18 58
-99 25 -46 48 -83 99 -163 15 -24 27 -45 28 -48 0 -3 10 -19 23 -37 12 -17 22
-36 22 -42 0 -6 4 -11 9 -11 5 0 14 -13 21 -30 7 -16 16 -30 21 -30 5 0 9 -5
9 -11 0 -12 161 -252 172 -257 5 -2 8 -8 8 -13 0 -11 101 -152 112 -157 5 -2
8 -8 8 -12 0 -15 46 -79 93 -131 9 -10 17 -21 17 -23 0 -5 92 -128 113 -152
26 -29 37 -43 37 -49 0 -3 8 -14 18 -24 9 -11 22 -26 27 -33 56 -71 220 -274
226 -278 4 -3 23 -25 44 -50 54 -66 117 -140 140 -164 11 -12 35 -39 54 -61
211 -248 783 -821 1072 -1075 91 -80 92 -81 160 -141 34 -30 71 -63 83 -74 12
-11 53 -46 91 -78 39 -32 81 -68 95 -80 14 -12 61 -51 105 -87 44 -35 87 -72
96 -82 9 -10 21 -18 28 -18 6 0 16 -9 23 -20 7 -11 16 -20 21 -20 4 0 52 -36
106 -80 55 -44 101 -80 104 -80 5 0 0 161 -8 260 -3 36 -8 92 -10 125 -8 100
-13 160 -15 160 0 0 -3 23 -5 50 -3 28 -7 66 -10 85 -3 19 -7 53 -9 75 -6 48
-13 99 -28 180 -5 33 -11 69 -13 80 -10 65 -17 107 -31 168 -8 37 -12 72 -9
78 4 5 2 9 -2 9 -5 0 -10 11 -11 24 -1 13 -11 63 -23 112 -11 49 -22 96 -24
105 -10 47 -39 163 -57 223 -11 38 -22 78 -24 90 -9 49 -114 382 -171 541 -42
121 -45 130 -41 131 2 0 -2 7 -8 15 -6 8 -17 32 -24 54 -7 22 -16 45 -20 50
-4 6 -13 28 -20 50 -7 22 -16 45 -20 50 -3 6 -15 33 -25 60 -10 28 -22 54 -26
60 -5 5 -9 15 -9 21 0 7 -15 46 -34 86 -19 40 -42 91 -51 113 -10 22 -46 99
-81 172 -35 72 -64 136 -64 141 0 6 -3 12 -7 14 -11 4 -49 81 -43 84 3 1 -2
10 -11 20 -9 11 -31 48 -49 84 -45 88 -68 132 -80 150 -17 26 -140 242 -140
246 0 2 -25 42 -55 89 -30 46 -55 89 -55 95 0 5 -4 10 -10 10 -5 0 -10 7 -10
15 0 8 -4 15 -10 15 -5 0 -10 5 -10 11 0 14 -259 403 -271 407 -5 2 -9 8 -9
13 0 10 -35 62 -58 87 -6 7 -26 35 -44 60 -17 26 -41 59 -52 73 -12 15 -30 39
-41 55 -43 60 -130 169 -137 172 -4 2 -8 10 -8 18 0 8 -4 14 -8 14 -5 0 -23
19 -40 43 -17 23 -41 54 -54 68 -13 15 -34 41 -48 59 -14 18 -29 38 -35 44 -5
6 -35 41 -65 76 -71 84 -81 95 -134 155 -25 28 -54 61 -66 75 -117 137 -642
670 -659 670 -4 0 -49 -59 -99 -131z"/>
<path d="M3206 10522 c-7 -11 -43 -112 -51 -142 -3 -8 -16 -53 -31 -100 -31
-101 -131 -488 -139 -539 -3 -20 -7 -43 -10 -51 -2 -8 -6 -26 -9 -40 -3 -14
-7 -34 -9 -45 -3 -11 -8 -45 -13 -75 -11 -70 -11 -74 -14 -80 -1 -3 -3 -16 -5
-30 -8 -73 -16 -127 -20 -145 -2 -11 -7 -51 -10 -90 -4 -38 -9 -78 -11 -90
-12 -54 -27 -559 -18 -587 3 -10 8 -17 12 -16 4 1 36 -12 72 -28 36 -17 115
-50 175 -73 61 -24 118 -47 127 -52 10 -5 25 -9 33 -9 8 0 23 -4 33 -10 9 -5
82 -28 162 -50 80 -22 159 -45 177 -50 17 -6 35 -10 40 -9 4 1 10 0 13 -1 7
-2 30 -7 70 -14 19 -4 42 -9 51 -12 9 -2 32 -7 50 -9 19 -3 45 -7 59 -10 40
-8 71 -13 130 -20 30 -4 57 -8 60 -10 3 -2 42 -7 85 -10 44 -4 93 -9 110 -11
112 -13 425 -24 425 -15 0 3 -10 17 -22 31 -34 38 -175 213 -253 315 -38 50
-75 96 -82 103 -7 8 -20 27 -28 43 -9 16 -20 29 -25 29 -6 0 -10 5 -10 11 0
11 -60 92 -72 97 -5 2 -8 10 -8 17 0 8 -8 19 -17 24 -10 6 -13 11 -8 11 6 0 6
3 -1 8 -5 4 -26 30 -45 57 -18 28 -37 52 -41 53 -5 2 -8 10 -8 18 0 8 -3 14
-8 14 -4 0 -12 8 -17 19 -6 10 -47 74 -92 141 -46 67 -83 126 -83 131 0 5 -4
9 -10 9 -5 0 -10 7 -10 15 0 8 -4 15 -10 15 -5 0 -10 7 -10 15 0 8 -4 15 -10
15 -5 0 -10 5 -10 11 0 6 -12 29 -27 52 -42 63 -113 180 -143 235 -8 15 -32
56 -53 92 -21 36 -43 73 -48 83 -20 38 -34 62 -39 67 -5 5 -67 123 -134 255
-23 44 -45 83 -49 86 -5 3 -9 9 -8 12 0 13 -42 102 -50 105 -5 2 -9 9 -9 15 0
10 -48 117 -72 162 -6 11 -14 31 -18 44 -4 16 -9 21 -14 13z"/>
<path d="M12269 9785 c-8 -16 -19 -36 -26 -43 -7 -7 -13 -18 -13 -23 0 -5 -5
-15 -10 -22 -10 -11 -66 -102 -94 -152 -6 -11 -30 -48 -54 -83 -23 -35 -42
-67 -42 -72 0 -5 -3 -10 -7 -12 -5 -1 -37 -46 -72 -98 -36 -52 -74 -107 -85
-121 -12 -14 -28 -36 -36 -48 -43 -63 -265 -339 -338 -419 -36 -41 -74 -83
-85 -95 -24 -29 -217 -226 -217 -222 0 1 -22 -18 -48 -44 -68 -66 -126 -117
-214 -190 l-77 -64 30 -59 c16 -32 30 -61 31 -65 0 -5 13 -35 28 -68 15 -33
37 -82 49 -110 13 -27 29 -62 37 -76 7 -14 11 -29 7 -33 -3 -3 -1 -6 5 -6 7 0
12 -9 12 -20 0 -11 5 -20 10 -20 6 0 10 -8 10 -18 0 -10 5 -23 12 -30 7 -7 9
-12 5 -12 -4 0 2 -19 14 -42 11 -22 27 -57 34 -77 7 -20 21 -54 31 -76 10 -22
18 -42 19 -45 2 -6 22 -57 32 -80 3 -8 7 -17 7 -20 1 -4 55 -143 76 -195 4
-11 18 -47 30 -80 12 -33 27 -73 33 -90 6 -16 13 -34 14 -40 2 -8 61 -177 86
-245 8 -22 41 -124 43 -132 1 -5 3 -10 4 -13 1 -3 3 -8 4 -12 1 -5 19 -61 40
-126 20 -65 39 -126 41 -135 2 -9 8 -29 14 -44 6 -16 9 -28 6 -28 -2 0 3 -16
11 -35 8 -20 12 -40 9 -45 -4 -6 1 -10 10 -10 8 0 20 10 25 23 6 12 18 34 28
49 65 99 242 435 242 458 0 6 4 10 10 10 5 0 9 3 8 8 -1 8 7 30 52 127 34 75
111 263 114 280 1 6 4 15 7 20 8 13 43 117 45 130 0 6 6 24 13 40 10 25 84
275 96 325 32 133 43 186 50 230 1 8 5 26 9 40 3 14 8 39 10 55 3 17 6 39 9
50 5 22 13 83 22 160 4 28 8 57 11 65 2 9 6 52 9 95 3 44 8 105 11 135 9 84 9
520 0 650 -10 147 -14 205 -16 205 -3 0 -7 32 -14 98 -6 67 -13 119 -22 167
-2 14 -7 43 -10 65 -6 43 -10 68 -20 113 -3 15 -7 36 -9 47 -2 11 -6 30 -8 41
-3 12 -8 37 -11 56 -3 19 -9 45 -15 59 l-9 24 -13 -30z"/>
<path d="M2919 7912 c-4 -26 -3 -38 4 -48 4 -7 7 -16 5 -20 -2 -12 21 -150 32
-189 5 -16 11 -43 14 -60 8 -42 21 -98 45 -185 11 -41 23 -86 26 -100 4 -14 9
-32 12 -40 3 -8 7 -21 9 -27 9 -44 128 -385 142 -407 3 -6 7 -16 8 -22 6 -41
258 -568 284 -594 3 -3 13 -21 22 -40 10 -19 31 -57 48 -85 17 -27 36 -61 43
-75 6 -14 17 -29 24 -33 7 -4 13 -13 13 -18 0 -11 126 -204 148 -227 6 -7 12
-17 12 -22 0 -5 6 -15 13 -22 7 -7 34 -43 60 -80 26 -36 54 -74 63 -82 8 -9
13 -16 9 -16 -4 0 1 -7 9 -16 9 -9 29 -32 44 -52 15 -21 32 -42 37 -48 6 -6
21 -26 35 -44 14 -18 38 -47 53 -64 16 -17 37 -44 48 -61 10 -16 19 -25 19
-20 0 6 8 -3 18 -18 63 -95 499 -534 732 -737 55 -48 188 -160 226 -190 11 -8
42 -34 71 -57 28 -24 54 -43 57 -43 4 0 17 -9 29 -21 12 -12 33 -28 47 -37 14
-9 29 -22 33 -29 4 -7 14 -13 22 -13 7 0 15 -4 17 -8 2 -4 24 -24 50 -44 33
-25 56 -35 75 -33 16 2 54 6 86 9 32 3 62 8 67 11 5 3 12 1 15 -5 4 -7 11 -7
18 -2 7 5 34 10 62 11 27 2 53 4 56 6 3 3 32 7 65 10 32 3 70 7 84 10 35 5
111 18 135 22 11 2 34 5 50 7 17 2 30 5 30 6 0 1 11 4 25 6 75 10 106 17 116
25 6 5 13 7 15 4 3 -2 22 0 43 6 21 6 46 12 55 14 9 2 45 11 81 20 36 9 70 18
75 19 26 6 102 28 115 33 8 3 20 7 25 8 25 6 262 87 289 99 59 26 101 41 109
38 4 -1 7 3 7 8 0 6 5 10 11 10 48 0 440 208 617 327 52 35 96 63 99 63 3 0
13 8 22 18 9 9 41 36 71 59 77 58 104 80 169 140 31 29 59 53 64 53 21 1 2 32
-33 51 -22 13 -40 26 -40 31 0 4 -5 8 -11 8 -13 0 -351 228 -361 244 -4 6 -8
7 -8 3 0 -4 -6 -3 -12 3 -7 6 -81 59 -163 118 -140 100 -195 140 -220 160 -6
5 -24 17 -40 28 -17 10 -32 21 -35 24 -3 3 -23 19 -45 36 -33 24 -276 209
-310 236 -5 5 -20 16 -32 26 -12 9 -36 28 -54 42 -17 14 -40 33 -50 43 -11 9
-22 17 -25 17 -3 0 -11 6 -18 13 -8 6 -28 23 -45 37 -18 14 -52 44 -77 67 -25
23 -47 42 -50 42 -3 -1 -31 21 -62 48 -72 62 -126 107 -188 160 -28 24 -62 53
-76 65 -13 13 -50 46 -82 73 -31 28 -74 66 -95 85 -21 19 -85 78 -142 130
-111 101 -701 688 -759 756 -26 29 -42 40 -60 38 -298 -26 -684 -22 -985 11
-27 2 -68 7 -90 9 -36 4 -70 9 -157 22 -16 2 -40 6 -55 8 -76 11 -109 17 -123
22 -8 3 -31 8 -50 10 -19 3 -53 10 -75 15 -22 6 -49 13 -60 14 -39 7 -75 15
-101 25 -15 6 -29 8 -32 6 -2 -3 -17 1 -33 10 -16 8 -29 12 -29 10 0 -3 -12
-1 -27 4 -16 5 -66 20 -113 35 -47 14 -92 29 -100 32 -8 3 -19 7 -25 8 -5 2
-40 14 -77 28 -36 14 -69 23 -72 20 -3 -4 -6 -2 -6 4 0 12 -29 26 -31 15z"/>
<path d="M8630 4692 c-36 -37 -94 -92 -129 -122 -35 -30 -75 -64 -87 -76 -13
-11 -35 -29 -50 -40 -15 -10 -41 -30 -58 -44 -37 -30 -42 -34 -177 -125 -57
-38 -105 -73 -107 -77 -2 -5 -10 -8 -18 -8 -8 0 -14 -5 -14 -11 0 -5 -4 -8 -9
-4 -5 3 -12 1 -16 -4 -6 -11 -203 -124 -207 -119 -2 2 -16 -7 -33 -18 -33 -23
-201 -104 -216 -104 -5 0 -9 -4 -9 -8 0 -5 -6 -9 -12 -9 -7 0 -42 -14 -78 -30
-36 -17 -83 -36 -105 -43 -22 -7 -46 -17 -52 -23 -7 -5 -13 -6 -13 -3 0 4 -10
0 -22 -8 -12 -9 -28 -16 -35 -16 -6 0 -24 -5 -40 -12 -15 -6 -32 -12 -38 -13
-5 -2 -44 -14 -85 -28 -133 -45 -243 -76 -252 -71 -4 3 -8 0 -8 -6 0 -7 -6
-10 -14 -7 -8 3 -17 3 -20 -1 -4 -3 -12 -7 -19 -8 -7 -2 -22 -5 -34 -8 -40
-10 -67 -16 -98 -21 -16 -3 -43 -10 -60 -15 -16 -5 -90 -21 -164 -34 -119 -23
-168 -36 -132 -36 6 0 71 -34 142 -75 72 -41 135 -75 140 -75 5 0 9 -5 9 -11
0 -5 4 -8 9 -5 5 3 14 -1 21 -9 7 -8 19 -15 26 -15 8 0 14 -5 14 -10 0 -6 3
-9 8 -8 4 2 41 -15 82 -37 41 -21 93 -48 115 -60 l40 -20 2 -861 c1 -482 -2
-876 -7 -895 -5 -19 -11 -50 -14 -69 -5 -37 -14 -76 -23 -100 -4 -8 -6 -18 -5
-22 2 -7 -33 -111 -47 -143 -60 -133 -153 -299 -181 -325 -3 -3 -21 -25 -41
-50 -20 -25 -52 -61 -71 -80 l-34 -35 -1772 0 -1772 0 0 -317 0 -318 4785 0
4785 0 0 318 0 317 -1772 0 -1771 0 -45 45 c-47 49 -110 128 -158 200 -47 71
-136 258 -150 315 -4 17 -11 35 -16 42 -5 7 -7 17 -3 23 3 5 1 10 -5 10 -6 0
-8 5 -5 10 4 6 1 17 -5 25 -7 8 -10 15 -7 15 3 0 0 19 -5 43 -14 62 -15 67
-23 132 -5 44 -10 1555 -6 1701 1 14 15 26 49 42 235 106 1069 607 1090 655 2
4 8 7 13 7 5 0 51 30 102 67 51 36 111 80 134 96 40 29 47 47 18 47 -7 0 -15
3 -17 8 -5 11 -128 74 -128 65 0 -4 -4 -3 -8 3 -4 6 -41 28 -82 49 -41 21 -77
40 -80 44 -3 3 -27 17 -55 31 -27 13 -88 46 -134 72 -46 26 -85 48 -87 48 -3
0 -237 136 -325 189 -19 11 -50 30 -69 41 -19 11 -53 31 -75 45 -33 20 -104
56 -109 55 0 0 -30 -31 -66 -68z"/>
</g>
</svg>
