<?xml version="1.0" encoding="UTF-8"?>
<!DOCTYPE svg PUBLIC "-//W3C//DTD SVG 1.1//EN" "http://www.w3.org/Graphics/SVG/1.1/DTD/svg11.dtd">
<!-- Creator: CorelDRAW 2017 -->
<svg id="logo" xmlns="http://www.w3.org/2000/svg" xml:space="preserve" width="67.7319mm" height="70.8253mm" version="1.1" style="shape-rendering:geometricPrecision; text-rendering:geometricPrecision; image-rendering:optimizeQuality; fill-rule:evenodd; clip-rule:evenodd"
viewBox="0 0 6773.18 7082.52"
 xmlns:xlink="http://www.w3.org/1999/xlink">
 <defs>
  <style type="text/css">
   <![CDATA[
    .fil2 {fill:#D7FF5E}
    .fil1 {fill:#9CBF2D;fill-rule:nonzero}
    .fil0 {fill:#D7FF5E;fill-rule:nonzero}
   ]]>
  </style>
 </defs>
 <g id="Слой_x0020_1">
  <metadata id="CorelCorpID_0Corel-Layer"/>
  <g id="_1289233568">
   <path class="fil0" d="M377.56 5450.02l-96.25 83.01 -28.03 16.56 206.04 246.11c35.36,39.91 64.78,64.76 88.53,74.43l0 10.23 -17.4 1.51 -36.33 1.65c-12.69,2.76 -23.2,4.15 -31.62,4.15 -20.44,0 -40.74,-5.11 -60.62,-15.47 -20.03,-10.22 -37.98,-24.16 -53.87,-41.7l-192.92 -233.12 -2.5 0.82 0 147.78c0,30.93 1.39,54.96 4.01,71.81 2.76,16.84 7.19,29.42 13.39,37.84 6.5,8.28 15.61,13.67 27.49,16.15l0 10.09 -196.25 0 0 -10.09c17.54,-3.86 29.28,-14.36 35.36,-31.62 6.08,-17.27 9.11,-48.61 9.11,-94.18l0 -306.59c0,-46.14 -3.03,-77.9 -9.11,-95.44 -6.08,-17.54 -17.82,-27.61 -35.36,-30.38l0 -10.08 196.25 0 0 10.08c-16.7,2.77 -28.3,13.12 -34.8,31.21 -6.77,17.82 -10.09,49.3 -10.09,94.61l0 99.57 10.09 2.07c131.34,-153.58 209.08,-231.33 233.12,-233.26 24.03,-2.08 70.43,-4.01 139.48,-5.93l0 20.3c-15.32,-1.12 -28.86,1.78 -40.46,8.84l-117.26 119.04zm-224.97 147.9l1.67 -1.93 -1.67 -2.06 0 3.99z"/>
   <path class="fil0" d="M734.22 5388l0 357.98c0,45.85 3.18,77.61 9.54,95.43 6.33,17.81 18.07,27.89 35.35,30.37l0 10.09 -196.67 0 0 -10.09c17.54,-3.86 29.42,-14.36 35.64,-31.62 6.22,-17.27 9.26,-48.75 9.26,-94.32l0 -306.73c0,-46.12 -3.04,-78.04 -9.26,-95.56 -6.22,-17.54 -18.1,-27.63 -35.64,-30.39l0 -9.67 195 0c31.77,0 58.01,0.83 78.86,2.62 20.72,1.8 38.54,4.98 53.18,9.53 14.64,4.57 28.3,11.19 41.01,19.89 46.41,28.32 69.61,74.16 69.61,137.55 0,36.47 -8.84,68.51 -26.52,96.12 -17.68,27.63 -41.02,48.88 -70.3,63.52 -29.28,14.78 -60.76,22.11 -94.47,22.11 -15.04,0 -28.44,-1.11 -40.04,-3.32l-23.9 -87c1.39,0 2.76,0 4.01,0 1.39,0 3.74,0 6.91,0 7.04,0 12.02,0 15.04,0 2.64,0 5.4,0 8.03,0 29.14,0 53.99,-7.19 74.43,-21.41 20.57,-14.64 30.8,-36.73 30.8,-66.43 0,-60.76 -41.99,-91.15 -125.81,-91.15 -13.95,0 -28.72,0.83 -44.06,2.48z"/>
   <path class="fil0" d="M1388.63 5745.98l-214.47 0 -31.08 70.42c-5.38,11.06 -8.14,20.99 -8.14,29.83 0,14.09 6.91,22.51 20.71,25.55l0.42 10.09c-22.65,-0.56 -52.9,-0.84 -90.74,-0.84 -39.9,0 -65.86,0.28 -78.02,0.84l0 -10.09c10.21,-4.27 18.09,-10.21 23.48,-17.66 5.38,-7.33 14.08,-23.9 26.24,-49.46l241.54 -533.49 14.22 0 242.79 540.26c14.5,32.18 30.11,52.2 46.96,60.35l0 10.09c-11.6,-0.56 -36.61,-0.84 -75.01,-0.84 -23.33,0 -41.13,0 -53.29,0 -12.16,0.56 -23.2,0.84 -33.15,0.84 -10.07,0 -16.85,0 -20.72,0l0 -10.09c14.92,-3.86 22.25,-13.53 22.25,-29.14 0,-6.2 -2.09,-16.01 -6.5,-29.54l-27.49 -67.12zm-31.48 -85.35l-74.43 -182.45 -75.7 182.45 150.13 0z"/>
   <path class="fil0" d="M2062.27 5303.49l0 124.7 -9.66 0c-20.58,-17.8 -42.55,-30.79 -66.16,-38.8 -23.62,-8.14 -50.82,-12.15 -81.48,-12.15 -38.4,0 -72.64,8.98 -102.9,26.93 -30.09,17.96 -53.57,43.23 -70.27,75.82 -16.73,32.6 -25.15,69.88 -25.15,111.71 0,31.78 4.83,61.06 14.36,87.56 9.54,26.52 23.2,49.44 40.6,68.51 17.54,19.19 38.4,34.11 62.57,44.61 24.17,10.49 50.55,15.74 79.14,15.74 61.73,0 113.1,-19.75 154.12,-59.1l11.32 3.3 -14.5 116.16c-50.97,18.91 -102.75,28.31 -154.95,28.31 -44.62,0 -85.63,-7.47 -123.06,-22.51 -37.56,-14.92 -69.74,-35.91 -96.81,-62.99 -26.92,-27.19 -47.78,-59.37 -62.55,-96.95 -14.78,-37.42 -22.11,-78.3 -22.11,-122.5 0,-43.91 7.05,-84.52 21.13,-121.66 13.95,-37.29 34.13,-69.6 60.09,-97.09 26.1,-27.48 57.03,-48.75 92.52,-63.67 35.64,-15.05 74.43,-22.5 116.56,-22.5 13.81,0 29.7,1.93 47.79,5.8 34.53,7.45 57.73,12.15 69.74,14.22 12.02,2.07 20.3,3.04 24.85,3.04l6.5 0c6.22,0 11.74,-2.21 16.57,-6.49l11.74 0z"/>
   <path class="fil0" d="M2548.14 5624.16l-246.92 0 0 121.82c0,29.14 1.37,52.34 4.01,69.6 2.76,17.27 7.31,30.24 13.53,39.22 6.35,8.83 15.05,14.5 26.1,16.98l0 10.09c-28.03,-1.65 -60.9,-2.48 -98.6,-2.48 -38.82,0 -71.97,0.83 -99.44,2.48l0 -10.09c11.32,-2.21 20.3,-7.31 26.93,-15.6 6.62,-8.14 11.33,-20.99 13.95,-38.25 2.76,-17.26 4.13,-41.16 4.13,-71.95l0 -306.59c0,-45.59 -3.3,-77.21 -9.93,-95.03 -6.64,-17.81 -18.37,-28.02 -35.36,-30.79l0 -10.08 45.29 0c18.93,1.66 37.44,2.48 55.52,2.48 18.37,0 36.33,-0.82 53.87,-2.48l43.64 0 0 10.08c-16.43,2.77 -27.77,13.39 -34.11,32.18 -6.35,18.64 -9.53,49.86 -9.53,93.5l0 94.59 246.92 0 0 -94.59c0,-45.72 -2.9,-77.49 -8.84,-94.89 -6.21,-17.81 -17.82,-28.02 -34.8,-30.79l0 -10.08 43.64 0c19.07,1.66 37.56,2.48 55.38,2.48 18.23,0 36.61,-0.82 54.82,-2.48l43.66 0 0 10.08c-16.72,2.77 -28.46,13.39 -35.22,32.04 -6.77,18.5 -10.09,49.86 -10.09,93.78l0 306.59c0,43.09 3.46,73.88 10.35,92.39 6.92,18.51 18.66,29.55 35.36,33.41l0 10.09 -197.62 0 0 -10.09c11.6,-2.48 20.58,-7.87 26.93,-16.15 6.36,-8.42 10.63,-21.14 13.11,-38.12 2.23,-17.26 3.32,-41.16 3.32,-71.53l0 -121.82z"/>
   <path class="fil0" d="M3065.45 5286.92c45.01,0 86.31,7.31 123.87,22.09 37.56,14.64 69.88,35.49 96.81,62.43 27.08,26.93 47.93,59.11 62.57,96.39 14.78,37.43 22.09,78.45 22.09,123.2 0,44.19 -7.19,85.07 -21.41,122.5 -14.92,37.56 -35.76,70.01 -62.83,97.49 -26.93,27.21 -59.11,48.34 -96.12,63.26 -37.15,15.04 -77.76,22.51 -121.8,22.51 -45.03,0 -86.74,-7.47 -124.86,-22.23 -38.26,-14.78 -71.12,-36.05 -98.88,-63.54 -27.61,-27.48 -49.03,-59.93 -63.94,-97.49 -15.06,-37.43 -22.51,-78.31 -22.51,-122.5 0,-45.31 7.31,-86.47 21.81,-123.47 14.64,-37.15 35.64,-69.33 62.99,-96.54 27.47,-27.21 59.93,-48.05 97.49,-62.69 37.7,-14.24 79.27,-21.41 124.72,-21.41zm1.37 90.32c-37.84,0 -71.67,9.11 -101.64,27.49 -29.97,18.35 -53.31,44.18 -70.02,77.19 -16.57,33.01 -24.85,70.57 -24.85,112.42 0,42.12 8.14,79.26 24.57,111.72 16.31,32.45 39.23,57.46 68.79,75.26 29.68,17.82 63.24,26.8 100.81,26.8 27.75,0 53.45,-5.25 76.93,-15.74 23.74,-10.36 44.31,-25.14 61.71,-44.33 17.54,-19.35 30.95,-42.27 40.62,-68.93 9.52,-26.64 14.36,-55.64 14.36,-87.28 0,-31.62 -4.7,-60.48 -13.96,-86.58 -9.38,-26.24 -22.64,-48.89 -39.77,-68.09 -17.12,-19.19 -37.56,-33.97 -61.17,-44.32 -23.62,-10.37 -49.03,-15.61 -76.38,-15.61z"/>
   <path class="fil0" d="M3747.04 5388.84c-20.02,-2.21 -35.49,-3.18 -46.54,-3.18 -36.74,0 -67.67,6.91 -92.94,21 -25.28,13.94 -37.84,37.42 -37.84,70.57 0,31.21 11.6,54.55 34.66,70.16 23.07,15.73 50,23.48 81.07,23.48 9.67,0 19.19,-0.84 28.3,-2.51l4.02 9.82 -148.05 244.58c-15.61,25.82 -30.8,43.22 -45.3,52.2 -14.64,8.98 -34.25,13.54 -59.12,13.54 -13.25,0 -39.21,-2.22 -78.02,-6.63l0 -10.09c9.67,-2.76 17.95,-7.45 24.87,-14.22 6.89,-6.76 16.01,-18.78 27.33,-36.32l130.24 -201.91c-75.14,-25.82 -112.7,-76.09 -112.7,-150.8 0,-30.53 7.05,-57.74 20.99,-81.9 14.09,-24.17 34.11,-42.68 60.35,-55.65 18.1,-10.23 37.98,-17.41 59.81,-21.42 21.95,-3.99 51.37,-6.07 88.25,-6.07l213.22 0 0 10.08c-17.54,2.77 -29.4,12.84 -35.62,30.38 -6.22,17.54 -9.26,49.3 -9.26,95.44l0 306.59c0,45.57 3.04,76.91 9.26,94.18 6.22,17.26 18.08,27.76 35.62,31.62l0 10.09 -196.79 0 0 -10.09c11.88,-2.48 20.85,-7.87 27.07,-16.15 6.2,-8.28 10.49,-21 12.97,-37.98 2.76,-17.26 4.15,-41.02 4.15,-71.41l0 -357.4z"/>
   <path class="fil0" d="M4126.71 5388l0 357.98c0,45.85 3.18,77.61 9.53,95.43 6.34,17.81 18.08,27.89 35.36,30.37l0 10.09 -196.67 0 0 -10.09c17.54,-3.86 29.42,-14.36 35.64,-31.62 6.22,-17.27 9.25,-48.75 9.25,-94.32l0 -306.73c0,-46.12 -3.03,-78.04 -9.25,-95.56 -6.22,-17.54 -18.1,-27.63 -35.64,-30.39l0 -9.67 195 0c31.77,0 58.01,0.83 78.86,2.62 20.72,1.8 38.54,4.98 53.18,9.53 14.64,4.57 28.3,11.19 41.01,19.89 46.41,28.32 69.61,74.16 69.61,137.55 0,36.47 -8.84,68.51 -26.52,96.12 -17.68,27.63 -41.02,48.88 -70.3,63.52 -29.28,14.78 -60.76,22.11 -94.47,22.11 -15.04,0 -28.44,-1.11 -40.04,-3.32l-23.9 -87c1.39,0 2.76,0 4.01,0 1.39,0 3.74,0 6.91,0 7.04,0 12.02,0 15.04,0 2.64,0 5.4,0 8.03,0 29.14,0 53.99,-7.19 74.43,-21.41 20.57,-14.64 30.8,-36.73 30.8,-66.43 0,-60.76 -41.99,-91.15 -125.81,-91.15 -13.95,0 -28.73,0.83 -44.06,2.48z"/>
   <path class="fil0" d="M4927.05 5303.49l0 124.7 -9.66 0c-20.58,-17.8 -42.55,-30.79 -66.16,-38.8 -23.62,-8.14 -50.82,-12.15 -81.48,-12.15 -38.4,0 -72.64,8.98 -102.9,26.93 -30.09,17.96 -53.57,43.23 -70.27,75.82 -16.73,32.6 -25.15,69.88 -25.15,111.71 0,31.78 4.83,61.06 14.36,87.56 9.54,26.52 23.2,49.44 40.6,68.51 17.54,19.19 38.4,34.11 62.57,44.61 24.17,10.49 50.55,15.74 79.14,15.74 61.73,0 113.1,-19.75 154.12,-59.1l11.32 3.3 -14.5 116.16c-50.97,18.91 -102.75,28.31 -154.95,28.31 -44.62,0 -85.64,-7.47 -123.06,-22.51 -37.56,-14.92 -69.74,-35.91 -96.81,-62.99 -26.92,-27.19 -47.78,-59.37 -62.55,-96.95 -14.78,-37.42 -22.11,-78.3 -22.11,-122.5 0,-43.91 7.05,-84.52 21.13,-121.66 13.95,-37.29 34.13,-69.6 60.09,-97.09 26.1,-27.48 57.03,-48.75 92.52,-63.67 35.64,-15.05 74.43,-22.5 116.56,-22.5 13.81,0 29.7,1.93 47.79,5.8 34.53,7.45 57.73,12.15 69.74,14.22 12.02,2.07 20.3,3.04 24.85,3.04l6.5 0c6.22,0 11.74,-2.21 16.57,-6.49l11.74 0z"/>
   <path class="fil0" d="M5379.8 5450.02l-96.25 83.01 -28.03 16.56 206.04 246.11c35.36,39.91 64.78,64.76 88.53,74.43l0 10.23 -17.4 1.51 -36.33 1.65c-12.69,2.76 -23.2,4.15 -31.62,4.15 -20.44,0 -40.74,-5.11 -60.62,-15.47 -20.03,-10.22 -37.98,-24.16 -53.87,-41.7l-192.92 -233.12 -2.5 0.82 0 147.78c0,30.93 1.39,54.96 4.01,71.81 2.76,16.84 7.19,29.42 13.39,37.84 6.5,8.28 15.61,13.67 27.49,16.15l0 10.09 -196.25 0 0 -10.09c17.54,-3.86 29.28,-14.36 35.36,-31.62 6.08,-17.27 9.12,-48.61 9.12,-94.18l0 -306.59c0,-46.14 -3.04,-77.9 -9.12,-95.44 -6.08,-17.54 -17.82,-27.61 -35.36,-30.38l0 -10.08 196.25 0 0 10.08c-16.7,2.77 -28.3,13.12 -34.8,31.21 -6.77,17.82 -10.09,49.3 -10.09,94.61l0 99.57 10.09 2.07c131.34,-153.58 209.08,-231.33 233.12,-233.26 24.03,-2.08 70.43,-4.01 139.48,-5.93l0 20.3c-15.32,-1.12 -28.86,1.78 -40.46,8.84l-117.26 119.04zm-224.97 147.9l1.67 -1.93 -1.67 -2.06 0 3.99z"/>
   <path class="fil0" d="M5629.45 5910.04l0 -471.48c0,-30.93 -1.38,-54.97 -4.01,-71.95 -2.76,-17 -7.33,-29.56 -13.8,-37.7 -6.22,-8.3 -15.06,-13.69 -26.66,-16.17l0 -10.07 196.23 0 0 10.07c-12.97,1.65 -22.64,6.36 -29.14,14.22 -6.47,7.75 -10.9,20.17 -13.11,37.15 -2.34,17 -3.45,41.85 -3.45,74.45l0 231.05 369.44 -395.13 10.9 0 0 471.5c0,30.93 1.37,54.96 4,71.95 2.76,16.98 7.32,29.55 13.82,37.7 6.22,8.28 15.05,13.67 26.65,16.15l0 10.09 -196.25 0 0 -10.09c12.98,-1.65 22.65,-6.34 29.14,-14.22 6.5,-7.73 10.77,-20.17 13.12,-37.15 2.36,-16.98 3.45,-41.85 3.45,-74.43l0 -231.05 -369.42 395.11 -10.91 0z"/>
   <path class="fil0" d="M6479.26 5272.83c-15.59,0 -30.37,-2.08 -44.05,-6.21 -13.81,-4.29 -25.83,-9.81 -36.04,-16.85 -10.23,-6.91 -18.51,-15.19 -24.73,-24.73 -6.21,-9.67 -9.39,-19.88 -9.65,-30.92l47.36 0c0.69,5.94 3.03,11.32 6.77,16.42 3.87,5.11 8.7,9.54 14.64,13.13 5.94,3.58 12.85,6.48 20.58,8.7 7.86,2.07 16.28,3.18 25.12,3.18 8.84,0 17.27,-1.11 25.15,-3.18 7.73,-2.22 14.64,-5.12 20.58,-8.7 5.94,-3.59 10.76,-8.02 14.5,-13.13 3.85,-5.1 6.08,-10.48 6.89,-16.42l47.79 0c-0.55,11.04 -3.87,21.25 -9.95,30.92 -6.08,9.54 -14.22,17.82 -24.71,24.73 -10.37,7.04 -22.38,12.56 -36.19,16.85 -13.67,4.13 -28.44,6.21 -44.06,6.21zm-251.61 637.21l0 -471.48c0,-30.93 -1.39,-54.97 -4.01,-71.95 -2.76,-17 -7.33,-29.56 -13.81,-37.7 -6.21,-8.3 -15.05,-13.69 -26.65,-16.17l0 -10.07 196.23 0 0 10.07c-12.97,1.65 -22.64,6.36 -29.14,14.22 -6.48,7.75 -10.9,20.17 -13.11,37.15 -2.34,17 -3.46,41.85 -3.46,74.59l0 231.05 369.44 -395.27 10.91 0 0 471.5c0,30.93 1.37,54.96 3.99,71.95 2.76,16.98 7.33,29.55 13.83,37.7 6.21,8.28 15.05,13.67 26.65,16.15l0 10.09 -196.25 0 0 -10.09c12.97,-1.65 22.65,-6.34 29.14,-14.22 6.5,-7.73 10.77,-20.17 13.11,-37.15 2.36,-16.98 3.46,-41.85 3.46,-74.43l0 -230.77 -369.42 394.83 -10.91 0z"/>
   <path class="fil0" d="M10.28 6666.43l-10.28 -115.23 10.28 -1.62c28.25,36.38 48.28,54.63 60.17,54.63 11.91,0 23.81,-5.95 35.57,-17.85 11.77,-11.76 19.48,-26.92 23.13,-45.17 3.64,-18.13 5.54,-39.23 5.54,-62.88l0 -235.46c0,-46.8 -3.11,-78.72 -9.33,-95.63 -6.22,-17.04 -18.39,-26.36 -36.64,-27.86l0 -10 472.94 0 0 9.86c-16.36,2.71 -27.86,13.13 -34.63,31.38 -6.75,18.13 -10.14,48.84 -10.14,91.83l0 300.26c0,42.18 3.39,72.34 10.14,90.47 6.77,18.11 18.27,28.93 34.63,32.72l0 9.88 -193.53 0 0 -9.88c11.36,-2.43 20.15,-7.69 26.37,-15.82 6.21,-8.25 10.41,-20.54 12.85,-37.18 2.17,-16.92 3.24,-40.31 3.24,-70.07l0 -348.25 -167.16 0c-1.08,13.52 -1.61,29.62 -1.61,48.29l0.79 239.37c0.54,19.34 0.82,33.69 0.82,43.15 0,54.24 -14.88,95.34 -44.49,123.47 -29.63,28.14 -63.44,42.2 -101.29,42.2 -37.88,0 -67.09,-8.25 -87.37,-24.61z"/>
   <path class="fil0" d="M746.55 6333.33l95.88 0c28.55,0 49.51,-3.11 63.03,-9.35 13.39,-6.21 23.12,-17.17 28.94,-33.13l8.66 0c-1.09,15.42 -1.63,39.09 -1.63,71.01 1.08,43.27 1.63,75.47 1.63,96.69l-9.06 -0.4c-4.74,-15.42 -13.81,-26.1 -27.2,-32.18 -13.39,-6.09 -34.21,-9.06 -62.74,-9.06l-97.51 0 0 129.02c0,13.93 1.62,24.07 4.72,30.43 2.99,6.08 8.53,10.28 16.92,12.43 8.25,2.31 21.64,3.39 40.17,3.39l56.66 0c31.38,0 54.91,-3.39 70.33,-10.28 15.42,-6.9 26.36,-18.93 32.72,-36.1l9.06 1.61 -13.79 128.35 -365.42 0 0 -9.88c17.17,-3.79 28.81,-14.05 34.89,-30.96 6.07,-16.9 9.06,-47.6 9.06,-92.23l0 -300.26c0,-45.7 -2.99,-76.94 -9.06,-93.86 -6.08,-16.9 -17.72,-26.64 -34.89,-29.35l0 -9.86 368.53 0 0.4 123.21 -13.51 0c-5.82,-15.82 -15.02,-26.38 -27.73,-31.66 -12.71,-5.26 -35.03,-7.97 -66.95,-7.97l-112.11 0 0 140.39z"/>
   <path class="fil0" d="M1472.14 6109.36l0 122.12 -9.46 0c-20.16,-17.44 -41.66,-30.15 -64.79,-38 -23.12,-7.99 -49.77,-11.9 -79.8,-11.9 -37.59,0 -71.13,8.79 -100.75,26.36 -29.47,17.6 -52.47,42.34 -68.84,74.26 -16.36,31.92 -24.61,68.44 -24.61,109.4 0,31.12 4.74,59.8 14.07,85.76 9.32,25.96 22.71,48.41 39.76,67.08 17.18,18.79 37.6,33.39 61.27,43.68 23.65,10.28 49.49,15.42 77.49,15.42 60.45,0 110.76,-19.33 150.92,-57.88l11.1 3.24 -14.21 113.75c-49.89,18.53 -100.61,27.71 -151.74,27.71 -43.67,0 -83.84,-7.29 -120.5,-22.03 -36.78,-14.61 -68.3,-35.17 -94.8,-61.69 -26.38,-26.63 -46.8,-58.15 -61.26,-94.93 -14.49,-36.65 -21.64,-76.69 -21.64,-119.97 0,-42.99 6.89,-82.76 20.68,-119.14 13.67,-36.52 33.41,-68.16 58.84,-95.08 25.56,-26.92 55.84,-47.74 90.61,-62.34 34.89,-14.75 72.9,-22.06 114.14,-22.06 13.53,0 29.08,1.9 46.81,5.68 33.81,7.31 56.52,11.91 68.29,13.95 11.76,2.01 19.87,2.97 24.33,2.97l6.36 0c6.1,0 11.5,-2.18 16.24,-6.36l11.49 0z"/>
   <path class="fil0" d="M1804.75 6093.12c44.09,0 84.52,7.17 121.32,21.64 36.78,14.34 68.42,34.77 94.8,61.15 26.51,26.36 46.92,57.88 61.26,94.4 14.47,36.64 21.64,76.8 21.64,120.62 0,43.29 -7.03,83.32 -20.96,119.96 -14.61,36.8 -35.03,68.58 -61.54,95.49 -26.37,26.64 -57.88,47.34 -94.13,61.95 -36.38,14.74 -76.15,22.03 -119.28,22.03 -44.09,0 -84.94,-7.29 -122.26,-21.77 -37.47,-14.47 -69.65,-35.29 -96.85,-62.21 -27.03,-26.91 -47.99,-58.69 -62.6,-95.49 -14.74,-36.64 -22.05,-76.67 -22.05,-119.96 0,-44.35 7.17,-84.66 21.37,-120.9 14.33,-36.38 34.89,-67.9 61.67,-94.54 26.92,-26.64 58.7,-47.06 95.48,-61.41 36.92,-13.92 77.64,-20.96 122.13,-20.96zm1.35 88.46c-37.05,0 -70.19,8.93 -99.54,26.9 -29.34,17.99 -52.2,43.3 -68.57,75.61 -16.22,32.32 -24.35,69.12 -24.35,110.08 0,41.27 7.99,77.65 24.09,109.43 15.95,31.78 38.39,56.26 67.34,73.7 29.07,17.45 61.94,26.24 98.72,26.24 27.2,0 52.34,-5.14 75.34,-15.42 23.27,-10.15 43.41,-24.61 60.45,-43.42 17.19,-18.93 30.3,-41.38 39.76,-67.48 9.35,-26.1 14.07,-54.5 14.07,-85.48 0,-30.96 -4.6,-59.23 -13.65,-84.79 -9.2,-25.7 -22.19,-47.88 -38.95,-66.67 -16.78,-18.81 -36.8,-33.27 -59.93,-43.41 -23.11,-10.15 -48,-15.29 -74.78,-15.29z"/>
   <path class="fil0" d="M2512.4 6194.56l-241.82 0 0 348.25c0,28.55 1.36,51.12 3.93,68.04 2.71,16.89 7.17,29.74 13.25,38.41 6.22,8.65 14.74,14.19 25.56,16.62l0 9.88c-27.45,-1.61 -59.63,-2.43 -96.57,-2.43 -38,0 -70.45,0.82 -97.37,2.43l0 -9.88c11.1,-2.15 19.89,-7.16 26.38,-15.28 6.49,-7.97 11.08,-20.55 13.65,-37.46 2.71,-16.9 4.06,-40.31 4.06,-70.45l0 -300.26c0,-44.63 -3.24,-75.59 -9.74,-93.04 -6.49,-17.45 -17.99,-27.46 -34.63,-30.17l0 -9.86 44.37 0 456.86 0 42.74 0 0 9.86c-16.38,2.71 -27.87,13.13 -34.49,31.38 -6.63,18.13 -9.88,48.84 -9.88,91.83l0 300.26c0,42.18 3.38,72.34 10.14,90.47 6.77,18.11 18.27,28.93 34.63,32.72l0 9.88 -193.53 0 0 -9.88c11.36,-2.43 20.15,-7.69 26.36,-15.82 6.22,-8.25 10.42,-20.54 12.86,-37.18 2.17,-16.92 3.24,-40.31 3.24,-70.07l0 -348.25z"/>
   <path class="fil0" d="M2756.2 6703.35l0 -461.72c0,-30.3 -1.35,-53.83 -3.92,-70.47 -2.71,-16.63 -7.18,-28.94 -13.53,-36.92 -6.08,-8.11 -14.75,-13.38 -26.1,-15.82l0 -9.88 192.18 0 0 9.88c-12.71,1.62 -22.17,6.22 -28.53,13.93 -6.35,7.57 -10.68,19.75 -12.85,36.38 -2.29,16.64 -3.39,40.99 -3.39,72.9l0 226.26 361.78 -386.94 10.68 0 0 461.74c0,30.28 1.36,53.81 3.93,70.45 2.71,16.64 7.17,28.95 13.53,36.92 6.08,8.13 14.74,13.39 26.1,15.82l0 9.88 -192.19 0 0 -9.88c12.71,-1.62 22.19,-6.22 28.55,-13.93 6.36,-7.57 10.54,-19.74 12.83,-36.38 2.31,-16.64 3.39,-40.97 3.39,-72.88l0 -226.28 -361.78 386.94 -10.68 0z"/>
   <path class="fil0" d="M3550.88 6542.95c0,30.3 1.34,53.69 3.91,70.33 2.71,16.63 7.31,28.95 13.66,36.92 6.5,8.11 16.1,13.25 28.81,15.68l0 9.88 -197.18 0 0 -9.88c11.89,-2.43 20.82,-7.57 26.77,-15.4 5.96,-7.99 9.89,-20.03 12.04,-36.39 2.17,-16.37 3.25,-40.04 3.25,-71.14l0 -350.01 -40.85 0c-29.21,0 -51.12,2.83 -65.59,8.51 -14.34,5.7 -24.34,15.56 -29.88,29.49l-11.5 0 11.5 -121.58 384.89 0 11.1 121.58 -11.1 0c-6.62,-14.19 -16.9,-24.21 -30.82,-29.75 -14.07,-5.54 -35.45,-8.25 -64.26,-8.25l-44.75 0 0 350.01z"/>
   <path class="fil0" d="M3999.94 6093.12c44.09,0 84.52,7.17 121.32,21.64 36.78,14.34 68.42,34.77 94.8,61.15 26.52,26.36 46.92,57.88 61.26,94.4 14.47,36.64 21.64,76.8 21.64,120.62 0,43.29 -7.03,83.32 -20.96,119.96 -14.6,36.8 -35.03,68.58 -61.54,95.49 -26.36,26.64 -57.88,47.34 -94.13,61.95 -36.38,14.74 -76.14,22.03 -119.28,22.03 -44.09,0 -84.94,-7.29 -122.26,-21.77 -37.47,-14.47 -69.65,-35.29 -96.84,-62.21 -27.04,-26.91 -48,-58.69 -62.61,-95.49 -14.74,-36.64 -22.05,-76.67 -22.05,-119.96 0,-44.35 7.17,-84.66 21.38,-120.9 14.32,-36.38 34.88,-67.9 61.66,-94.54 26.92,-26.64 58.7,-47.06 95.48,-61.41 36.92,-13.92 77.64,-20.96 122.13,-20.96zm1.36 88.46c-37.06,0 -70.2,8.93 -99.54,26.9 -29.35,17.99 -52.21,43.3 -68.58,75.61 -16.22,32.32 -24.35,69.12 -24.35,110.08 0,41.27 7.99,77.65 24.09,109.43 15.96,31.78 38.39,56.26 67.34,73.7 29.07,17.45 61.95,26.24 98.73,26.24 27.19,0 52.34,-5.14 75.33,-15.42 23.27,-10.15 43.41,-24.61 60.45,-43.42 17.19,-18.93 30.3,-41.38 39.77,-67.48 9.34,-26.1 14.06,-54.5 14.06,-85.48 0,-30.96 -4.6,-59.23 -13.65,-84.79 -9.2,-25.7 -22.19,-47.88 -38.95,-66.67 -16.77,-18.81 -36.8,-33.27 -59.93,-43.41 -23.11,-10.15 -48,-15.29 -74.77,-15.29z"/>
   <path class="fil0" d="M4858.35 6077.7l12.29 0 132.42 513.8c6.35,23.53 12.31,40.31 17.99,50.31 5.67,10.02 14.46,18.13 26.36,24.21l0 9.88c-6.08,-0.28 -16.9,-0.54 -32.46,-0.82 -15.68,0 -35.96,0 -61.13,0 -40.84,0 -67.9,0.28 -80.73,0.82l0 -9.88c16.9,-5 25.28,-17.18 25.28,-36.5l-60.19 -299.58 -165.66 362.86 -12.99 0 -168.1 -362.86 -57.35 275.35c-3.52,15.7 -5.14,26.12 -5.14,31.38 0,15.56 7.3,25.3 22.18,29.35l0 9.88c-23.27,-1.63 -49.77,-2.43 -79.26,-2.43 -30.7,0 -57.06,0.8 -79.25,2.43l0 -9.88c8.66,-3.25 15.3,-6.9 19.76,-11.08 4.46,-4.46 8.65,-11.91 12.57,-22.06 3.79,-10.14 8.65,-26.24 14.74,-48.13l126.04 -507.05 11.1 0 189.06 411.55 192.47 -411.55z"/>
   <path class="fil0" d="M5467.68 6423.4l-241.82 0 0 119.29c0,28.53 1.35,51.24 3.92,68.16 2.71,16.89 7.17,29.61 13.25,38.41 6.22,8.65 14.75,14.19 25.56,16.62l0 9.88c-27.45,-1.61 -59.63,-2.43 -96.57,-2.43 -37.99,0 -70.45,0.82 -97.37,2.43l0 -9.88c11.1,-2.15 19.89,-7.16 26.38,-15.28 6.5,-7.97 11.08,-20.55 13.65,-37.46 2.71,-16.9 4.07,-40.31 4.07,-70.45l0 -300.26c0,-44.63 -3.25,-75.59 -9.75,-93.04 -6.49,-17.45 -17.99,-27.46 -34.62,-30.17l0 -9.86 44.37 0c18.52,1.61 36.64,2.43 54.37,2.43 17.99,0 35.56,-0.82 52.74,-2.43l42.73 0 0 9.86c-16.09,2.71 -27.17,13.13 -33.41,31.52 -6.21,18.25 -9.32,48.82 -9.32,91.55l0 92.65 241.82 0 0 -92.65c0,-44.75 -2.85,-75.87 -8.65,-92.9 -6.1,-17.45 -17.46,-27.46 -34.09,-30.17l0 -9.86 42.74 0c18.66,1.61 36.78,2.43 54.23,2.43 17.85,0 35.84,-0.82 53.69,-2.43l42.74 0 0 9.86c-16.38,2.71 -27.87,13.13 -34.49,31.38 -6.63,18.13 -9.88,48.84 -9.88,91.83l0 300.26c0,42.18 3.39,72.34 10.14,90.47 6.78,18.11 18.27,28.93 34.63,32.72l0 9.88 -193.52 0 0 -9.88c11.35,-2.43 20.14,-7.69 26.36,-15.82 6.21,-8.25 10.42,-20.68 12.85,-37.32 2.17,-16.91 3.25,-40.31 3.25,-70.05l0 -119.29z"/>
   <path class="fil0" d="M5696.16 6703.35l0 -461.72c0,-30.3 -1.36,-53.83 -3.93,-70.47 -2.71,-16.63 -7.17,-28.94 -13.53,-36.92 -6.07,-8.11 -14.74,-13.38 -26.1,-15.82l0 -9.88 192.19 0 0 9.88c-12.71,1.62 -22.18,6.22 -28.53,13.93 -6.36,7.57 -10.68,19.75 -12.85,36.38 -2.3,16.64 -3.39,40.99 -3.39,72.9l0 226.26 361.78 -386.94 10.68 0 0 461.74c0,30.28 1.36,53.81 3.93,70.45 2.7,16.64 7.17,28.95 13.52,36.92 6.08,8.13 14.75,13.39 26.1,15.82l0 9.88 -192.18 0 0 -9.88c12.71,-1.62 22.19,-6.22 28.55,-13.93 6.35,-7.57 10.54,-19.74 12.83,-36.38 2.31,-16.64 3.39,-40.97 3.39,-72.88l0 -226.28 -361.78 386.94 -10.68 0z"/>
   <path class="fil0" d="M6606.42 6252.85l-94.27 81.29 -27.45 16.22 201.79 241c34.63,39.09 63.42,63.44 86.69,72.9l0 10.01 -17.04 1.49 -35.58 1.62c-12.43,2.7 -22.71,4.06 -30.96,4.06 -20.03,0 -39.91,-5 -59.38,-15.14 -19.6,-10.01 -37.19,-23.67 -52.74,-40.85l-188.93 -228.29 -2.44 0.8 0 144.73c0,30.28 1.36,53.81 3.93,70.31 2.69,16.52 7.03,28.81 13.11,37.06 6.36,8.13 15.28,13.39 26.92,15.82l0 9.88 -192.19 0 0 -9.88c17.17,-3.79 28.67,-14.05 34.63,-30.96 5.94,-16.9 8.92,-47.6 8.92,-92.23l0 -300.26c0,-45.17 -2.98,-76.27 -8.92,-93.44 -5.96,-17.18 -17.46,-27.06 -34.63,-29.77l0 -9.86 192.19 0 0 9.86c-16.38,2.71 -27.74,12.85 -34.09,30.57 -6.62,17.45 -9.87,48.29 -9.87,92.64l0 97.51 9.87 2.03c128.63,-150.38 204.76,-226.53 228.29,-228.43 23.53,-2.03 68.97,-3.92 136.6,-5.81l0 19.88c-15.01,-1.08 -28.26,1.75 -39.63,8.67l-114.82 116.57zm-220.31 144.85l1.62 -1.89 -1.62 -2.03 0 3.92z"/>
   <g>
    <path class="fil1" d="M76.29 6959.55c0,22.63 3.83,39.99 11.47,51.98 7.66,11.98 18.88,18 33.69,18 14.61,0 25.39,-5.47 32.39,-16.37 7,-10.91 10.47,-28.05 10.47,-51.4 0,-21.95 -3.7,-38.8 -11.04,-50.61 -7.4,-11.77 -18.81,-17.68 -34.25,-17.68 -14.95,0 -25.82,5.47 -32.59,16.42 -6.78,10.94 -10.14,27.49 -10.14,49.66zm123.66 -1.46c0,24.49 -7.21,44.2 -21.66,59.08 -14.45,14.9 -34.56,22.35 -60.31,22.35 -24.66,0 -43.73,-6.88 -57.15,-20.65 -13.44,-13.75 -20.18,-32.37 -20.18,-55.88 0,-24.49 7.24,-43.87 21.76,-58.11 14.54,-14.27 34.59,-21.41 60.24,-21.41 24.63,0 43.69,6.67 57.12,20.01 13.44,13.37 20.18,31.55 20.18,54.61zm109.12 -8.11c20.04,0 34.35,3.23 42.86,9.71 8.55,6.48 12.82,16.15 12.82,28.98 0,15.29 -5.61,27.06 -16.79,35.27 -11.21,8.23 -27.48,12.33 -48.84,12.33 -4.1,0 -8.73,-0.12 -13.94,-0.36 -5.19,-0.26 -10.84,-0.4 -16.88,-0.4 -9.64,0 -19.28,0.1 -28.98,0.33l-0.44 -5.23 14.14 -3.91c1.84,-0.57 2.78,-1.66 2.84,-3.3 0.07,-2.83 0.16,-6 0.2,-9.56 0.03,-3.55 0.03,-7.42 0.03,-11.66l0 -84.5c0,-3.56 0,-6.79 -0.03,-9.67 -0.04,-2.9 -0.13,-5.59 -0.2,-7.97 -0.06,-1.86 -0.9,-3.01 -2.53,-3.53l-14.22 -4.11 -0.33 -5.44c9.91,0.28 19.34,0.44 28.29,0.44l30.82 0c17.35,0 35.23,-0.16 53.71,-0.44l0.73 0.87 -7.21 38.64 -5.4 0.87 -7.97 -29.07 -43.93 0 0 52.55c7.34,-0.54 14.41,-0.84 21.25,-0.84zm-21.25 75.46c4.63,0.83 9.1,1.26 13.33,1.26 10.29,0 17.67,-2.83 22.23,-8.47 4.54,-5.66 6.81,-14.1 6.81,-25.32 0,-11.17 -2.14,-19.38 -6.41,-24.71 -4.24,-5.31 -11.95,-8.01 -23.06,-8.01 -3.59,0 -7.9,0.3 -12.9,0.87l0 64.38zm315.08 -21.19c0,7.85 0.09,13.39 0.23,16.65 0.14,2 0.9,2.97 2.31,2.97l20.4 0 0.61 0.77 -6.44 56.71 -7.54 1.17 -10 -46.91 -173.1 0c-8.22,0 -17.09,0.07 -26.66,0.23l-0.54 -5.23 14.55 -4.13c1.64,-0.51 2.47,-1.7 2.54,-3.61 0.16,-4.67 0.22,-10.54 0.22,-17.65l0 -84.57c0,-8.3 -0.06,-15.3 -0.22,-21.05 -0.07,-1.63 -1.01,-2.72 -2.85,-3.29l-13.91 -3.91 -0.33 -5.44c10.07,0.28 21.01,0.44 32.89,0.44 11.58,0 21.4,-0.16 29.4,-0.44l0.52 5.44 -11.77 3.61c-1.86,0.54 -2.8,1.77 -2.87,3.7 -0.14,5.64 -0.22,12.64 -0.22,20.89l0 103.27 45.86 0 0 -103.27c0,-8.25 -0.07,-15.28 -0.21,-21 -0.08,-1.78 -1.02,-2.96 -2.86,-3.59l-11.57 -3.61 -0.31 -5.44c8.47,0.28 18.68,0.44 30.6,0.44 11.63,0 21.41,-0.16 29.31,-0.44l0.54 5.44 -11.77 3.61c-1.78,0.54 -2.68,1.77 -2.77,3.7 -0.2,5.64 -0.31,12.64 -0.31,20.89l0 103.27 45.64 0 0 -103.27c0,-8.25 -0.07,-15.25 -0.23,-20.89 -0.07,-1.93 -0.97,-3.16 -2.74,-3.7l-11.67 -3.61 -0.33 -5.44c8.27,0.28 18.23,0.44 29.82,0.44 11.87,0 22.68,-0.16 32.45,-0.44l0.54 5.44 -14.12 3.91c-1.86,0.57 -2.79,1.66 -2.86,3.29 -0.14,5.72 -0.23,12.75 -0.23,21l0 83.65zm85.3 -116.85l26.76 0c17.21,0 35.03,-0.16 53.51,-0.44l0.73 0.87 -6.6 35.31 -5.73 0.83 -6.78 -25.7 -41.07 0 0 56.28 5.73 0c6.15,0 12.79,-0.07 19.85,-0.23 1.84,-0.07 3.04,-1 3.62,-2.84l3.8 -14.54 7 -0.33c-0.19,10.26 -0.3,17.94 -0.3,23.05 0,4.96 0.11,12.53 0.3,22.71l-7 0.54 -3.91 -14.95c-0.57,-1.93 -1.67,-2.9 -3.3,-2.97 -7.21,-0.16 -13.94,-0.23 -20.18,-0.23l-5.61 0 0 36.4c0,7.8 0.07,15.51 0.23,23.15l42.44 0 13.37 -27.89 6.48 -0.97 -2.57 39.73 -0.73 0.76c-17.63,-0.22 -34.77,-0.33 -51.47,-0.33l-28.06 0c-9.1,0 -18.48,0.07 -28.19,0.23l-0.54 -5.23 14.24 -3.91c1.77,-0.5 2.71,-1.59 2.85,-3.3 0.07,-2.83 0.16,-6 0.19,-9.53 0.04,-3.47 0.04,-7.34 0.04,-11.62l0 -84.57c0,-3.56 0,-6.79 -0.04,-9.67 -0.03,-2.9 -0.12,-5.59 -0.19,-7.97 -0.07,-1.86 -0.9,-3.01 -2.53,-3.53l-14.23 -4.11 -0.33 -5.44c9.92,0.28 19.31,0.44 28.22,0.44zm235.36 39.76l-5.84 0.94 -8.07 -30.46c-5.57,-1.77 -11.62,-2.64 -18.15,-2.64 -15.61,0 -27.71,5.87 -36.26,17.61 -8.58,11.69 -12.85,27.06 -12.85,46.04 0,20.28 5.04,36.43 15.15,48.45 10.05,12.07 24.05,18.08 41.93,18.08 10.01,0 20.51,-2.04 31.52,-6.08l1.37 6.04c-14.13,9.6 -30.14,14.38 -47.96,14.38 -23.11,0 -41.8,-6.98 -56.07,-20.93 -14.23,-13.94 -21.36,-32.31 -21.36,-55.1 0,-24.29 7.81,-43.53 23.42,-57.7 15.65,-14.16 36.05,-21.22 61.22,-21.22 12.47,0 25.21,1.45 38.22,4.34l0.64 1.09 -6.91 37.16zm90.08 108.35c-12.46,0 -24.35,0.1 -35.64,0.33l-0.55 -5.23 17 -4.67c1.77,-0.57 2.67,-1.7 2.74,-3.4 0.14,-5.3 0.23,-12.14 0.23,-20.51l0 -103.76 -30.58 0 -9.75 28.2 -5.94 0.99 -2.74 -39.63 0.71 -0.87c17.39,0.28 34.06,0.44 50,0.44l29.59 0c15.94,0 32.7,-0.16 50.31,-0.44l0.66 0.87 -7.04 38.76 -5.93 0.97 -6.88 -29.29 -30.69 0 0 103.76c0,8.37 0.07,15.21 0.21,20.51 0.09,1.7 1.03,2.83 2.87,3.4l16.67 4.67 0.31 5.23c-11.72,-0.23 -23.62,-0.33 -35.56,-0.33zm108.65 -148.55c9.92,0.28 20.1,0.44 30.57,0.44 3.83,-0.16 9.83,-0.37 17.97,-0.66 8.14,-0.28 13.72,-0.44 16.78,-0.44 17.88,0 31.39,2.9 40.49,8.67 9.08,5.75 13.65,14.05 13.65,24.85 0,16.98 -10.04,28.72 -30.14,35.2 11.66,1.63 20.64,5.73 26.98,12.24 6.31,6.51 9.47,14.68 9.47,24.45 0,14.17 -5.7,25.15 -17.11,32.93 -11.37,7.74 -27.49,11.63 -48.35,11.63 -4.13,0 -8.4,-0.12 -12.9,-0.36 -4.48,-0.26 -10.11,-0.4 -16.84,-0.4 -10.32,0 -20.32,0.1 -30.03,0.33l-0.54 -5.23 14.24 -3.91c1.77,-0.5 2.71,-1.59 2.85,-3.3 0.07,-2.83 0.16,-6 0.19,-9.53 0.04,-3.47 0.04,-7.34 0.04,-11.62l0 -84.57c0,-3.56 0,-6.79 -0.04,-9.67 -0.03,-2.9 -0.12,-5.59 -0.19,-7.97 -0.07,-1.86 -0.9,-3.01 -2.53,-3.53l-14.23 -4.11 -0.33 -5.44zm49.04 75.09l0 63.72c3.95,0.6 8.11,0.93 12.47,0.93 9.66,0 16.99,-2.83 21.99,-8.47 4.98,-5.66 7.48,-13.84 7.48,-24.56 0,-10.73 -2.53,-18.7 -7.6,-23.91 -5.07,-5.21 -13.29,-7.83 -24.63,-7.83 -3.3,0 -6.51,0.05 -9.71,0.12zm0 -9.57c3.63,0.07 7.04,0.11 10.28,0.11 9.07,0 15.81,-2.17 20.15,-6.51 4.34,-4.4 6.53,-11.74 6.53,-22.18 0,-9.74 -2.26,-16.76 -6.74,-21 -4.5,-4.25 -10.97,-6.39 -19.5,-6.39 -1.34,0 -2.94,0.04 -4.71,0.16 -1.8,0.1 -3.8,0.33 -6.01,0.61l0 55.2zm150.79 7.07c0,22.63 3.84,39.99 11.48,51.98 7.66,11.98 18.88,18 33.69,18 14.6,0 25.39,-5.47 32.39,-16.37 6.99,-10.91 10.47,-28.05 10.47,-51.4 0,-21.95 -3.7,-38.8 -11.05,-50.61 -7.39,-11.77 -18.8,-17.68 -34.24,-17.68 -14.95,0 -25.83,5.47 -32.6,16.42 -6.77,10.94 -10.14,27.49 -10.14,49.66zm123.66 -1.46c0,24.49 -7.2,44.2 -21.65,59.08 -14.45,14.9 -34.56,22.35 -60.31,22.35 -24.66,0 -43.73,-6.88 -57.15,-20.65 -13.45,-13.75 -20.18,-32.37 -20.18,-55.88 0,-24.49 7.24,-43.87 21.76,-58.11 14.53,-14.27 34.59,-21.41 60.24,-21.41 24.62,0 43.69,6.67 57.11,20.01 13.44,13.37 20.18,31.55 20.18,54.61zm208.67 -30.93l-5.84 0.94 -8.07 -30.46c-5.58,-1.77 -11.62,-2.64 -18.15,-2.64 -15.61,0 -27.71,5.87 -36.26,17.61 -8.58,11.69 -12.85,27.06 -12.85,46.04 0,20.28 5.04,36.43 15.14,48.45 10.06,12.07 24.06,18.08 41.94,18.08 10.01,0 20.51,-2.04 31.52,-6.08l1.37 6.04c-14.13,9.6 -30.14,14.38 -47.96,14.38 -23.11,0 -41.8,-6.98 -56.07,-20.93 -14.23,-13.94 -21.36,-32.31 -21.36,-55.1 0,-24.29 7.81,-43.53 23.42,-57.7 15.65,-14.16 36.05,-21.22 61.22,-21.22 12.46,0 25.21,1.45 38.22,4.34l0.64 1.09 -6.91 37.16zm131.54 32.39c0,22.63 3.84,39.99 11.48,51.98 7.66,11.98 18.88,18 33.69,18 14.61,0 25.39,-5.47 32.39,-16.37 7,-10.91 10.47,-28.05 10.47,-51.4 0,-21.95 -3.7,-38.8 -11.04,-50.61 -7.4,-11.77 -18.81,-17.68 -34.25,-17.68 -14.95,0 -25.82,5.47 -32.59,16.42 -6.78,10.94 -10.15,27.49 -10.15,49.66zm123.67 -1.46c0,24.49 -7.21,44.2 -21.66,59.08 -14.45,14.9 -34.56,22.35 -60.31,22.35 -24.66,0 -43.73,-6.88 -57.15,-20.65 -13.44,-13.75 -20.18,-32.37 -20.18,-55.88 0,-24.49 7.24,-43.87 21.76,-58.11 14.53,-14.27 34.59,-21.41 60.24,-21.41 24.63,0 43.69,6.67 57.12,20.01 13.44,13.37 20.18,31.55 20.18,54.61zm87.87 44.2c0,8.33 0.07,15.18 0.22,20.47 0.07,1.7 0.97,2.82 2.75,3.41l15.61 4.44 0.29 5.23c-10.94,-0.23 -22.38,-0.33 -34.31,-0.33 -12.19,0 -23.22,0.1 -33.07,0.33l-0.53 -5.23 14.24 -3.91c1.84,-0.57 2.77,-1.66 2.84,-3.3 0.16,-5.76 0.23,-12.78 0.23,-21.15l0 -84.57c0,-3.56 0,-6.79 -0.04,-9.67 -0.03,-2.9 -0.12,-5.59 -0.19,-7.97 -0.07,-1.86 -0.9,-3.01 -2.53,-3.53l-14.22 -4.11 -0.33 -5.44c9.91,0.28 19.31,0.44 28.21,0.44l25.29 0c17.12,0 34.94,-0.16 53.49,-0.44l0.62 0.87 -7.43 40.9 -5.4 0.83 -8.51 -31.29 -37.23 0 0 104.02zm142.05 -39.13c4.06,0.77 8.07,1.17 12.07,1.17 9.3,0 16.39,-2.87 21.25,-8.55 4.9,-5.69 7.31,-14.31 7.31,-25.82 0,-11.2 -2.31,-19.54 -6.91,-25.01 -4.63,-5.47 -11.91,-8.21 -21.88,-8.21 -3.91,0 -7.87,0.29 -11.84,0.83l0 65.59zm0 39.09c0,4.24 0,8.08 0.03,11.41 0.04,3.37 0.11,6.41 0.19,9.1 0.07,1.62 0.98,2.75 2.75,3.41l15.61 4.44 0.29 5.23c-10.94,-0.23 -22.38,-0.33 -34.31,-0.33 -12.35,0 -23.36,0.1 -33.06,0.33l-0.54 -5.23 14.24 -3.91c1.84,-0.57 2.78,-1.66 2.84,-3.3 0.07,-2.83 0.16,-6 0.2,-9.53 0.03,-3.47 0.03,-7.34 0.03,-11.62l0 -84.57c0,-3.56 0,-6.79 -0.03,-9.67 -0.04,-2.9 -0.13,-5.59 -0.2,-7.97 -0.06,-1.86 -0.9,-3.01 -2.53,-3.53l-14.22 -4.11 -0.33 -5.44c9.91,0.28 19.74,0.44 29.45,0.44 6.62,0 13.11,-0.16 19.38,-0.44 6.25,-0.29 11.98,-0.43 17.16,-0.43 19.13,0 33.62,3.3 43.46,9.91 9.87,6.64 14.78,16.45 14.78,29.46 0,15.38 -5.14,27.31 -15.38,35.86 -10.27,8.51 -24.75,12.78 -43.4,12.78 -5.04,0 -10.51,-0.4 -16.41,-1.15l0 28.86zm124.87 -13.8l-7.53 19.85c-1.5,3.92 -2.62,7.03 -3.44,9.43 -0.8,2.34 -1.23,4.15 -1.23,5.47 0,1.18 0.31,2.1 0.97,2.74 0.61,0.63 1.63,1.13 2.97,1.49l10.17 2.97 0.33 5.44c-10.24,-0.23 -18.61,-0.33 -25.07,-0.33 -6.69,0 -14.38,0.1 -22.99,0.33l-0.54 -5.23 11.37 -3.4c2.68,-0.77 4.64,-2.07 5.94,-3.87 1.27,-1.81 2.68,-4.54 4.24,-8.24l52.84 -128.8 11.45 -1.7 45.74 129.13c1.79,4.97 3.37,8.3 4.83,10.04 1.44,1.74 3.5,2.97 6.23,3.77l10.39 3.07 0.29 5.23c-9.53,-0.23 -19.15,-0.33 -28.83,-0.33 -12.83,0 -25.32,0.1 -37.49,0.33l-0.5 -5.23 10.5 -3.07c1.41,-0.44 2.42,-0.94 3.08,-1.6 0.6,-0.64 0.93,-1.6 0.93,-2.87 0,-1.4 -0.36,-3.29 -1.04,-5.57 -0.73,-2.31 -1.75,-5.33 -3.09,-9.08l-6.98 -19.97 -43.54 0zm22.93 -60.96c-1.27,3.65 -2.64,7.51 -4.14,11.45l-14.55 38.43 35.46 0 -13.04 -38.33c-1.34,-4.01 -2.6,-7.9 -3.73,-11.55zm159.76 35.31l0 39.45c0,8.34 0.07,15.32 0.23,20.95 0.07,1.94 0.97,3.21 2.74,3.68l12.31 3.73 0.33 5.23c-8.8,-0.23 -19.12,-0.33 -31.05,-0.33 -12.19,0 -23.21,0.1 -33.06,0.33l-0.54 -5.23 14.24 -3.91c1.84,-0.57 2.78,-1.66 2.85,-3.3 0.16,-5.76 0.23,-12.78 0.23,-21.15l0 -84.57c0,-7.1 -0.07,-12.97 -0.23,-17.64 -0.07,-1.86 -0.9,-3.01 -2.54,-3.53l-14.22 -4.11 -0.33 -5.44c9.85,0.28 20.72,0.44 32.63,0.44 12.28,0 22.75,-0.16 31.36,-0.44l0.66 5.44 -12.64 3.58c-1.77,0.5 -2.67,1.59 -2.74,3.29 -0.16,5.08 -0.23,11.05 -0.23,17.89l0 34.35 63.46 0 0 -34.35c0,-6.84 -0.07,-12.81 -0.21,-17.89 -0.07,-1.7 -0.97,-2.79 -2.76,-3.29l-12.42 -3.58 -0.33 -5.44c8.98,0.28 19.61,0.44 31.85,0.44 11.95,0 22.73,-0.16 32.37,-0.44l0.55 5.44 -14.46 4.11c-1.62,0.52 -2.5,1.67 -2.64,3.53 -0.14,4.67 -0.21,10.54 -0.21,17.64l0 84.57c0,8.37 0.07,15.39 0.21,21.15 0.14,1.64 1.13,2.73 2.97,3.3l13.8 3.91 0.33 5.23c-10.14,-0.23 -21.3,-0.33 -33.55,-0.33 -11.94,0 -22.19,0.1 -30.68,0.33l-0.54 -5.23 12.75 -3.73c1.79,-0.47 2.69,-1.74 2.76,-3.68 0.14,-5.63 0.21,-12.61 0.21,-20.95l0 -39.45 -63.46 0zm199.14 20.73l64.75 -68.24c0,-6.01 -0.07,-11.34 -0.21,-16.02 -0.07,-1.7 -1,-2.79 -2.86,-3.29l-12.31 -3.58 -0.33 -5.44c8.99,0.28 19.6,0.44 31.84,0.44 11.95,0 22.72,-0.16 32.27,-0.44l0.63 5.44 -14.54 4.11c-1.63,0.52 -2.47,1.67 -2.54,3.53 -0.13,4.67 -0.2,10.54 -0.2,17.64l0 84.57c0,8.37 0.07,15.39 0.2,21.15 0.07,1.64 1.03,2.73 2.87,3.3l13.91 3.91 0.3 5.23c-10.11,-0.23 -21.28,-0.33 -33.52,-0.33 -11.95,0 -22.19,0.1 -30.67,0.33l-0.55 -5.23 12.64 -3.73c1.86,-0.47 2.79,-1.74 2.86,-3.68 0.14,-5.63 0.21,-12.58 0.21,-20.95l0 -69.44 -64.75 68.31c0,9.1 0.06,16.45 0.22,22.02 0.07,2 0.97,3.23 2.74,3.74l12.32 3.73 0.33 5.23c-8.81,-0.23 -19.12,-0.33 -31.05,-0.33 -12.19,0 -23.22,0.1 -33.07,0.33l-0.54 -5.23 14.24 -3.91c1.84,-0.57 2.78,-1.66 2.85,-3.3 0.16,-5.76 0.23,-12.78 0.23,-21.15l0 -84.57c0,-7.1 -0.07,-12.97 -0.23,-17.64 -0.07,-1.86 -0.9,-3.01 -2.53,-3.53l-14.23 -4.11 -0.33 -5.44c9.85,0.28 20.72,0.44 32.63,0.44 12.28,0 22.75,-0.16 31.37,-0.44l0.66 5.44 -12.65 3.61c-1.77,0.47 -2.67,1.6 -2.74,3.26 -0.16,5.11 -0.22,11.08 -0.22,17.93l0 66.33zm194.21 -66.37l0 13.7c0,10.65 2,18.12 6.01,22.35 4,4.24 10,6.34 18.01,6.34 7.94,0 15.87,-0.99 23.79,-2.97l0 -39.42c0,-6.84 -0.07,-12.81 -0.21,-17.89 -0.07,-1.7 -0.97,-2.79 -2.76,-3.29l-12.31 -3.58 -0.43 -5.44c8.97,0.28 19.64,0.44 31.91,0.44 11.92,0 22.63,-0.16 32.2,-0.44l0.54 5.44 -14.45 4.11c-1.63,0.52 -2.47,1.67 -2.54,3.53 -0.13,4.67 -0.2,10.54 -0.2,17.64l0 84.57c0,8.37 0.07,15.39 0.2,21.15 0.07,1.64 1.01,2.73 2.87,3.3l13.81 3.91 0.31 5.23c-10.07,-0.23 -21.22,-0.33 -33.5,-0.33 -11.91,0 -23.04,0.1 -33.36,0.33l-0.54 -5.23 15.49 -4.34c1.79,-0.66 2.69,-1.89 2.76,-3.73 0.14,-5.18 0.21,-11.99 0.21,-20.36l0 -35.82c-14.59,4.6 -28.29,6.88 -41.1,6.88 -12.87,0 -22.49,-3.08 -28.87,-9.28 -6.39,-6.18 -9.56,-15.51 -9.56,-27.92l0 -18.44c0,-7.06 -0.07,-12.92 -0.23,-17.56 -0.07,-1.86 -0.9,-3.01 -2.53,-3.53l-14.35 -4.11 -0.28 -5.44c9.88,0.28 20.82,0.44 32.77,0.44 12.25,0 22.32,-0.16 30.25,-0.44l0.63 5.44 -11.57 3.58c-1.77,0.5 -2.67,1.59 -2.74,3.29 -0.16,5.08 -0.23,11.05 -0.23,17.89zm162.74 -29.76l26.76 0c17.21,0 35.02,-0.16 53.5,-0.44l0.73 0.87 -6.6 35.31 -5.73 0.83 -6.77 -25.7 -41.07 0 0 56.28 5.73 0c6.15,0 12.78,-0.07 19.85,-0.23 1.84,-0.07 3.04,-1 3.61,-2.84l3.8 -14.54 7 -0.33c-0.19,10.26 -0.29,17.94 -0.29,23.05 0,4.96 0.1,12.53 0.29,22.71l-7 0.54 -3.9 -14.95c-0.58,-1.93 -1.67,-2.9 -3.3,-2.97 -7.21,-0.16 -13.95,-0.23 -20.18,-0.23l-5.61 0 0 36.4c0,7.8 0.07,15.51 0.22,23.15l42.45 0 13.37 -27.89 6.48 -0.97 -2.57 39.73 -0.73 0.76c-17.63,-0.22 -34.77,-0.33 -51.48,-0.33l-28.06 0c-9.1,0 -18.48,0.07 -28.18,0.23l-0.54 -5.23 14.24 -3.91c1.77,-0.5 2.71,-1.59 2.85,-3.3 0.07,-2.83 0.15,-6 0.19,-9.53 0.03,-3.47 0.03,-7.34 0.03,-11.62l0 -84.57c0,-3.56 0,-6.79 -0.03,-9.67 -0.04,-2.9 -0.12,-5.59 -0.19,-7.97 -0.07,-1.86 -0.91,-3.01 -2.54,-3.53l-14.22 -4.11 -0.33 -5.44c9.91,0.28 19.31,0.44 28.22,0.44zm170.91 75.4l0 39.45c0,8.34 0.07,15.32 0.23,20.95 0.07,1.94 0.97,3.21 2.74,3.68l12.31 3.73 0.33 5.23c-8.8,-0.23 -19.12,-0.33 -31.05,-0.33 -12.19,0 -23.21,0.1 -33.06,0.33l-0.54 -5.23 14.24 -3.91c1.84,-0.57 2.78,-1.66 2.85,-3.3 0.15,-5.76 0.22,-12.78 0.22,-21.15l0 -84.57c0,-7.1 -0.07,-12.97 -0.22,-17.64 -0.07,-1.86 -0.9,-3.01 -2.54,-3.53l-14.22 -4.11 -0.33 -5.44c9.85,0.28 20.72,0.44 32.63,0.44 12.28,0 22.75,-0.16 31.36,-0.44l0.66 5.44 -12.64 3.58c-1.77,0.5 -2.67,1.59 -2.74,3.29 -0.16,5.08 -0.23,11.05 -0.23,17.89l0 34.35 63.46 0 0 -34.35c0,-6.84 -0.07,-12.81 -0.21,-17.89 -0.07,-1.7 -0.98,-2.79 -2.76,-3.29l-12.42 -3.58 -0.33 -5.44c8.98,0.28 19.61,0.44 31.85,0.44 11.95,0 22.73,-0.16 32.37,-0.44l0.55 5.44 -14.46 4.11c-1.62,0.52 -2.5,1.67 -2.64,3.53 -0.14,4.67 -0.21,10.54 -0.21,17.64l0 84.57c0,8.37 0.07,15.39 0.21,21.15 0.14,1.64 1.13,2.73 2.97,3.3l13.8 3.91 0.33 5.23c-10.14,-0.23 -21.3,-0.33 -33.55,-0.33 -11.94,0 -22.19,0.1 -30.68,0.33l-0.54 -5.23 12.75 -3.73c1.78,-0.47 2.69,-1.74 2.76,-3.68 0.14,-5.63 0.21,-12.61 0.21,-20.95l0 -39.45 -63.46 0zm199.13 0l0 39.45c0,8.34 0.07,15.32 0.23,20.95 0.07,1.94 0.97,3.21 2.74,3.68l12.32 3.73 0.33 5.23c-8.81,-0.23 -19.12,-0.33 -31.05,-0.33 -12.19,0 -23.22,0.1 -33.07,0.33l-0.54 -5.23 14.24 -3.91c1.84,-0.57 2.78,-1.66 2.85,-3.3 0.16,-5.76 0.23,-12.78 0.23,-21.15l0 -84.57c0,-7.1 -0.07,-12.97 -0.23,-17.64 -0.07,-1.86 -0.9,-3.01 -2.53,-3.53l-14.23 -4.11 -0.33 -5.44c9.85,0.28 20.72,0.44 32.63,0.44 12.28,0 22.75,-0.16 31.37,-0.44l0.66 5.44 -12.65 3.58c-1.77,0.5 -2.67,1.59 -2.74,3.29 -0.16,5.08 -0.23,11.05 -0.23,17.89l0 34.35 63.46 0 0 -34.35c0,-6.84 -0.07,-12.81 -0.21,-17.89 -0.07,-1.7 -0.97,-2.79 -2.76,-3.29l-12.42 -3.58 -0.33 -5.44c8.98,0.28 19.61,0.44 31.85,0.44 11.95,0 22.73,-0.16 32.37,-0.44l0.56 5.44 -14.47 4.11c-1.61,0.52 -2.5,1.67 -2.64,3.53 -0.14,4.67 -0.21,10.54 -0.21,17.64l0 84.57c0,8.37 0.07,15.39 0.21,21.15 0.14,1.64 1.13,2.73 2.97,3.3l13.81 3.91 0.33 5.23c-10.15,-0.23 -21.31,-0.33 -33.55,-0.33 -11.95,0 -22.2,0.1 -30.69,0.33l-0.54 -5.23 12.75 -3.73c1.79,-0.47 2.69,-1.74 2.76,-3.68 0.14,-5.63 0.21,-12.61 0.21,-20.95l0 -39.45 -63.46 0zm186.96 -3.25c0,22.63 3.84,39.99 11.48,51.98 7.66,11.98 18.88,18 33.69,18 14.61,0 25.39,-5.47 32.39,-16.37 7,-10.91 10.47,-28.05 10.47,-51.4 0,-21.95 -3.7,-38.8 -11.04,-50.61 -7.4,-11.77 -18.81,-17.68 -34.25,-17.68 -14.95,0 -25.82,5.47 -32.59,16.42 -6.78,10.94 -10.15,27.49 -10.15,49.66zm123.66 -1.46c0,24.49 -7.2,44.2 -21.65,59.08 -14.45,14.9 -34.56,22.35 -60.31,22.35 -24.66,0 -43.73,-6.88 -57.15,-20.65 -13.44,-13.75 -20.18,-32.37 -20.18,-55.88 0,-24.49 7.24,-43.87 21.76,-58.11 14.53,-14.27 34.59,-21.41 60.24,-21.41 24.62,0 43.69,6.67 57.12,20.01 13.44,13.37 20.17,31.55 20.17,54.61zm87.88 25.44l64.75 -68.24c0,-6.01 -0.07,-11.34 -0.21,-16.02 -0.07,-1.7 -1,-2.79 -2.86,-3.29l-12.31 -3.58 -0.33 -5.44c8.99,0.28 19.6,0.44 31.84,0.44 11.95,0 22.72,-0.16 32.27,-0.44l0.63 5.44 -14.54 4.11c-1.63,0.52 -2.47,1.67 -2.53,3.53 -0.14,4.67 -0.21,10.54 -0.21,17.64l0 84.57c0,8.37 0.07,15.39 0.21,21.15 0.06,1.64 1.02,2.73 2.86,3.3l13.91 3.91 0.3 5.23c-10.11,-0.23 -21.28,-0.33 -33.52,-0.33 -11.95,0 -22.19,0.1 -30.67,0.33l-0.55 -5.23 12.64 -3.73c1.86,-0.47 2.79,-1.74 2.86,-3.68 0.14,-5.63 0.21,-12.58 0.21,-20.95l0 -69.44 -64.75 68.31c0,9.1 0.06,16.45 0.22,22.02 0.07,2 0.97,3.23 2.74,3.74l12.32 3.73 0.33 5.23c-8.81,-0.23 -19.12,-0.33 -31.05,-0.33 -12.19,0 -23.22,0.1 -33.07,0.33l-0.54 -5.23 14.24 -3.91c1.85,-0.57 2.78,-1.66 2.85,-3.3 0.16,-5.76 0.23,-12.78 0.23,-21.15l0 -84.57c0,-7.1 -0.07,-12.97 -0.23,-17.64 -0.07,-1.86 -0.9,-3.01 -2.53,-3.53l-14.23 -4.11 -0.33 -5.44c9.85,0.28 20.72,0.44 32.63,0.44 12.28,0 22.75,-0.16 31.37,-0.44l0.66 5.44 -12.65 3.61c-1.77,0.47 -2.67,1.6 -2.74,3.26 -0.16,5.11 -0.22,11.08 -0.22,17.93l0 66.33zm46.61 -140c3.42,-1.77 6.96,-2.64 10.62,-2.64 4.45,0 7.75,1.15 9.85,3.51 2.14,2.31 3.19,5.33 3.19,8.91 0,7.1 -3.69,12.5 -11.13,16.15 -7.41,3.7 -16.41,5.54 -26.95,5.54 -10.54,0 -19.48,-1.84 -26.76,-5.54 -7.28,-3.65 -10.9,-9.05 -10.9,-16.15 0,-3.58 1.05,-6.6 3.16,-8.91 2.13,-2.36 5.41,-3.51 9.88,-3.51 3.73,0 7.27,0.87 10.61,2.64l0 16.08c0,3.87 4.83,5.84 14.41,5.84 9.34,0 14.02,-1.97 14.02,-5.84l0 -16.08zm193.74 116.02c0,22.63 3.84,39.99 11.48,51.98 7.66,11.98 18.88,18 33.69,18 14.61,0 25.39,-5.47 32.39,-16.37 7,-10.91 10.47,-28.05 10.47,-51.4 0,-21.95 -3.7,-38.8 -11.04,-50.61 -7.4,-11.77 -18.81,-17.68 -34.25,-17.68 -14.95,0 -25.82,5.47 -32.59,16.42 -6.78,10.94 -10.15,27.49 -10.15,49.66zm123.67 -1.46c0,24.49 -7.21,44.2 -21.66,59.08 -14.45,14.9 -34.56,22.35 -60.31,22.35 -24.66,0 -43.73,-6.88 -57.15,-20.65 -13.44,-13.75 -20.18,-32.37 -20.18,-55.88 0,-24.49 7.24,-43.87 21.76,-58.11 14.53,-14.27 34.59,-21.41 60.24,-21.41 24.63,0 43.69,6.67 57.12,20.01 13.44,13.37 20.18,31.55 20.18,54.61zm81.46 77.42c-12.45,0 -24.35,0.1 -35.64,0.33l-0.55 -5.23 17 -4.67c1.77,-0.57 2.67,-1.7 2.74,-3.4 0.14,-5.3 0.23,-12.14 0.23,-20.51l0 -103.76 -30.58 0 -9.74 28.2 -5.94 0.99 -2.75 -39.63 0.71 -0.87c17.39,0.28 34.06,0.44 50,0.44l29.59 0c15.94,0 32.7,-0.16 50.31,-0.44l0.66 0.87 -7.03 38.76 -5.94 0.97 -6.88 -29.29 -30.68 0 0 103.76c0,8.37 0.07,15.21 0.2,20.51 0.09,1.7 1.03,2.83 2.87,3.4l16.67 4.67 0.31 5.23c-11.72,-0.23 -23.61,-0.33 -35.56,-0.33zm108.66 -148.55c9.91,0.28 20.09,0.44 30.56,0.44 3.84,-0.16 9.83,-0.37 17.97,-0.66 8.15,-0.28 13.72,-0.44 16.78,-0.44 17.89,0 31.4,2.9 40.5,8.67 9.08,5.75 13.64,14.05 13.64,24.85 0,16.98 -10.03,28.72 -30.14,35.2 11.67,1.63 20.65,5.73 26.98,12.24 6.31,6.51 9.47,14.68 9.47,24.45 0,14.17 -5.7,25.15 -17.11,32.93 -11.37,7.74 -27.49,11.63 -48.34,11.63 -4.14,0 -8.41,-0.12 -12.91,-0.36 -4.48,-0.26 -10.1,-0.4 -16.84,-0.4 -10.32,0 -20.32,0.1 -30.03,0.33l-0.53 -5.23 14.24 -3.91c1.77,-0.5 2.7,-1.59 2.84,-3.3 0.07,-2.83 0.16,-6 0.19,-9.53 0.04,-3.47 0.04,-7.34 0.04,-11.62l0 -84.57c0,-3.56 0,-6.79 -0.04,-9.67 -0.03,-2.9 -0.12,-5.59 -0.19,-7.97 -0.07,-1.86 -0.9,-3.01 -2.53,-3.53l-14.22 -4.11 -0.33 -5.44zm49.04 75.09l0 63.72c3.94,0.6 8.11,0.93 12.47,0.93 9.65,0 16.98,-2.83 21.98,-8.47 4.98,-5.66 7.48,-13.84 7.48,-24.56 0,-10.73 -2.53,-18.7 -7.6,-23.91 -5.07,-5.21 -13.29,-7.83 -24.63,-7.83 -3.3,0 -6.51,0.05 -9.7,0.12zm0 -9.57c3.63,0.07 7.03,0.11 10.28,0.11 9.06,0 15.8,-2.17 20.14,-6.51 4.34,-4.4 6.53,-11.74 6.53,-22.18 0,-9.74 -2.26,-16.76 -6.74,-21 -4.49,-4.25 -10.97,-6.39 -19.5,-6.39 -1.34,0 -2.93,0.04 -4.7,0.16 -1.81,0.1 -3.81,0.33 -6.01,0.61l0 55.2z"/>
    <path class="fil1" d="M4517.08 6887.4l26.76 0c17.21,0 35.02,-0.16 53.5,-0.44l0.73 0.87 -6.6 35.31 -5.73 0.83 -6.77 -25.7 -41.07 0 0 56.28 5.73 0c6.14,0 12.78,-0.07 19.85,-0.23 1.84,-0.07 3.04,-1 3.61,-2.84l3.8 -14.54 7 -0.33c-0.19,10.26 -0.3,17.94 -0.3,23.05 0,4.96 0.11,12.53 0.3,22.71l-7 0.54 -3.91 -14.95c-0.57,-1.93 -1.66,-2.9 -3.3,-2.97 -7.2,-0.16 -13.94,-0.23 -20.17,-0.23l-5.61 0 0 36.4c0,7.8 0.07,15.51 0.22,23.15l42.44 0 13.38 -27.89 6.47 -0.97 -2.57 39.73 -0.73 0.76c-17.62,-0.22 -34.76,-0.33 -51.47,-0.33l-28.06 0c-9.1,0 -18.48,0.07 -28.19,0.23l-0.53 -5.23 14.24 -3.91c1.77,-0.5 2.7,-1.59 2.84,-3.3 0.07,-2.83 0.16,-6 0.19,-9.53 0.04,-3.47 0.04,-7.34 0.04,-11.62l0 -84.57c0,-3.56 0,-6.79 -0.04,-9.67 -0.03,-2.9 -0.12,-5.59 -0.19,-7.97 -0.07,-1.86 -0.9,-3.01 -2.53,-3.53l-14.22 -4.11 -0.33 -5.44c9.91,0.28 19.31,0.44 28.22,0.44zm167.14 148.11c-12.45,0 -24.35,0.1 -35.63,0.33l-0.56 -5.23 17 -4.67c1.77,-0.57 2.68,-1.7 2.75,-3.4 0.13,-5.3 0.22,-12.14 0.22,-20.51l0 -103.76 -30.58 0 -9.74 28.2 -5.94 0.99 -2.75 -39.63 0.72 -0.87c17.38,0.28 34.05,0.44 49.99,0.44l29.59 0c15.95,0 32.7,-0.16 50.31,-0.44l0.66 0.87 -7.03 38.76 -5.94 0.97 -6.88 -29.29 -30.68 0 0 103.76c0,8.37 0.07,15.21 0.21,20.51 0.08,1.7 1.02,2.83 2.86,3.4l16.67 4.67 0.32 5.23c-11.73,-0.23 -23.62,-0.33 -35.57,-0.33zm223.18 -108.35l-5.83 0.94 -8.08 -30.46c-5.57,-1.77 -11.61,-2.64 -18.14,-2.64 -15.61,0 -27.72,5.87 -36.26,17.61 -8.58,11.69 -12.85,27.06 -12.85,46.04 0,20.28 5.03,36.43 15.14,48.45 10.06,12.07 24.05,18.08 41.94,18.08 10,0 20.51,-2.04 31.52,-6.08l1.37 6.04c-14.14,9.6 -30.15,14.38 -47.96,14.38 -23.12,0 -41.8,-6.98 -56.08,-20.93 -14.22,-13.94 -21.36,-32.31 -21.36,-55.1 0,-24.29 7.82,-43.53 23.43,-57.7 15.64,-14.16 36.05,-21.22 61.21,-21.22 12.47,0 25.22,1.45 38.22,4.34l0.65 1.09 -6.92 37.16zm90.08 108.35c-12.45,0 -24.35,0.1 -35.63,0.33l-0.56 -5.23 17 -4.67c1.77,-0.57 2.68,-1.7 2.75,-3.4 0.13,-5.3 0.22,-12.14 0.22,-20.51l0 -103.76 -30.58 0 -9.74 28.2 -5.94 0.99 -2.74 -39.63 0.71 -0.87c17.38,0.28 34.05,0.44 49.99,0.44l29.59 0c15.95,0 32.7,-0.16 50.31,-0.44l0.66 0.87 -7.03 38.76 -5.94 0.97 -6.88 -29.29 -30.68 0 0 103.76c0,8.37 0.07,15.21 0.21,20.51 0.08,1.7 1.02,2.83 2.86,3.4l16.67 4.67 0.32 5.23c-11.73,-0.23 -23.62,-0.33 -35.57,-0.33zm108.66 -148.55c9.91,0.28 20.09,0.44 30.56,0.44 3.84,-0.16 9.83,-0.37 17.98,-0.66 8.14,-0.28 13.71,-0.44 16.77,-0.44 17.89,0 31.4,2.9 40.5,8.67 9.08,5.75 13.65,14.05 13.65,24.85 0,16.98 -10.04,28.72 -30.15,35.2 11.67,1.63 20.65,5.73 26.99,12.24 6.3,6.51 9.46,14.68 9.46,24.45 0,14.17 -5.7,25.15 -17.1,32.93 -11.38,7.74 -27.49,11.63 -48.35,11.63 -4.13,0 -8.41,-0.12 -12.9,-0.36 -4.48,-0.26 -10.11,-0.4 -16.85,-0.4 -10.31,0 -20.32,0.1 -30.02,0.33l-0.54 -5.23 14.24 -3.91c1.77,-0.5 2.71,-1.59 2.85,-3.3 0.07,-2.83 0.15,-6 0.19,-9.53 0.03,-3.47 0.03,-7.34 0.03,-11.62l0 -84.57c0,-3.56 0,-6.79 -0.03,-9.67 -0.04,-2.9 -0.12,-5.59 -0.19,-7.97 -0.07,-1.86 -0.91,-3.01 -2.54,-3.53l-14.22 -4.11 -0.33 -5.44zm49.04 75.09l0 63.72c3.94,0.6 8.11,0.93 12.47,0.93 9.65,0 16.98,-2.83 21.98,-8.47 4.99,-5.66 7.49,-13.84 7.49,-24.56 0,-10.73 -2.54,-18.7 -7.61,-23.91 -5.07,-5.21 -13.28,-7.83 -24.62,-7.83 -3.3,0 -6.52,0.05 -9.71,0.12zm0 -9.57c3.63,0.07 7.03,0.11 10.28,0.11 9.06,0 15.8,-2.17 20.14,-6.51 4.35,-4.4 6.53,-11.74 6.53,-22.18 0,-9.74 -2.25,-16.76 -6.73,-21 -4.5,-4.25 -10.98,-6.39 -19.51,-6.39 -1.33,0 -2.93,0.04 -4.7,0.16 -1.81,0.1 -3.81,0.33 -6.01,0.61l0 55.2zm142.14 -65.08l26.76 0c17.21,0 35.02,-0.16 53.5,-0.44l0.73 0.87 -6.6 35.31 -5.73 0.83 -6.77 -25.7 -41.07 0 0 56.28 5.73 0c6.15,0 12.78,-0.07 19.85,-0.23 1.84,-0.07 3.04,-1 3.61,-2.84l3.8 -14.54 7 -0.33c-0.19,10.26 -0.29,17.94 -0.29,23.05 0,4.96 0.1,12.53 0.29,22.71l-7 0.54 -3.9 -14.95c-0.58,-1.93 -1.67,-2.9 -3.3,-2.97 -7.21,-0.16 -13.95,-0.23 -20.18,-0.23l-5.61 0 0 36.4c0,7.8 0.07,15.51 0.22,23.15l42.45 0 13.37 -27.89 6.48 -0.97 -2.57 39.73 -0.73 0.76c-17.63,-0.22 -34.77,-0.33 -51.48,-0.33l-28.06 0c-9.1,0 -18.48,0.07 -28.18,0.23l-0.54 -5.23 14.24 -3.91c1.77,-0.5 2.71,-1.59 2.85,-3.3 0.07,-2.83 0.15,-6 0.19,-9.53 0.03,-3.47 0.03,-7.34 0.03,-11.62l0 -84.57c0,-3.56 0,-6.79 -0.03,-9.67 -0.04,-2.9 -0.12,-5.59 -0.19,-7.97 -0.07,-1.86 -0.91,-3.01 -2.54,-3.53l-14.22 -4.11 -0.33 -5.44c9.91,0.28 19.31,0.44 28.22,0.44zm170.91 75.4l0 39.45c0,8.34 0.07,15.32 0.23,20.95 0.07,1.94 0.97,3.21 2.74,3.68l12.31 3.73 0.33 5.23c-8.8,-0.23 -19.12,-0.33 -31.05,-0.33 -12.19,0 -23.22,0.1 -33.06,0.33l-0.54 -5.23 14.24 -3.91c1.84,-0.57 2.78,-1.66 2.85,-3.3 0.15,-5.76 0.22,-12.78 0.22,-21.15l0 -84.57c0,-7.1 -0.07,-12.97 -0.22,-17.64 -0.07,-1.86 -0.9,-3.01 -2.54,-3.53l-14.22 -4.11 -0.33 -5.44c9.85,0.28 20.72,0.44 32.63,0.44 12.28,0 22.75,-0.16 31.36,-0.44l0.66 5.44 -12.64 3.58c-1.77,0.5 -2.67,1.59 -2.74,3.29 -0.16,5.08 -0.23,11.05 -0.23,17.89l0 34.35 63.46 0 0 -34.35c0,-6.84 -0.07,-12.81 -0.21,-17.89 -0.07,-1.7 -0.98,-2.79 -2.76,-3.29l-12.42 -3.58 -0.33 -5.44c8.98,0.28 19.61,0.44 31.85,0.44 11.95,0 22.73,-0.16 32.37,-0.44l0.55 5.44 -14.46 4.11c-1.62,0.52 -2.5,1.67 -2.64,3.53 -0.14,4.67 -0.21,10.54 -0.21,17.64l0 84.57c0,8.37 0.07,15.39 0.21,21.15 0.14,1.64 1.13,2.73 2.97,3.3l13.8 3.91 0.33 5.23c-10.14,-0.23 -21.3,-0.33 -33.55,-0.33 -11.94,0 -22.19,0.1 -30.68,0.33l-0.54 -5.23 12.75 -3.73c1.78,-0.47 2.69,-1.74 2.76,-3.68 0.14,-5.63 0.21,-12.61 0.21,-20.95l0 -39.45 -63.46 0zm199.13 0l0 39.45c0,8.34 0.07,15.32 0.23,20.95 0.07,1.94 0.97,3.21 2.74,3.68l12.32 3.73 0.33 5.23c-8.81,-0.23 -19.12,-0.33 -31.05,-0.33 -12.19,0 -23.22,0.1 -33.07,0.33l-0.54 -5.23 14.24 -3.91c1.84,-0.57 2.78,-1.66 2.85,-3.3 0.16,-5.76 0.23,-12.78 0.23,-21.15l0 -84.57c0,-7.1 -0.07,-12.97 -0.23,-17.64 -0.07,-1.86 -0.9,-3.01 -2.53,-3.53l-14.23 -4.11 -0.33 -5.44c9.85,0.28 20.72,0.44 32.63,0.44 12.28,0 22.75,-0.16 31.37,-0.44l0.66 5.44 -12.65 3.58c-1.77,0.5 -2.67,1.59 -2.74,3.29 -0.16,5.08 -0.23,11.05 -0.23,17.89l0 34.35 63.46 0 0 -34.35c0,-6.84 -0.07,-12.81 -0.21,-17.89 -0.07,-1.7 -0.97,-2.79 -2.76,-3.29l-12.42 -3.58 -0.33 -5.44c8.98,0.28 19.61,0.44 31.85,0.44 11.95,0 22.73,-0.16 32.37,-0.44l0.56 5.44 -14.47 4.11c-1.61,0.52 -2.5,1.67 -2.64,3.53 -0.14,4.67 -0.21,10.54 -0.21,17.64l0 84.57c0,8.37 0.07,15.39 0.21,21.15 0.14,1.64 1.13,2.73 2.97,3.3l13.81 3.91 0.33 5.23c-10.15,-0.23 -21.31,-0.33 -33.55,-0.33 -11.95,0 -22.2,0.1 -30.69,0.33l-0.54 -5.23 12.75 -3.73c1.79,-0.47 2.69,-1.74 2.76,-3.68 0.14,-5.63 0.21,-12.61 0.21,-20.95l0 -39.45 -63.46 0zm186.96 -3.25c0,22.63 3.84,39.99 11.48,51.98 7.66,11.98 18.88,18 33.69,18 14.61,0 25.39,-5.47 32.39,-16.37 7,-10.91 10.47,-28.05 10.47,-51.4 0,-21.95 -3.7,-38.8 -11.04,-50.61 -7.4,-11.77 -18.81,-17.68 -34.25,-17.68 -14.95,0 -25.82,5.47 -32.6,16.42 -6.77,10.94 -10.14,27.49 -10.14,49.66zm123.66 -1.46c0,24.49 -7.2,44.2 -21.65,59.08 -14.45,14.9 -34.56,22.35 -60.31,22.35 -24.66,0 -43.73,-6.88 -57.15,-20.65 -13.44,-13.75 -20.18,-32.37 -20.18,-55.88 0,-24.49 7.24,-43.87 21.76,-58.11 14.53,-14.27 34.59,-21.41 60.24,-21.41 24.62,0 43.69,6.67 57.12,20.01 13.44,13.37 20.17,31.55 20.17,54.61zm156.66 -30.93l-5.83 0.94 -8.08 -30.46c-5.57,-1.77 -11.62,-2.64 -18.15,-2.64 -15.61,0 -27.71,5.87 -36.26,17.61 -8.57,11.69 -12.85,27.06 -12.85,46.04 0,20.28 5.04,36.43 15.15,48.45 10.05,12.07 24.05,18.08 41.93,18.08 10.01,0 20.51,-2.04 31.52,-6.08l1.38 6.04c-14.14,9.6 -30.15,14.38 -47.97,14.38 -23.11,0 -41.8,-6.98 -56.07,-20.93 -14.23,-13.94 -21.36,-32.31 -21.36,-55.1 0,-24.29 7.81,-43.53 23.42,-57.7 15.65,-14.16 36.06,-21.22 61.22,-21.22 12.47,0 25.21,1.45 38.22,4.34l0.64 1.09 -6.91 37.16zm90.08 108.35c-12.45,0 -24.35,0.1 -35.64,0.33l-0.55 -5.23 17 -4.67c1.77,-0.57 2.67,-1.7 2.74,-3.4 0.14,-5.3 0.23,-12.14 0.23,-20.51l0 -103.76 -30.58 0 -9.75 28.2 -5.93 0.99 -2.75 -39.63 0.71 -0.87c17.39,0.28 34.06,0.44 50,0.44l29.59 0c15.94,0 32.7,-0.16 50.31,-0.44l0.66 0.87 -7.03 38.76 -5.94 0.97 -6.88 -29.29 -30.69 0 0 103.76c0,8.37 0.07,15.21 0.21,20.51 0.09,1.7 1.03,2.83 2.87,3.4l16.67 4.67 0.31 5.23c-11.72,-0.23 -23.62,-0.33 -35.56,-0.33zm108.65 -148.55c9.85,0.28 20.72,0.44 32.63,0.44 12.28,0 23.69,-0.16 34.23,-0.44l0.56 5.44 -15.41 4.24c-1.77,0.57 -2.67,1.63 -2.74,3.17 -0.09,2.57 -0.16,5.3 -0.19,8.27 -0.03,2.93 -0.03,5.97 -0.03,9.15l0 32.82c6.99,-0.61 13.77,-0.94 20.35,-0.94 19.2,0 33.32,3.27 42.39,9.82 9.01,6.56 13.54,16.27 13.54,29.12 0,15.51 -5.87,27.42 -17.57,35.75 -11.71,8.31 -27.93,12.47 -48.64,12.47 -3.94,0 -8.44,-0.12 -13.48,-0.36 -5.03,-0.26 -10.47,-0.4 -16.34,-0.4 -9.55,0 -19.12,0.1 -28.76,0.33l-0.43 -5.23 14.13 -3.91c1.85,-0.57 2.78,-1.66 2.85,-3.3 0.07,-2.83 0.16,-6 0.19,-9.53 0.04,-3.47 0.04,-7.34 0.04,-11.62l0 -84.57c0,-3.56 0,-6.79 -0.04,-9.67 -0.03,-2.9 -0.12,-5.59 -0.19,-7.97 -0.07,-1.86 -0.9,-3.01 -2.53,-3.53l-14.23 -4.11 -0.33 -5.44zm49.05 138.48c4.16,0.83 8.23,1.26 12.24,1.26 9.53,0 16.77,-2.86 21.77,-8.63 4.99,-5.71 7.49,-14.25 7.49,-25.59 0,-11.34 -2.38,-19.68 -7.14,-25.08 -4.74,-5.38 -12.24,-8.07 -22.42,-8.07 -3.4,0 -7.38,0.26 -11.94,0.76l0 65.35zm160.49 -73.72l27.39 0c1.99,-21.01 9.6,-37.63 22.85,-49.88 13.25,-12.24 30.93,-18.37 53.07,-18.37 23.32,0 41.33,6.67 53.97,20.01 12.64,13.37 18.98,31.55 18.98,54.61 0,24.49 -6.86,44.2 -20.51,59.08 -13.65,14.9 -32.66,22.35 -57.01,22.35 -22.92,0 -40.67,-6.88 -53.17,-20.65 -12.54,-13.75 -18.81,-32.3 -18.81,-55.62l0 -0.23 -26.76 0 0 39.27c0,8.33 0.07,15.31 0.23,20.91 0.06,1.98 0.97,3.21 2.74,3.68l12.31 3.73 0.33 5.23c-8.8,-0.23 -19.12,-0.33 -31.05,-0.33 -12.19,0 -23.22,0.1 -33.06,0.33l-0.54 -5.23 14.24 -3.91c1.84,-0.57 2.78,-1.66 2.85,-3.3 0.15,-5.76 0.22,-12.78 0.22,-21.15l0 -84.57c0,-7.1 -0.07,-12.97 -0.22,-17.64 -0.07,-1.86 -0.91,-3.01 -2.54,-3.53l-14.22 -4.11 -0.33 -5.44c9.84,0.28 20.72,0.44 32.63,0.44 12.28,0 22.75,-0.16 31.36,-0.44l0.66 5.44 -12.64 3.61c-1.77,0.47 -2.68,1.6 -2.74,3.26 -0.16,5.11 -0.23,11.08 -0.23,17.96l0 34.49zm61.28 7.83c0,22.72 3.44,40.1 10.34,52.15 6.87,12.03 17.01,18.04 30.46,18.04 13.11,0 22.81,-5.47 29.12,-16.41 6.27,-10.94 9.41,-28.13 9.41,-51.57 0,-22.02 -3.33,-38.94 -9.95,-50.75 -6.63,-11.84 -16.97,-17.74 -30.95,-17.74 -13.39,0 -23.15,5.47 -29.26,16.44 -6.13,10.98 -9.17,27.6 -9.17,49.84z"/>
   </g>
   <path class="fil2" d="M4.88 4841.52l2964.74 0c141.31,-135.24 141.47,-313.99 141.47,-313.99l0 -622.35 537.64 0 0 622.35c0,0 0.16,178.75 141.46,313.99l2964.73 0 0 209.9 -6750.03 0 0 -209.9z"/>
   <path class="fil1" d="M3379.94 0c711.22,286.74 1247.52,927.97 1469.39,1575.33l-1.27 -3.68c-172.2,363.02 -377.91,567.25 -484.92,656.22 -72.61,-137.97 -160.13,-285.72 -265.07,-437.13 -19.33,-57.47 -176.13,-570.9 82.26,-1260.35 -43.17,-42.08 -87.82,-82.86 -133.93,-122.16 -181.36,443.96 -199.55,824.81 -175.82,1084.34 -302.74,-360.95 -710.94,-719.38 -1257.02,-994.81 -42.86,40.44 -84.23,82.12 -124.18,124.99 1454.62,708.47 1939.71,2043.03 2087.5,2633.74l0.39 -0.52c-278.68,355.93 -694.28,652.41 -1197.33,855.26 -945.14,-381.02 -1581.37,-1092.4 -1581.37,-1907.83 0,-203.75 39.71,-419.43 114.04,-634.34 135.29,299.06 313.29,567.72 511.99,806.38 -154.99,-0.17 -396.18,-23.16 -625.13,-134.95 1.55,65.32 6.86,130.06 16.39,193.89 223.41,89.45 445.63,109.51 599.17,109.51 64.33,0 115.94,-3.51 151.15,-6.86 330.58,358.76 700.47,641.04 1019.77,848.39 -111.99,110.46 -388.31,317.32 -898.69,348.23 69.91,50.38 143.27,98.4 219.74,143.98 466.1,-76.32 721.05,-292.54 823.09,-401.39 150.89,92.21 285.37,165.51 392.55,220.46 49.79,-37.58 97.68,-76.31 143.63,-116.18 -179.3,-90.27 -476.24,-253.09 -802.62,-487.42 17.69,-1206.56 -750.57,-2037.71 -1086.18,-2342.66 -35.98,43.78 -70.61,88.31 -103.64,133.72 306.91,285.77 985.77,1033.47 1021.8,2083.63 -495.69,-383.87 -1023.26,-925.02 -1293.92,-1619.79 -22.99,50.29 -44.35,100.81 -63.73,151.46 236.59,-621.05 758.48,-1223.93 1441.96,-1499.46zm1535.03 1806.23c30.44,135.03 46.3,268.51 46.3,397.17 0,349.14 -116.74,679.16 -324.33,972.38 23.2,-32.88 45.26,-66.2 66.2,-99.96 -54.79,-192.59 -138.04,-432.79 -263.25,-695.08 98.02,-75.91 294.21,-254.81 475.08,-574.51z"/>
  </g>
 </g>
</svg>
