<svg width="12" height="8" viewBox="0 0 12 8" fill="none" xmlns="http://www.w3.org/2000/svg">
<path d="M9.70518 1.12018L9.70458 1.12074L4.66773 5.87814L2.28476 3.42657C1.97447 3.10712 1.46358 3.09983 1.14442 3.41015L1.21386 3.48158L1.14442 3.41015C0.825018 3.72071 0.817732 4.23126 1.128 4.5507L1.1281 4.5508L4.06861 7.56935L4.0686 7.56936L4.06931 7.57007C4.38042 7.88307 4.88325 7.89381 5.20732 7.59402L5.20732 7.59402L5.20802 7.59336L10.8269 2.29359C10.9827 2.14669 11.0737 1.94384 11.0797 1.72987C11.0857 1.51596 11.0064 1.30836 10.8591 1.1529L10.8586 1.15234C10.5473 0.828741 10.0341 0.814605 9.70518 1.12018L9.70518 1.12018Z" fill="#5A9247" stroke="#5A9247" stroke-width="0.2"/>
</svg>
