<svg id="email" width="12" height="14" viewBox="0 0 12 14" xmlns="http://www.w3.org/2000/svg">
<g clip-path="url(#clip0)">
<path d="M7.95453 7.07166L12 10.0554V3.96191L7.95453 7.07166Z"/>
<path d="M0 3.96191V10.0554L4.0455 7.07166L0 3.96191Z"/>
<path d="M11.25 2.1875H0.750022C0.375772 2.1875 0.078772 2.513 0.022522 2.93213L6.00002 7.52675L11.9775 2.93213C11.9213 2.513 11.6243 2.1875 11.25 2.1875Z"/>
<path d="M7.26749 7.60024L6.20624 8.41574C6.14324 8.46386 6.07199 8.48749 5.99999 8.48749C5.92799 8.48749 5.85674 8.46386 5.79374 8.41574L4.73249 7.59937L0.0239868 11.074C0.0817368 11.4896 0.377237 11.8125 0.749987 11.8125H11.25C11.6227 11.8125 11.9182 11.4896 11.976 11.074L7.26749 7.60024Z"/>
</g>
<defs>
<clipPath id="clip0">
<rect width="12" height="14" fill="white"/>
</clipPath>
</defs>
</svg>
