<svg width="12" height="14" viewBox="0 0 12 14" fill="none" xmlns="http://www.w3.org/2000/svg">
<g clip-path="url(#clip0)">
<path d="M7.95453 7.07178L12 10.0555V3.96204L7.95453 7.07178Z" fill="#56A868"/>
<path d="M0 3.96204V10.0555L4.0455 7.07178L0 3.96204Z" fill="#56A868"/>
<path d="M11.25 2.1875H0.750005C0.375755 2.1875 0.0787548 2.513 0.0225048 2.93213L6.00001 7.52675L11.9775 2.93213C11.9213 2.513 11.6243 2.1875 11.25 2.1875Z" fill="#56A868"/>
<path d="M7.26751 7.60024L6.20626 8.41574C6.14326 8.46386 6.07201 8.48749 6.00001 8.48749C5.92801 8.48749 5.85676 8.46386 5.79376 8.41574L4.73251 7.59937L0.0240097 11.074C0.0817597 11.4896 0.37726 11.8125 0.75001 11.8125H11.25C11.6228 11.8125 11.9183 11.4896 11.976 11.074L7.26751 7.60024Z" fill="#56A868"/>
</g>
<defs>
<clipPath id="clip0">
<rect width="12" height="14" fill="white"/>
</clipPath>
</defs>
</svg>
