<?xml version="1.0" encoding="utf-8"?><svg xmlns="http://www.w3.org/2000/svg" xmlns:xlink="http://www.w3.org/1999/xlink"><symbol xml:space="preserve" id="logo" viewBox="0 0 6786.61 7096.56" shape-rendering="geometricPrecision" text-rendering="geometricPrecision" image-rendering="optimizeQuality" fill-rule="evenodd" clip-rule="evenodd" xmlns="http://www.w3.org/2000/svg"><defs><style>.afil0,.afil1{fill-rule:nonzero}.afil1{fill:#37460a}.afil0{fill:#9cbf2d}</style></defs><g id="aСлой_x0020_1"><g id="a_1289222912"><path class="afil0" d="M378.32 5460.83l-96.45 83.16-28.09 16.6 206.45 246.6c35.43 39.98 64.91 64.89 88.72 74.58v10.25l-17.44 1.51-36.39 1.65c-12.73 2.77-23.25 4.16-31.69 4.16-20.48 0-40.82-5.12-60.74-15.51-20.06-10.23-38.06-24.2-53.98-41.77l-193.3-233.58-2.5.82v148.07c0 30.99 1.39 55.07 4.03 71.95 2.77 16.87 7.19 29.48 13.41 37.91 6.51 8.3 15.65 13.69 27.54 16.18v10.11H1.25v-10.11c17.57-3.87 29.34-14.39 35.43-31.69 6.09-17.29 9.14-48.7 9.14-94.36v-307.2c0-46.23-3.05-78.05-9.14-95.63-6.09-17.57-17.86-27.67-35.43-30.44v-10.11h196.64v10.11c-16.73 2.77-28.36 13.14-34.87 31.27-6.78 17.86-10.11 49.4-10.11 94.8v99.77l10.11 2.07c131.6-153.88 209.5-231.79 233.58-233.72 24.09-2.08 70.58-4.02 139.76-5.95v20.35c-15.34-1.12-28.92 1.78-40.54 8.85l-117.48 119.29zm-225.43 148.19l1.67-1.93-1.67-2.06v4zm582.78-210.34v358.69c0 45.94 3.19 77.76 9.56 95.62 6.35 17.85 18.12 27.94 35.42 30.43v10.11H583.6v-10.11c17.57-3.87 29.48-14.39 35.7-31.69 6.23-17.29 9.28-48.84 9.28-94.5v-307.34c0-46.21-3.05-78.19-9.28-95.75-6.22-17.57-18.13-27.68-35.7-30.45v-9.7h195.39c31.82 0 58.11.84 79.02 2.64 20.75 1.8 38.61 4.99 53.28 9.55 14.67 4.58 28.37 11.2 41.1 19.92 46.49 28.39 69.74 74.32 69.74 137.83 0 36.54-8.86 68.65-26.57 96.31-17.72 27.68-41.1 48.98-70.43 63.65-29.34 14.81-60.89 22.15-94.66 22.15-15.07 0-28.51-1.11-40.13-3.33l-23.95-87.17h34.06c29.2 0 54.1-7.2 74.58-21.45 20.62-14.67 30.87-36.8 30.87-66.56 0-60.88-42.07-91.33-126.07-91.33-13.97 0-28.78.83-44.15 2.48zm655.71 358.69H1176.5l-31.15 70.56c-5.39 11.08-8.16 21.03-8.16 29.89 0 14.12 6.92 22.55 20.76 25.6l.41 10.11c-22.68-.56-52.99-.84-90.91-.84-39.99 0-66 .28-78.18.84v-10.11c10.23-4.28 18.14-10.23 23.53-17.69 5.39-7.34 14.11-23.95 26.29-49.56l242.02-534.55h14.25l243.27 541.33c14.53 32.24 30.18 52.3 47.05 60.47v10.11c-11.62-.56-36.68-.84-75.15-.84h-53.41c-12.17.56-23.25.84-33.22.84h-20.76v-10.11c14.95-3.87 22.29-13.56 22.29-29.2 0-6.21-2.08-16.04-6.51-29.6l-27.54-67.25zm-31.54-85.52l-74.58-182.81-75.85 182.81h150.43zM2066.36 5314v124.96h-9.68c-20.62-17.84-42.62-30.85-66.29-38.88-23.67-8.16-50.91-12.17-81.64-12.17-38.48 0-72.78 8.99-103.09 26.98-30.16 18-53.69 43.31-70.42 75.97-16.75 32.66-25.2 70.02-25.2 111.93 0 31.84 4.84 61.18 14.39 87.73 9.56 26.57 23.26 49.54 40.69 68.65 17.57 19.23 38.47 34.18 62.68 44.7 24.23 10.51 50.66 15.77 79.3 15.77 61.86 0 113.32-19.79 154.43-59.22l11.34 3.31-14.53 116.39c-51.07 18.95-102.95 28.36-155.26 28.36-44.7 0-85.8-7.47-123.29-22.54-37.64-14.95-69.89-35.98-97.01-63.11-26.97-27.24-47.86-59.49-62.67-97.14-14.81-37.49-22.15-78.46-22.15-122.74 0-44.01 7.06-84.69 21.18-121.9 13.97-37.36 34.19-69.74 60.2-97.28 26.15-27.53 57.14-48.85 92.71-63.8 35.7-15.08 74.58-22.54 116.79-22.54 13.83 0 29.75 1.92 47.88 5.81 34.59 7.46 57.83 12.17 69.88 14.25 12.03 2.07 20.34 3.05 24.9 3.05h6.5c6.23 0 11.76-2.21 16.6-6.51h11.76zm486.83 321.31h-247.41v122.06c0 29.2 1.37 52.44 4.02 69.74 2.77 17.29 7.32 30.3 13.56 39.29 6.37 8.86 15.09 14.53 26.15 17.02v10.11c-28.09-1.65-61.02-2.49-98.8-2.49-38.89 0-72.1.84-99.64 2.49v-10.11c11.34-2.21 20.34-7.32 26.99-15.63 6.62-8.16 11.34-21.03 13.97-38.33 2.77-17.29 4.14-41.24 4.14-72.09v-307.2c0-45.68-3.31-77.36-9.95-95.22-6.64-17.85-18.41-28.09-35.43-30.85v-10.11h45.38c18.97 1.67 37.51 2.49 55.63 2.49 18.42 0 36.4-.82 53.98-2.49h43.73v10.11c-16.46 2.77-27.83 13.42-34.18 32.24-6.36 18.68-9.55 49.96-9.55 93.69v94.78h247.41v-94.78c0-45.81-2.91-77.64-8.85-95.08-6.23-17.85-17.86-28.09-34.88-30.85v-10.11h43.73c19.11 1.67 37.64 2.49 55.49 2.49 18.28 0 36.68-.82 54.94-2.49h43.74v10.11c-16.75 2.77-28.52 13.42-35.28 32.1-6.79 18.54-10.11 49.96-10.11 93.97v307.2c0 43.17 3.46 74.02 10.37 92.57 6.92 18.55 18.69 29.61 35.42 33.48v10.11h-198.01v-10.11c11.62-2.49 20.62-7.89 26.99-16.18 6.36-8.44 10.64-21.18 13.14-38.2 2.22-17.29 3.32-41.24 3.32-71.67v-122.06zm518.33-337.91c45.1 0 86.48 7.32 124.12 22.13 37.63 14.67 70.02 35.56 97.01 62.55 27.12 26.98 48.02 59.23 62.68 96.58 14.81 37.5 22.13 78.6 22.13 123.44 0 44.28-7.2 85.24-21.45 122.73-14.95 37.64-35.82 70.16-62.95 97.69-26.98 27.26-59.23 48.44-96.31 63.39-37.21 15.07-77.91 22.54-122.04 22.54-45.12 0-86.91-7.47-125.11-22.26-38.34-14.81-71.25-36.12-99.08-63.67-27.66-27.53-49.12-60.05-64.07-97.69-15.09-37.49-22.55-78.46-22.55-122.73 0-45.4 7.32-86.64 21.85-123.71 14.67-37.22 35.71-69.47 63.11-96.73 27.52-27.26 60.05-48.15 97.68-62.81 37.77-14.27 79.44-21.45 124.97-21.45zm1.37 90.5c-37.91 0-71.8 9.13-101.84 27.54-30.03 18.39-53.42 44.26-70.16 77.34-16.59 33.08-24.9 70.71-24.9 112.64 0 42.19 8.17 79.42 24.63 111.94 16.33 32.51 39.31 57.57 68.92 75.41 29.74 17.86 63.38 26.85 101.01 26.85 27.8 0 53.56-5.26 77.08-15.77 23.79-10.39 44.41-25.19 61.84-44.42 17.57-19.39 31-42.35 40.7-69.07 9.53-26.69 14.39-55.75 14.39-87.45 0-31.68-4.72-60.6-13.99-86.75-9.4-26.29-22.69-48.99-39.85-68.22-17.15-19.23-37.63-34.04-61.3-44.41-23.67-10.39-49.12-15.64-76.53-15.64zm681.59 11.62c-20.07-2.21-35.57-3.19-46.63-3.19-36.82 0-67.81 6.92-93.12 21.03-25.34 13.98-37.91 37.5-37.91 70.72 0 31.26 11.62 54.65 34.73 70.3 23.11 15.76 50.09 23.52 81.22 23.52 9.69 0 19.23-.83 28.37-2.5l4.02 9.84-148.33 245.05c-15.65 25.88-30.87 43.32-45.4 52.31-14.67 8.99-34.32 13.57-59.23 13.57-13.28 0-39.3-2.22-78.18-6.64v-10.11c9.69-2.77 18-7.46 24.92-14.25 6.9-6.77 16.04-18.82 27.38-36.39l130.51-202.31c-75.3-25.87-112.93-76.24-112.93-151.1 0-30.59 7.06-57.85 21.04-82.06 14.11-24.22 34.17-42.76 60.46-55.77 18.14-10.24 38.06-17.43 59.93-21.45 21.99-4 51.47-6.09 88.42-6.09h213.64v10.11c-17.57 2.77-29.46 12.87-35.69 30.44-6.22 17.57-9.27 49.4-9.27 95.63v307.2c0 45.66 3.05 77.06 9.27 94.36 6.23 17.3 18.12 27.83 35.69 31.69v10.11h-197.18v-10.11c11.9-2.49 20.9-7.89 27.12-16.18 6.21-8.31 10.51-21.04 13.01-38.06 2.77-17.29 4.16-41.1 4.16-71.55v-358.11zm380.41-.84v358.69c0 45.94 3.19 77.76 9.56 95.62 6.35 17.85 18.12 27.94 35.42 30.43v10.11h-197.05v-10.11c17.57-3.87 29.48-14.39 35.7-31.69 6.23-17.29 9.28-48.84 9.28-94.5v-307.34c0-46.21-3.05-78.19-9.28-95.75-6.22-17.57-18.13-27.68-35.7-30.45v-9.7h195.39c31.82 0 58.11.84 79.02 2.64 20.75 1.8 38.61 4.99 53.28 9.55 14.67 4.58 28.37 11.2 41.1 19.92 46.49 28.39 69.74 74.32 69.74 137.83 0 36.54-8.86 68.65-26.57 96.31-17.72 27.68-41.1 48.98-70.44 63.65-29.33 14.81-60.88 22.15-94.65 22.15-15.07 0-28.51-1.11-40.13-3.33l-23.95-87.17h34.06c29.2 0 54.1-7.2 74.58-21.45 20.62-14.67 30.87-36.8 30.87-66.56 0-60.88-42.07-91.33-126.07-91.33-13.97 0-28.78.83-44.15 2.48zm801.93-84.68v124.96h-9.68c-20.62-17.84-42.62-30.85-66.29-38.88-23.67-8.16-50.91-12.17-81.64-12.17-38.48 0-72.78 8.99-103.09 26.98-30.16 18-53.69 43.31-70.42 75.97-16.75 32.66-25.2 70.02-25.2 111.93 0 31.84 4.84 61.18 14.39 87.73 9.56 26.57 23.26 49.54 40.69 68.65 17.57 19.23 38.47 34.18 62.68 44.7 24.23 10.51 50.66 15.77 79.3 15.77 61.86 0 113.32-19.79 154.43-59.22l11.34 3.31-14.53 116.39c-51.07 18.95-102.95 28.36-155.26 28.36-44.7 0-85.8-7.47-123.3-22.54-37.63-14.95-69.88-35.98-97-63.11-26.97-27.24-47.86-59.49-62.67-97.14-14.81-37.49-22.15-78.46-22.15-122.74 0-44.01 7.06-84.69 21.18-121.9 13.97-37.36 34.19-69.74 60.2-97.28 26.15-27.53 57.14-48.85 92.71-63.8 35.7-15.08 74.58-22.54 116.79-22.54 13.83 0 29.75 1.92 47.88 5.81 34.59 7.46 57.83 12.17 69.88 14.25 12.03 2.07 20.34 3.05 24.9 3.05h6.5c6.23 0 11.76-2.21 16.6-6.51h11.76zm453.66 146.83l-96.45 83.16-28.09 16.6 206.46 246.6c35.42 39.98 64.9 64.89 88.71 74.58v10.25l-17.43 1.51-36.4 1.65c-12.73 2.77-23.25 4.16-31.69 4.16-20.48 0-40.82-5.12-60.74-15.51-20.06-10.23-38.06-24.2-53.98-41.77l-193.29-233.58-2.51.82v148.07c0 30.99 1.39 55.07 4.03 71.95 2.77 16.87 7.2 29.48 13.42 37.91 6.5 8.3 15.64 13.69 27.54 16.18v10.11h-196.64v-10.11c17.56-3.87 29.33-14.39 35.42-31.69 6.09-17.29 9.14-48.7 9.14-94.36v-307.2c0-46.23-3.05-78.05-9.14-95.63-6.09-17.57-17.86-27.67-35.42-30.44v-10.11h196.64v10.11c-16.74 2.77-28.37 13.14-34.88 31.27-6.78 17.86-10.11 49.4-10.11 94.8v99.77l10.11 2.07c131.6-153.88 209.5-231.79 233.58-233.72 24.09-2.08 70.58-4.02 139.76-5.95v20.35c-15.34-1.12-28.92 1.78-40.54 8.85l-117.48 119.29zm-225.43 148.19l1.67-1.93-1.67-2.06v4zm475.57 312.73v-472.41c0-30.98-1.39-55.07-4.02-72.08-2.77-17.03-7.34-29.62-13.84-37.77-6.23-8.32-15.09-13.72-26.71-16.2v-10.09h196.63v10.09c-13.01 1.65-22.69 6.37-29.2 14.25-6.49 7.77-10.93 20.2-13.14 37.22-2.35 17.03-3.47 41.93-3.47 74.59v231.52l370.17-395.91h10.92v472.43c0 30.99 1.38 55.07 4.01 72.09 2.77 17.01 7.34 29.61 13.85 37.77 6.23 8.3 15.09 13.69 26.71 16.18v10.11h-196.64v-10.11c13-1.65 22.68-6.35 29.2-14.25 6.5-7.75 10.78-20.21 13.14-37.22 2.36-17.01 3.46-41.93 3.46-74.58v-231.51l-370.15 395.88h-10.92zm851.49-638.47c-15.63 0-30.44-2.08-44.15-6.22-13.84-4.3-25.87-9.83-36.1-16.88-10.25-6.92-18.56-15.22-24.78-24.78-6.23-9.69-9.42-19.92-9.68-30.99h47.45c.69 5.95 3.05 11.35 6.78 16.46 3.88 5.12 8.72 9.56 14.67 13.16 5.95 3.59 12.88 6.49 20.62 8.72 7.89 2.07 16.32 3.19 25.18 3.19s17.29-1.11 25.19-3.19c7.75-2.22 14.67-5.13 20.62-8.72 5.95-3.6 10.79-8.04 14.53-13.16 3.87-5.11 6.09-10.51 6.91-16.46h47.88c-.56 11.07-3.89 21.3-9.97 30.99-6.09 9.56-14.26 17.86-24.77 24.78-10.38 7.05-22.42 12.58-36.26 16.88-13.69 4.14-28.5 6.22-44.14 6.22zM6240 5921.74v-472.41c0-30.98-1.39-55.07-4.03-72.08-2.77-17.03-7.33-29.62-13.83-37.77-6.23-8.32-15.09-13.72-26.71-16.2v-10.09h196.62v10.09c-13 1.65-22.68 6.37-29.2 14.25-6.48 7.77-10.92 20.2-13.14 37.22-2.34 17.03-3.46 41.93-3.46 74.73v231.51l370.17-396.04h10.92v472.43c0 30.99 1.37 55.07 4.01 72.09 2.77 17.01 7.33 29.61 13.85 37.77 6.23 8.3 15.09 13.69 26.71 16.18v10.11h-196.64v-10.11c13-1.65 22.68-6.35 29.19-14.25 6.51-7.75 10.79-20.21 13.15-37.22 2.36-17.01 3.46-41.93 3.46-74.58v-231.23l-370.15 395.6H6240zM10.3 6679.65L0 6564.18l10.3-1.61c28.32 36.45 48.38 54.74 60.29 54.74 11.94 0 23.86-5.96 35.64-17.89 11.79-11.78 19.52-26.97 23.18-45.26 3.66-18.17 5.55-39.31 5.55-63v-235.93c0-46.89-3.12-78.88-9.35-95.82-6.22-17.07-18.43-26.42-36.71-27.92v-10.02h473.88v9.88c-16.39 2.72-27.91 13.16-34.7 31.44-6.76 18.17-10.16 48.93-10.16 92.01v300.85c0 42.26 3.4 72.48 10.16 90.65 6.79 18.15 18.31 28.99 34.7 32.78v9.9h-193.9v-9.9c11.37-2.43 20.18-7.72 26.41-15.85 6.23-8.27 10.44-20.59 12.88-37.25 2.17-16.95 3.26-40.39 3.26-70.21v-348.95h-167.5c-1.07 13.56-1.61 29.69-1.61 48.4l.8 239.84c.54 19.38.81 33.76.81 43.24 0 54.34-14.91 95.53-44.58 123.71-29.68 28.19-63.56 42.28-101.49 42.28-37.96 0-67.22-8.27-87.54-24.66zm737.73-333.77h96.07c28.61 0 49.61-3.11 63.16-9.36 13.42-6.23 23.16-17.2 28.99-33.2h8.68c-1.09 15.45-1.63 39.17-1.63 71.15 1.08 43.36 1.63 75.62 1.63 96.88l-9.08-.4c-4.75-15.45-13.84-26.15-27.24-32.24-13.42-6.11-34.29-9.08-62.87-9.08h-97.7v129.28c0 13.96 1.62 24.12 4.74 30.49 2.99 6.09 8.54 10.3 16.94 12.45 8.27 2.31 21.68 3.4 40.25 3.4h56.77c31.44 0 55.02-3.4 70.47-10.3 15.46-6.91 26.42-18.97 32.78-36.18l9.09 1.62-13.82 128.6H599.11v-9.9c17.21-3.8 28.87-14.08 34.96-31.03 6.09-16.92 9.08-47.68 9.08-92.4v-300.85c0-45.79-2.99-77.1-9.08-94.05-6.09-16.93-17.75-26.69-34.96-29.41v-9.88h369.27l.4 123.45h-13.54c-5.83-15.85-15.06-26.43-27.79-31.72-12.74-5.27-35.09-7.99-67.07-7.99H748.04v140.66zm727.04-224.41v122.35h-9.49c-20.2-17.46-41.74-30.2-64.92-38.07-23.16-8.01-49.87-11.92-79.95-11.92-37.67 0-71.28 8.81-100.96 26.41-29.53 17.63-52.56 42.42-68.98 74.41-16.39 31.98-24.66 68.58-24.66 109.62 0 31.18 4.75 59.91 14.1 85.93 9.35 26.01 22.75 48.51 39.85 67.21 17.2 18.83 37.66 33.46 61.38 43.76 23.71 10.3 49.6 15.45 77.64 15.45 60.57 0 110.98-19.36 151.23-57.99l11.11 3.26-14.23 113.98c-49.99 18.57-100.82 27.76-152.04 27.76-43.77 0-84.02-7.3-120.75-22.07-36.85-14.64-68.43-35.24-94.99-61.81-26.42-26.69-46.89-58.27-61.38-95.13-14.51-36.71-21.68-76.83-21.68-120.2 0-43.09 6.91-82.92 20.72-119.38 13.7-36.59 33.49-68.3 58.96-95.27 25.61-26.97 55.96-47.83 90.79-62.46 34.96-14.78 73.04-22.1 114.38-22.1 13.56 0 29.13 1.89 46.89 5.69 33.88 7.32 56.63 11.93 68.44 13.97 11.77 2.02 19.9 2.98 24.38 2.98h6.36c6.11 0 11.52-2.17 16.27-6.36h11.52zm333.25-16.27c44.18 0 84.69 7.18 121.56 21.68 36.85 14.37 68.56 34.84 94.99 61.26 26.57 26.42 47.01 57.99 61.39 94.59 14.49 36.72 21.67 76.96 21.67 120.87 0 43.38-7.04 83.49-21 120.2-14.63 36.87-35.09 68.72-61.66 95.68-26.41 26.69-57.99 47.43-94.31 62.07-36.46 14.77-76.3 22.07-119.53 22.07-44.18 0-85.11-7.3-122.49-21.81-37.55-14.5-69.8-35.36-97.04-62.33-27.09-26.96-48.1-58.81-62.73-95.68-14.77-36.71-22.09-76.82-22.09-120.2 0-44.45 7.18-84.83 21.42-121.14 14.35-36.46 34.95-68.03 61.78-94.73 26.97-26.69 58.82-47.15 95.67-61.53 36.99-13.96 77.79-21 122.37-21zm1.36 88.64c-37.13 0-70.34 8.95-99.74 26.95-29.41 18.03-52.3 43.38-68.72 75.76-16.25 32.38-24.4 69.26-24.4 110.3 0 41.34 8.01 77.8 24.14 109.65 15.99 31.83 38.47 56.37 67.47 73.85 29.13 17.48 62.07 26.28 98.93 26.28 27.24 0 52.44-5.15 75.48-15.45 23.32-10.16 43.5-24.65 60.57-43.5 17.22-18.97 30.36-41.46 39.85-67.61 9.36-26.15 14.09-54.61 14.09-85.65 0-31.02-4.61-59.35-13.68-84.96-9.22-25.76-22.23-47.97-39.03-66.8-16.8-18.85-36.87-33.34-60.05-43.51-23.16-10.16-48.1-15.31-74.92-15.31zm707.71 12.99h-242.3v348.95c0 28.61 1.35 51.22 3.93 68.17 2.72 16.92 7.18 29.8 13.28 38.49 6.23 8.67 14.78 14.22 25.62 16.65v9.9c-27.51-1.62-59.76-2.43-96.77-2.43-38.07 0-70.59.81-97.56 2.43v-9.9c11.12-2.16 19.93-7.17 26.43-15.31 6.51-7.99 11.1-20.59 13.68-37.53 2.72-16.93 4.08-40.39 4.08-70.59v-300.85c0-44.72-3.26-75.74-9.77-93.22-6.5-17.49-18.03-27.51-34.69-30.23v-9.88h545.03v9.88c-16.41 2.72-27.93 13.16-34.56 31.44-6.64 18.17-9.9 48.93-9.9 92.01v300.85c0 42.26 3.4 72.48 10.16 90.65 6.79 18.15 18.31 28.99 34.7 32.78v9.9h-193.9v-9.9c11.37-2.43 20.18-7.72 26.41-15.85 6.22-8.27 10.44-20.59 12.88-37.25 2.17-16.95 3.26-40.39 3.26-70.21v-348.95zm244.27 509.81v-462.63c0-30.36-1.35-53.94-3.93-70.61-2.72-16.66-7.18-29.01-13.56-36.99-6.09-8.13-14.77-13.42-26.15-15.85v-9.9h192.57v9.9c-12.75 1.62-22.22 6.23-28.6 13.96-6.36 7.58-10.7 19.79-12.88 36.45-2.29 16.67-3.39 41.06-3.39 73.04v226.71l362.5-387.71h10.7v462.65c0 30.34 1.35 53.92 3.93 70.59 2.72 16.66 7.18 29.01 13.56 36.99 6.09 8.14 14.77 13.42 26.15 15.85v9.9h-192.57v-9.9c12.75-1.62 22.24-6.23 28.61-13.96 6.37-7.58 10.56-19.78 12.87-36.45 2.31-16.67 3.39-41.05 3.39-73.02v-226.73l-362.5 387.71h-10.7zm796.26-160.72c0 30.36 1.34 53.8 3.92 70.47 2.72 16.66 7.32 29.01 13.7 36.99 6.5 8.13 16.13 13.28 28.87 15.71v9.9h-197.58v-9.9c11.92-2.43 20.86-7.58 26.83-15.44 5.96-8 9.9-20.06 12.05-36.45 2.17-16.4 3.26-40.12 3.26-71.28v-350.7h-40.92c-29.27 0-51.23 2.84-65.72 8.53-14.38 5.7-24.4 15.59-29.95 29.55h-11.52l11.52-121.82h385.65l11.12 121.82h-11.12c-6.62-14.22-16.92-24.26-30.88-29.81-14.1-5.55-35.51-8.27-64.38-8.27h-44.85v350.7zm449.95-450.72c44.19 0 84.69 7.18 121.56 21.68 36.85 14.37 68.56 34.84 94.99 61.26 26.57 26.42 47.01 57.99 61.39 94.59 14.49 36.72 21.67 76.96 21.67 120.87 0 43.38-7.04 83.49-21 120.2-14.63 36.87-35.09 68.72-61.66 95.68-26.41 26.69-57.99 47.43-94.31 62.07-36.45 14.77-76.3 22.07-119.53 22.07-44.18 0-85.1-7.3-122.49-21.81-37.55-14.5-69.8-35.36-97.04-62.33-27.09-26.96-48.1-58.81-62.72-95.68-14.78-36.71-22.1-76.82-22.1-120.2 0-44.45 7.18-84.83 21.42-121.14 14.36-36.46 34.96-68.03 61.78-94.73 26.97-26.69 58.82-47.15 95.67-61.53 36.99-13.96 77.79-21 122.37-21zm1.36 88.64c-37.13 0-70.33 8.95-99.74 26.95-29.41 18.03-52.3 43.38-68.72 75.76-16.25 32.38-24.4 69.26-24.4 110.3 0 41.34 8.01 77.8 24.14 109.65 15.99 31.83 38.48 56.37 67.48 73.85 29.13 17.48 62.06 26.28 98.92 26.28 27.24 0 52.44-5.15 75.48-15.45 23.32-10.16 43.51-24.65 60.57-43.5 17.22-18.97 30.37-41.46 39.85-67.61 9.36-26.15 14.1-54.61 14.1-85.65 0-31.02-4.62-59.35-13.68-84.96-9.23-25.76-22.24-47.97-39.04-66.8-16.8-18.85-36.86-33.34-60.04-43.51-23.17-10.16-48.1-15.31-74.93-15.31zm858.75-104.09h12.31l132.68 514.82c6.36 23.58 12.33 40.39 18.03 50.41 5.69 10.04 14.49 18.17 26.41 24.26v9.9c-6.09-.28-16.93-.54-32.52-.82h-61.24c-40.93 0-68.03.28-80.9.82v-9.9c16.93-5.01 25.34-17.21 25.34-36.58l-60.31-300.16-166 363.57h-13.02l-168.43-363.57-57.45 275.9c-3.54 15.73-5.15 26.17-5.15 31.44 0 15.59 7.3 25.35 22.21 29.41v9.9c-23.32-1.63-49.87-2.43-79.41-2.43-30.77 0-57.18.8-79.42 2.43v-9.9c8.68-3.26 15.33-6.91 19.8-11.1 4.47-4.48 8.67-11.94 12.59-22.1 3.8-10.16 8.67-26.29 14.78-48.23l126.29-508.05h11.11l189.44 412.37 192.84-412.37zm610.54 346.38h-242.3v119.53c0 28.59 1.36 51.34 3.94 68.3 2.71 16.92 7.18 29.66 13.28 38.49 6.22 8.67 14.77 14.22 25.61 16.65v9.9c-27.51-1.62-59.76-2.43-96.76-2.43-38.08 0-70.6.81-97.56 2.43v-9.9c11.11-2.16 19.92-7.17 26.43-15.31 6.5-7.99 11.1-20.59 13.68-37.53 2.71-16.93 4.07-40.39 4.07-70.59v-300.85c0-44.72-3.26-75.74-9.76-93.22-6.51-17.49-18.03-27.51-34.7-30.23v-9.88h44.46c18.57 1.61 36.71 2.43 54.48 2.43 18.03 0 35.64-.82 52.84-2.43h42.82v9.88c-16.13 2.72-27.23 13.16-33.48 31.58-6.23 18.29-9.35 48.92-9.35 91.73v92.83h242.3v-92.83c0-44.84-2.86-76.02-8.67-93.08-6.1-17.49-17.48-27.51-34.16-30.23v-9.88h42.82c18.71 1.61 36.85 2.43 54.34 2.43 17.89 0 35.91-.82 53.81-2.43h42.81v9.88c-16.4 2.72-27.93 13.16-34.55 31.44-6.65 18.17-9.91 48.93-9.91 92.01v300.85c0 42.26 3.4 72.48 10.17 90.65 6.78 18.15 18.3 28.99 34.69 32.78v9.9h-193.9v-9.9c11.38-2.43 20.18-7.72 26.41-15.85 6.23-8.27 10.44-20.72 12.88-37.39 2.17-16.95 3.26-40.39 3.26-70.19v-119.53zm228.93 280.51v-462.63c0-30.36-1.36-53.94-3.94-70.61-2.71-16.66-7.18-29.01-13.55-36.99-6.09-8.13-14.78-13.42-26.15-15.85v-9.9h192.56v9.9c-12.74 1.62-22.21 6.23-28.59 13.96-6.37 7.58-10.7 19.79-12.88 36.45-2.29 16.67-3.4 41.06-3.4 73.04v226.71l362.5-387.71h10.7v462.65c0 30.34 1.36 53.92 3.94 70.59 2.72 16.66 7.18 29.01 13.56 36.99 6.08 8.14 14.77 13.42 26.15 15.85v9.9h-192.57v-9.9c12.74-1.62 22.23-6.23 28.61-13.96 6.37-7.58 10.56-19.78 12.86-36.45 2.31-16.67 3.4-41.05 3.4-73.02v-226.73l-362.5 387.71h-10.7zm912.07-451.39l-94.45 81.45-27.51 16.25 202.19 241.48c34.7 39.17 63.55 63.57 86.86 73.04v10.03l-17.06 1.49-35.66 1.61c-12.45 2.72-22.75 4.08-31.02 4.08-20.06 0-39.99-5.01-59.49-15.18-19.65-10.02-37.27-23.71-52.84-40.92l-189.31-228.74-2.43.8v145.02c0 30.34 1.35 53.92 3.93 70.45 2.7 16.54 7.05 28.87 13.14 37.13 6.37 8.14 15.31 13.42 26.97 15.85v9.9h-192.57v-9.9c17.21-3.8 28.73-14.08 34.7-31.03 5.95-16.92 8.95-47.68 8.95-92.4v-300.85c0-45.26-3-76.42-8.95-93.63-5.97-17.21-17.48-27.11-34.7-29.83v-9.88h192.57v9.88c-16.41 2.72-27.78 12.88-34.16 30.63-6.63 17.48-9.88 48.39-9.88 92.82v97.7l9.88 2.03c128.88-150.68 205.17-226.98 228.74-228.88 23.58-2.03 69.12-3.93 136.87-5.82v19.92c-15.03-1.08-28.31 1.75-39.71 8.69l-115.05 116.8zm-220.74 145.14l1.61-1.89-1.61-2.04v3.94z"/><path class="afil1" d="M76.44 6973.35c0 22.67 3.85 40.07 11.5 52.08 7.68 12 18.91 18.04 33.76 18.04 14.63 0 25.44-5.48 32.44-16.4 7.01-10.93 10.5-28.11 10.5-51.5 0-22-3.71-38.88-11.07-50.71-7.41-11.79-18.85-17.72-34.31-17.72-14.99 0-25.88 5.48-32.66 16.44-6.78 10.96-10.16 27.54-10.16 49.77zm123.9-1.46c0 24.54-7.22 44.29-21.69 59.2-14.48 14.93-34.63 22.39-60.44 22.39-24.71 0-43.81-6.89-57.26-20.69-13.47-13.78-20.22-32.43-20.22-55.99 0-24.54 7.26-43.96 21.8-58.23 14.57-14.3 34.67-21.45 60.37-21.45 24.67 0 43.78 6.68 57.22 20.05 13.47 13.4 20.22 31.61 20.22 54.72zm109.35-8.13c20.08 0 34.42 3.24 42.94 9.73 8.56 6.49 12.84 16.18 12.84 29.04 0 15.31-5.62 27.11-16.82 35.34-11.22 8.25-27.52 12.35-48.93 12.35-4.11 0-8.76-.12-13.98-.36-5.2-.26-10.85-.4-16.91-.4-9.66 0-19.31.1-29.04.33l-.44-5.24 14.17-3.92c1.84-.57 2.79-1.66 2.86-3.31.07-2.84.15-6.01.19-9.58.03-3.56.03-7.43.03-11.68v-84.67c0-3.57 0-6.8-.03-9.69-.04-2.91-.12-5.6-.19-7.99-.07-1.86-.91-3.02-2.55-3.54l-14.25-4.12-.33-5.45c9.94.28 19.39.44 28.35.44h30.88c17.38 0 35.31-.16 53.83-.44l.72.87-7.21 38.72-5.41.87-7.99-29.13h-44.03v52.64c7.36-.53 14.44-.83 21.3-.83zm-21.3 75.61c4.65.83 9.12 1.26 13.37 1.26 10.3 0 17.69-2.84 22.27-8.49 4.54-5.67 6.81-14.13 6.81-25.37 0-11.19-2.13-19.42-6.41-24.76-4.25-5.33-11.97-8.03-23.12-8.03-3.6 0-7.92.3-12.93.87v64.51zm315.7-21.23c0 7.87.09 13.42.23 16.68.14 2 .9 2.98 2.31 2.98h20.44l.61.77-6.45 56.82-7.55 1.17-10.02-47H430.22c-8.24 0-17.12.07-26.71.23l-.54-5.24 14.59-4.14c1.63-.51 2.46-1.7 2.54-3.62.16-4.69.23-10.57.23-17.68v-84.74c0-8.32-.07-15.33-.23-21.09-.07-1.63-1.01-2.73-2.86-3.31l-13.94-3.91-.33-5.45c10.1.28 21.06.44 32.96.44 11.61 0 21.44-.16 29.47-.44l.52 5.45-11.8 3.62c-1.86.54-2.8 1.77-2.87 3.71-.14 5.65-.23 12.67-.23 20.93v103.47h45.95v-103.47c0-8.27-.07-15.31-.2-21.04-.09-1.79-1.03-2.98-2.88-3.6l-11.59-3.62-.31-5.45c8.5.28 18.73.44 30.66.44 11.66 0 21.45-.16 29.37-.44l.54 5.45-11.79 3.62c-1.77.54-2.69 1.77-2.77 3.71-.21 5.65-.32 12.67-.32 20.93v103.47h45.73v-103.47c0-8.27-.07-15.28-.22-20.93-.07-1.93-.98-3.17-2.76-3.71l-11.69-3.62-.33-5.45c8.29.28 18.28.44 29.88.44 11.9 0 22.72-.16 32.52-.44l.53 5.45-14.14 3.91c-1.86.58-2.81 1.67-2.88 3.31-.14 5.73-.23 12.78-.23 21.04v83.82zm85.48-117.08h26.81c17.24 0 35.09-.16 53.61-.44l.73.87-6.61 35.37-5.74.84-6.78-25.75h-41.15v56.39h5.74c6.15 0 12.81-.07 19.89-.23 1.84-.07 3.05-1 3.62-2.86l3.81-14.56 7.01-.33c-.19 10.28-.3 17.98-.3 23.09 0 4.98.11 12.56.3 22.77l-7.01.54-3.92-14.99c-.57-1.92-1.66-2.91-3.31-2.97-7.21-.16-13.97-.23-20.21-.23h-5.62v36.47c0 7.82.07 15.54.22 23.2h42.52l13.41-27.95 6.48-.98-2.58 39.82-.73.76c-17.65-.22-34.83-.33-51.57-.33h-28.12c-9.12 0-18.52.07-28.25.23l-.53-5.24 14.27-3.92c1.77-.5 2.71-1.59 2.85-3.31.07-2.84.16-6.01.19-9.55.04-3.48.04-7.36.04-11.64v-84.74c0-3.57 0-6.8-.04-9.69-.03-2.91-.12-5.6-.19-7.99-.07-1.86-.9-3.02-2.54-3.54l-14.25-4.12-.33-5.45c9.93.28 19.35.44 28.28.44zm235.82 39.84l-5.84.94-8.1-30.52c-5.58-1.77-11.63-2.65-18.18-2.65-15.65 0-27.77 5.88-36.33 17.64-8.6 11.71-12.88 27.11-12.88 46.13 0 20.32 5.04 36.5 15.17 48.55 10.07 12.09 24.1 18.11 42.02 18.11 10.02 0 20.55-2.03 31.58-6.08l1.37 6.05c-14.17 9.62-30.21 14.41-48.07 14.41-23.16 0-41.88-6.99-56.18-20.97-14.25-13.97-21.4-32.37-21.4-55.21 0-24.34 7.83-43.62 23.48-57.81 15.67-14.19 36.12-21.27 61.33-21.27 12.49 0 25.27 1.46 38.3 4.36l.64 1.09-6.92 37.23zm90.26 108.56c-12.47 0-24.4.1-35.71.33l-.55-5.24 17.03-4.68c1.77-.57 2.68-1.7 2.75-3.41.14-5.31.23-12.16.23-20.55v-103.97h-30.64L959 6940.2l-5.95.99-2.76-39.71.72-.87c17.41.28 34.12.44 50.09.44h29.65c15.97 0 32.76-.16 50.41-.44l.66.87-7.04 38.84-5.95.97-6.89-29.35h-30.74v103.97c0 8.39.07 15.24.2 20.55.09 1.7 1.03 2.84 2.88 3.41l16.7 4.68.31 5.24c-11.74-.23-23.66-.33-35.63-.33zm108.88-148.84c9.93.28 20.13.44 30.62.44 3.85-.16 9.85-.37 18.01-.66 8.17-.28 13.75-.44 16.81-.44 17.93 0 31.46 2.91 40.58 8.69 9.1 5.75 13.68 14.08 13.68 24.9 0 17.01-10.06 28.78-30.21 35.27 11.69 1.63 20.69 5.74 27.03 12.26 6.32 6.52 9.49 14.7 9.49 24.5 0 14.2-5.71 25.2-17.14 33-11.39 7.76-27.54 11.65-48.44 11.65-4.15 0-8.43-.12-12.94-.36-4.49-.26-10.12-.4-16.87-.4-10.34 0-20.36.1-30.09.33l-.53-5.24 14.27-3.92c1.77-.5 2.72-1.59 2.85-3.31.07-2.84.16-6.01.2-9.55.03-3.48.03-7.36.03-11.64v-84.74c0-3.57 0-6.8-.03-9.69-.04-2.91-.13-5.6-.2-7.99-.07-1.86-.9-3.02-2.54-3.54l-14.25-4.12-.33-5.45zm49.14 75.24v63.85c3.95.6 8.13.93 12.49.93 9.67 0 17.01-2.84 22.02-8.49 4.99-5.67 7.5-13.87 7.5-24.61 0-10.75-2.55-18.74-7.63-23.96-5.08-5.22-13.32-7.85-24.68-7.85-3.3 0-6.52.05-9.72.12zm0-9.59c3.64.07 7.04.11 10.3.11 9.08 0 15.83-2.17 20.18-6.53 4.35-4.4 6.54-11.76 6.54-22.21 0-9.76-2.26-16.79-6.75-21.04-4.5-4.26-10.99-6.4-19.54-6.4-1.34 0-2.94.04-4.71.16-1.81.1-3.82.33-6.02.61v55.31zm151.08 7.08c0 22.67 3.85 40.07 11.5 52.08 7.68 12 18.92 18.04 33.76 18.04 14.64 0 25.44-5.48 32.45-16.4 7.01-10.93 10.49-28.11 10.49-51.5 0-22-3.71-38.88-11.06-50.71-7.41-11.79-18.85-17.72-34.32-17.72-14.98 0-25.87 5.48-32.65 16.44-6.79 10.96-10.17 27.54-10.17 49.77zm123.91-1.46c0 24.54-7.22 44.29-21.7 59.2-14.48 14.93-34.63 22.39-60.43 22.39-24.71 0-43.82-6.89-57.26-20.69-13.47-13.78-20.22-32.43-20.22-55.99 0-24.54 7.25-43.96 21.8-58.23 14.56-14.3 34.66-21.45 60.36-21.45 24.67 0 43.78 6.68 57.23 20.05 13.47 13.4 20.22 31.61 20.22 54.72zm209.07-30.99l-5.84.94-8.1-30.52c-5.58-1.77-11.64-2.65-18.19-2.65-15.64 0-27.76 5.88-36.32 17.64-8.6 11.71-12.89 27.11-12.89 46.13 0 20.32 5.05 36.5 15.18 48.55 10.07 12.09 24.1 18.11 42.02 18.11 10.02 0 20.54-2.03 31.57-6.08l1.38 6.05c-14.17 9.62-30.21 14.41-48.07 14.41-23.16 0-41.88-6.99-56.18-20.97-14.25-13.97-21.4-32.37-21.4-55.21 0-24.34 7.83-43.62 23.47-57.81 15.68-14.19 36.13-21.27 61.34-21.27 12.49 0 25.26 1.46 38.3 4.36l.64 1.09-6.92 37.23zm131.81 32.45c0 22.67 3.85 40.07 11.5 52.08 7.67 12 18.91 18.04 33.76 18.04 14.63 0 25.43-5.48 32.44-16.4 7.01-10.93 10.49-28.11 10.49-51.5 0-22-3.7-38.88-11.06-50.71-7.41-11.79-18.85-17.72-34.32-17.72-14.98 0-25.87 5.48-32.65 16.44-6.78 10.96-10.16 27.54-10.16 49.77zm123.9-1.46c0 24.54-7.22 44.29-21.7 59.2-14.47 14.93-34.62 22.39-60.43 22.39-24.71 0-43.81-6.89-57.26-20.69-13.47-13.78-20.22-32.43-20.22-55.99 0-24.54 7.25-43.96 21.8-58.23 14.57-14.3 34.66-21.45 60.36-21.45 24.68 0 43.79 6.68 57.23 20.05 13.47 13.4 20.22 31.61 20.22 54.72zm88.04 44.29c0 8.35.07 15.2.22 20.51.07 1.7.98 2.82 2.76 3.41l15.64 4.46.3 5.24c-10.96-.23-22.43-.33-34.39-.33-12.21 0-23.27.1-33.13.33l-.54-5.24 14.27-3.92c1.84-.57 2.79-1.66 2.86-3.31.15-5.77.22-12.81.22-21.19v-84.74c0-3.57 0-6.8-.03-9.69-.04-2.91-.12-5.6-.19-7.99-.07-1.86-.91-3.02-2.55-3.54l-14.25-4.12-.33-5.45c9.93.28 19.35.44 28.28.44h25.33c17.15 0 35.01-.16 53.6-.44l.62.87-7.44 40.98-5.41.83-8.53-31.35h-37.3v104.23zm142.33-39.21c4.07.77 8.1 1.17 12.09 1.17 9.33 0 16.42-2.88 21.3-8.57 4.9-5.7 7.32-14.34 7.32-25.87 0-11.22-2.31-19.58-6.92-25.06-4.65-5.48-11.94-8.23-21.93-8.23-3.91 0-7.88.29-11.86.83v65.72zm0 39.17c0 4.25 0 8.1.04 11.43.03 3.38.1 6.42.19 9.12.07 1.62.97 2.75 2.75 3.41l15.64 4.46.3 5.24c-10.96-.23-22.43-.33-34.39-.33-12.36 0-23.4.1-33.13.33l-.54-5.24 14.27-3.92c1.84-.57 2.79-1.66 2.86-3.31.07-2.84.15-6.01.19-9.55.03-3.48.03-7.36.03-11.64v-84.74c0-3.57 0-6.8-.03-9.69-.04-2.91-.12-5.6-.19-7.99-.07-1.86-.91-3.02-2.55-3.54l-14.25-4.12-.33-5.45c9.94.28 19.78.44 29.51.44 6.63 0 13.14-.16 19.42-.44 6.26-.29 12-.43 17.19-.43 19.18 0 33.69 3.31 43.56 9.93 9.88 6.65 14.8 16.48 14.8 29.52 0 15.41-5.15 27.36-15.41 35.93-10.28 8.52-24.8 12.81-43.49 12.81-5.04 0-10.52-.4-16.44-1.15v28.92zm125.13-13.83l-7.55 19.89c-1.49 3.93-2.63 7.04-3.45 9.45-.8 2.34-1.23 4.16-1.23 5.48 0 1.18.31 2.1.97 2.75.61.62 1.63 1.13 2.98 1.49l10.2 2.98.33 5.45c-10.27-.23-18.66-.33-25.13-.33-6.69 0-14.41.1-23.04.33l-.54-5.24 11.4-3.41c2.68-.77 4.64-2.07 5.95-3.89 1.26-1.8 2.68-4.54 4.24-8.25l52.95-129.06 11.46-1.7 45.83 129.39c1.79 4.98 3.38 8.32 4.84 10.06 1.44 1.73 3.52 2.98 6.24 3.78l10.41 3.08.29 5.24c-9.55-.23-19.19-.33-28.88-.33-12.87 0-25.37.1-37.57.33l-.5-5.24 10.53-3.08c1.4-.44 2.41-.94 3.08-1.6.61-.64.94-1.6.94-2.88 0-1.4-.37-3.31-1.04-5.58-.73-2.31-1.76-5.34-3.11-9.1l-6.99-20.01h-43.62zm22.97-61.08c-1.27 3.66-2.65 7.51-4.14 11.47l-14.58 38.51h35.53l-13.08-38.41c-1.33-4.02-2.61-7.92-3.74-11.57zm160.09 35.38v39.53c0 8.36.06 15.35.22 20.99.07 1.94.97 3.22 2.75 3.69l12.34 3.74.33 5.24c-8.83-.23-19.16-.33-31.11-.33-12.21 0-23.27.1-33.14.33l-.54-5.24 14.27-3.92c1.85-.57 2.79-1.66 2.86-3.31.16-5.77.23-12.81.23-21.19v-84.74c0-7.11-.07-13-.23-17.67-.07-1.86-.9-3.02-2.54-3.54l-14.26-4.12-.33-5.45c9.87.28 20.76.44 32.69.44 12.3 0 22.8-.16 31.43-.44l.66 5.45-12.68 3.58c-1.77.51-2.68 1.6-2.75 3.31-.16 5.08-.22 11.07-.22 17.93v34.42h63.58v-34.42c0-6.85-.07-12.85-.21-17.93-.07-1.7-.97-2.8-2.77-3.31l-12.44-3.58-.33-5.45c9 .28 19.65.44 31.91.44 11.97 0 22.78-.16 32.43-.44l.56 5.45-14.5 4.12c-1.61.52-2.5 1.67-2.65 3.54-.14 4.68-.21 10.56-.21 17.67v84.74c0 8.39.07 15.42.21 21.19.14 1.64 1.13 2.74 2.98 3.31l13.84 3.92.33 5.24c-10.16-.23-21.35-.33-33.62-.33-11.97 0-22.24.1-30.75.33l-.54-5.24 12.78-3.74c1.79-.47 2.7-1.74 2.77-3.69.14-5.64.21-12.63.21-20.99v-39.53h-63.58zm199.52 20.77l64.89-68.39c0-6.01-.07-11.36-.21-16.04-.07-1.7-1.01-2.8-2.88-3.31l-12.33-3.58-.33-5.45c9.01.28 19.64.44 31.91.44 11.97 0 22.75-.16 32.32-.44l.63 5.45-14.57 4.12c-1.63.52-2.46 1.67-2.54 3.54-.14 4.68-.21 10.56-.21 17.67v84.74c0 8.39.07 15.42.21 21.19.07 1.64 1.02 2.74 2.87 3.31l13.94 3.92.3 5.24c-10.13-.23-21.31-.33-33.59-.33-11.97 0-22.23.1-30.73.33l-.55-5.24 12.67-3.74c1.86-.47 2.81-1.74 2.88-3.69.14-5.64.21-12.6.21-20.99v-69.58l-64.89 68.45c0 9.12.07 16.48.22 22.06.07 2 .98 3.24 2.76 3.75l12.33 3.74.33 5.24c-8.82-.23-19.16-.33-31.11-.33-12.21 0-23.27.1-33.13.33l-.54-5.24 14.27-3.92c1.84-.57 2.79-1.66 2.86-3.31.15-5.77.22-12.81.22-21.19v-84.74c0-7.11-.07-13-.22-17.67-.07-1.86-.91-3.02-2.55-3.54l-14.25-4.12-.33-5.45c9.86.28 20.75.44 32.69.44 12.3 0 22.8-.16 31.42-.44l.66 5.45-12.67 3.62c-1.77.47-2.69 1.6-2.76 3.27-.15 5.12-.22 11.1-.22 17.96v66.47zm194.6-66.5v13.73c0 10.67 1.99 18.15 6.02 22.39 4 4.25 10.02 6.35 18.04 6.35 7.96 0 15.91-.99 23.84-2.98v-39.5c0-6.85-.07-12.85-.2-17.93-.07-1.7-.98-2.8-2.78-3.31l-12.33-3.58-.43-5.45c9 .28 19.68.44 31.98.44 11.93 0 22.66-.16 32.25-.44l.54 5.45-14.48 4.12c-1.63.52-2.46 1.67-2.54 3.54-.14 4.68-.21 10.56-.21 17.67v84.74c0 8.39.07 15.42.21 21.19.07 1.64 1 2.74 2.87 3.31l13.84 3.92.31 5.24c-10.09-.23-21.26-.33-33.57-.33-11.93 0-23.09.1-33.43.33l-.54-5.24 15.52-4.35c1.79-.66 2.71-1.89 2.78-3.74.13-5.19.2-12.01.2-20.4v-35.89c-14.61 4.61-28.34 6.88-41.18 6.88-12.9 0-22.53-3.08-28.92-9.29-6.4-6.19-9.59-15.54-9.59-27.98v-18.49c0-7.06-.07-12.95-.23-17.58-.07-1.86-.9-3.02-2.54-3.54l-14.38-4.12-.27-5.45c9.9.28 20.86.44 32.83.44 12.26 0 22.35-.16 30.31-.44l.62 5.45-11.58 3.58c-1.78.51-2.69 1.6-2.76 3.31-.15 5.08-.22 11.07-.22 17.93zm163.05-29.82h26.81c17.24 0 35.1-.16 53.62-.44l.72.87-6.6 35.37-5.75.84-6.78-25.75h-41.15v56.39h5.74c6.16 0 12.81-.07 19.89-.23 1.84-.07 3.05-1 3.62-2.86l3.82-14.56 7.01-.33c-.2 10.28-.3 17.98-.3 23.09 0 4.98.1 12.56.3 22.77l-7.01.54-3.92-14.99c-.57-1.92-1.67-2.91-3.31-2.97-7.22-.16-13.97-.23-20.22-.23h-5.62v36.47c0 7.82.07 15.54.23 23.2h42.52l13.4-27.95 6.49-.98-2.58 39.82-.73.76c-17.66-.22-34.84-.33-51.57-.33h-28.13c-9.12 0-18.51.07-28.24.23l-.54-5.24 14.27-3.92c1.77-.5 2.72-1.59 2.86-3.31.07-2.84.16-6.01.19-9.55.04-3.48.04-7.36.04-11.64v-84.74c0-3.57 0-6.8-.04-9.69-.03-2.91-.12-5.6-.19-7.99-.07-1.86-.9-3.02-2.55-3.54l-14.25-4.12-.33-5.45c9.94.28 19.35.44 28.28.44zm171.25 75.55v39.53c0 8.36.07 15.35.23 20.99.07 1.94.97 3.22 2.75 3.69l12.34 3.74.33 5.24c-8.83-.23-19.16-.33-31.11-.33-12.21 0-23.27.1-33.14.33l-.54-5.24 14.27-3.92c1.84-.57 2.79-1.66 2.86-3.31.16-5.77.23-12.81.23-21.19v-84.74c0-7.11-.07-13-.23-17.67-.07-1.86-.9-3.02-2.54-3.54l-14.26-4.12-.33-5.45c9.87.28 20.76.44 32.69.44 12.3 0 22.8-.16 31.43-.44l.66 5.45-12.68 3.58c-1.77.51-2.68 1.6-2.75 3.31-.16 5.08-.23 11.07-.23 17.93v34.42h63.59v-34.42c0-6.85-.07-12.85-.21-17.93-.07-1.7-.97-2.8-2.77-3.31l-12.44-3.58-.33-5.45c9 .28 19.65.44 31.91.44 11.97 0 22.78-.16 32.43-.44l.56 5.45-14.5 4.12c-1.61.52-2.5 1.67-2.65 3.54-.14 4.68-.21 10.56-.21 17.67v84.74c0 8.39.07 15.42.21 21.19.14 1.64 1.13 2.74 2.98 3.31l13.84 3.92.33 5.24c-10.16-.23-21.35-.33-33.62-.33-11.97 0-22.24.1-30.75.33l-.54-5.24 12.78-3.74c1.79-.47 2.7-1.74 2.77-3.69.14-5.64.21-12.63.21-20.99v-39.53h-63.59zm199.53 0v39.53c0 8.36.07 15.35.22 20.99.07 1.94.98 3.22 2.76 3.69l12.33 3.74.33 5.24c-8.83-.23-19.16-.33-31.11-.33-12.21 0-23.27.1-33.14.33l-.53-5.24 14.27-3.92c1.84-.57 2.78-1.66 2.85-3.31.16-5.77.23-12.81.23-21.19v-84.74c0-7.11-.07-13-.23-17.67-.07-1.86-.9-3.02-2.54-3.54l-14.25-4.12-.33-5.45c9.86.28 20.75.44 32.69.44 12.29 0 22.8-.16 31.42-.44l.66 5.45-12.67 3.58c-1.77.51-2.69 1.6-2.76 3.31-.15 5.08-.22 11.07-.22 17.93v34.42h63.58v-34.42c0-6.85-.07-12.85-.21-17.93-.07-1.7-.97-2.8-2.77-3.31l-12.43-3.58-.33-5.45c8.99.28 19.64.44 31.9.44 11.97 0 22.79-.16 32.43-.44l.56 5.45-14.5 4.12c-1.61.52-2.5 1.67-2.65 3.54-.13 4.68-.2 10.56-.2 17.67v84.74c0 8.39.07 15.42.2 21.19.14 1.64 1.13 2.74 2.98 3.31l13.84 3.92.33 5.24c-10.16-.23-21.35-.33-33.62-.33-11.97 0-22.23.1-30.75.33l-.53-5.24 12.77-3.74c1.79-.47 2.7-1.74 2.77-3.69.14-5.64.21-12.63.21-20.99v-39.53h-63.58zm187.33-3.26c0 22.67 3.84 40.07 11.5 52.08 7.67 12 18.91 18.04 33.75 18.04 14.64 0 25.44-5.48 32.45-16.4 7.01-10.93 10.49-28.11 10.49-51.5 0-22-3.71-38.88-11.06-50.71-7.41-11.79-18.85-17.72-34.32-17.72-14.98 0-25.87 5.48-32.65 16.44-6.78 10.96-10.16 27.54-10.16 49.77zm123.9-1.46c0 24.54-7.22 44.29-21.7 59.2-14.48 14.93-34.62 22.39-60.43 22.39-24.71 0-43.82-6.89-57.26-20.69-13.47-13.78-20.22-32.43-20.22-55.99 0-24.54 7.25-43.96 21.8-58.23 14.57-14.3 34.66-21.45 60.36-21.45 24.68 0 43.79 6.68 57.23 20.05 13.47 13.4 20.22 31.61 20.22 54.72zm88.04 25.49l64.89-68.39c0-6.01-.07-11.36-.21-16.04-.07-1.7-1.01-2.8-2.88-3.31l-12.33-3.58-.33-5.45c9.01.28 19.65.44 31.91.44 11.97 0 22.75-.16 32.32-.44l.63 5.45-14.57 4.12c-1.63.52-2.46 1.67-2.54 3.54-.14 4.68-.21 10.56-.21 17.67v84.74c0 8.39.07 15.42.21 21.19.07 1.64 1.02 2.74 2.87 3.31l13.94 3.92.3 5.24c-10.13-.23-21.31-.33-33.59-.33-11.96 0-22.23.1-30.72.33l-.56-5.24 12.67-3.74c1.86-.47 2.81-1.74 2.88-3.69.14-5.64.21-12.6.21-20.99v-69.58l-64.89 68.45c0 9.12.07 16.48.22 22.06.07 2 .98 3.24 2.76 3.75l12.33 3.74.33 5.24c-8.82-.23-19.16-.33-31.11-.33-12.21 0-23.27.1-33.13.33l-.54-5.24 14.27-3.92c1.84-.57 2.79-1.66 2.86-3.31.15-5.77.22-12.81.22-21.19v-84.74c0-7.11-.07-13-.22-17.67-.07-1.86-.91-3.02-2.55-3.54l-14.25-4.12-.33-5.45c9.86.28 20.76.44 32.69.44 12.3 0 22.8-.16 31.42-.44l.66 5.45-12.67 3.62c-1.77.47-2.69 1.6-2.76 3.27-.15 5.12-.22 11.1-.22 17.96v66.47zm46.7-140.28c3.43-1.77 6.97-2.65 10.65-2.65 4.45 0 7.76 1.15 9.86 3.52 2.14 2.31 3.21 5.34 3.21 8.93 0 7.11-3.71 12.52-11.15 16.18-7.43 3.71-16.44 5.55-27.01 5.55-10.56 0-19.52-1.84-26.81-5.55-7.28-3.66-10.92-9.07-10.92-16.18 0-3.59 1.06-6.61 3.17-8.93 2.13-2.36 5.43-3.52 9.9-3.52 3.74 0 7.29.87 10.63 2.65v16.11c0 3.88 4.84 5.84 14.44 5.84 9.37 0 14.05-1.96 14.05-5.84v-16.11zm194.13 116.25c0 22.67 3.85 40.07 11.5 52.08 7.67 12 18.91 18.04 33.76 18.04 14.63 0 25.43-5.48 32.44-16.4 7.01-10.93 10.49-28.11 10.49-51.5 0-22-3.7-38.88-11.06-50.71-7.41-11.79-18.85-17.72-34.32-17.72-14.98 0-25.87 5.48-32.65 16.44-6.78 10.96-10.16 27.54-10.16 49.77zm123.9-1.46c0 24.54-7.22 44.29-21.7 59.2-14.47 14.93-34.62 22.39-60.43 22.39-24.71 0-43.81-6.89-57.26-20.69-13.47-13.78-20.22-32.43-20.22-55.99 0-24.54 7.25-43.96 21.8-58.23 14.57-14.3 34.66-21.45 60.36-21.45 24.68 0 43.79 6.68 57.23 20.05 13.47 13.4 20.22 31.61 20.22 54.72zm81.62 77.57c-12.47 0-24.4.1-35.7.33l-.56-5.24 17.03-4.68c1.77-.57 2.69-1.7 2.76-3.41.14-5.31.22-12.16.22-20.55v-103.97h-30.64l-9.76 28.26-5.95.99-2.75-39.71.71-.87c17.41.28 34.12.44 50.09.44h29.66c15.97 0 32.75-.16 50.4-.44l.66.87-7.04 38.84-5.95.97-6.89-29.35h-30.74v103.97c0 8.39.07 15.24.21 20.55.08 1.7 1.02 2.84 2.87 3.41l16.7 4.68.32 5.24c-11.75-.23-23.67-.33-35.64-.33zm108.88-148.84c9.93.28 20.13.44 30.62.44 3.85-.16 9.85-.37 18.02-.66 8.16-.28 13.75-.44 16.8-.44 17.93 0 31.46 2.91 40.58 8.69 9.1 5.75 13.68 14.08 13.68 24.9 0 17.01-10.06 28.78-30.21 35.27 11.69 1.63 20.69 5.74 27.04 12.26 6.31 6.52 9.48 14.7 9.48 24.5 0 14.2-5.7 25.2-17.13 33-11.4 7.76-27.54 11.65-48.45 11.65-4.14 0-8.42-.12-12.93-.36-4.49-.26-10.13-.4-16.88-.4-10.33 0-20.36.1-30.08.33l-.54-5.24 14.27-3.92c1.77-.5 2.72-1.59 2.86-3.31.07-2.84.15-6.01.19-9.55.03-3.48.03-7.36.03-11.64v-84.74c0-3.57 0-6.8-.03-9.69-.04-2.91-.12-5.6-.19-7.99-.07-1.86-.91-3.02-2.55-3.54l-14.25-4.12-.33-5.45zm49.14 75.24v63.85c3.95.6 8.13.93 12.49.93 9.67 0 17.01-2.84 22.02-8.49 5-5.67 7.5-13.87 7.5-24.61 0-10.75-2.55-18.74-7.63-23.96-5.08-5.22-13.31-7.85-24.67-7.85-3.31 0-6.52.05-9.73.12zm0-9.59c3.64.07 7.04.11 10.3.11 9.09 0 15.83-2.17 20.18-6.53 4.36-4.4 6.54-11.76 6.54-22.21 0-9.76-2.25-16.79-6.74-21.04-4.51-4.26-11-6.4-19.55-6.4-1.33 0-2.94.04-4.71.16-1.81.1-3.81.33-6.02.61v55.31zm142.45-65.22h26.81c17.24 0 35.1-.16 53.61-.44l.73.87-6.61 35.37-5.74.84-6.78-25.75h-41.15v56.39h5.74c6.16 0 12.81-.07 19.89-.23 1.84-.07 3.05-1 3.62-2.86l3.81-14.56 7.01-.33c-.19 10.28-.29 17.98-.29 23.09 0 4.98.1 12.56.29 22.77l-7.01.54-3.91-14.99c-.58-1.92-1.67-2.91-3.31-2.97-7.22-.16-13.98-.23-20.22-.23h-5.62v36.47c0 7.82.07 15.54.23 23.2h42.52l13.4-27.95 6.49-.98-2.58 39.82-.73.76c-17.66-.22-34.84-.33-51.57-.33h-28.13c-9.12 0-18.52.07-28.24.23l-.54-5.24 14.27-3.92c1.77-.5 2.72-1.59 2.86-3.31.07-2.84.15-6.01.19-9.55.03-3.48.03-7.36.03-11.64v-84.74c0-3.57 0-6.8-.03-9.69-.04-2.91-.12-5.6-.19-7.99-.07-1.86-.91-3.02-2.55-3.54l-14.25-4.12-.33-5.45c9.93.28 19.35.44 28.28.44zm167.47 148.4c-12.47 0-24.39.1-35.7.33l-.56-5.24 17.03-4.68c1.78-.57 2.69-1.7 2.76-3.41.14-5.31.22-12.16.22-20.55v-103.97h-30.64l-9.76 28.26-5.95.99-2.75-39.71.71-.87c17.41.28 34.12.44 50.1.44h29.65c15.97 0 32.76-.16 50.41-.44l.66.87-7.05 38.84-5.95.97-6.88-29.35h-30.75v103.97c0 8.39.07 15.24.21 20.55.09 1.7 1.02 2.84 2.87 3.41l16.71 4.68.31 5.24c-11.74-.23-23.67-.33-35.64-.33zm223.63-108.56l-5.85.94-8.09-30.52c-5.59-1.77-11.64-2.65-18.19-2.65-15.64 0-27.76 5.88-36.33 17.64-8.6 11.71-12.88 27.11-12.88 46.13 0 20.32 5.05 36.5 15.17 48.55 10.08 12.09 24.1 18.11 42.02 18.11 10.02 0 20.55-2.03 31.58-6.08l1.37 6.05c-14.16 9.62-30.2 14.41-48.06 14.41-23.17 0-41.88-6.99-56.19-20.97-14.25-13.97-21.4-32.37-21.4-55.21 0-24.34 7.84-43.62 23.48-57.81 15.68-14.19 36.12-21.27 61.33-21.27 12.49 0 25.27 1.46 38.31 4.36l.64 1.09-6.92 37.23zm90.25 108.56c-12.47 0-24.39.1-35.7.33l-.56-5.24 17.03-4.68c1.78-.57 2.69-1.7 2.76-3.41.14-5.31.22-12.16.22-20.55v-103.97h-30.64l-9.76 28.26-5.95.99-2.75-39.71.71-.87c17.41.28 34.12.44 50.1.44h29.65c15.97 0 32.76-.16 50.41-.44l.66.87-7.05 38.84-5.95.97-6.88-29.35h-30.75v103.97c0 8.39.07 15.24.21 20.55.09 1.7 1.02 2.84 2.88 3.41l16.7 4.68.31 5.24c-11.74-.23-23.67-.33-35.64-.33zm108.88-148.84c9.94.28 20.13.44 30.63.44 3.84-.16 9.84-.37 18.01-.66 8.16-.28 13.75-.44 16.8-.44 17.93 0 31.46 2.91 40.58 8.69 9.1 5.75 13.68 14.08 13.68 24.9 0 17.01-10.06 28.78-30.21 35.27 11.69 1.63 20.69 5.74 27.04 12.26 6.31 6.52 9.48 14.7 9.48 24.5 0 14.2-5.7 25.2-17.13 33-11.4 7.76-27.54 11.65-48.45 11.65-4.14 0-8.42-.12-12.93-.36-4.49-.26-10.13-.4-16.87-.4-10.34 0-20.36.1-30.09.33l-.54-5.24 14.27-3.92c1.77-.5 2.72-1.59 2.86-3.31.07-2.84.16-6.01.19-9.55.04-3.48.04-7.36.04-11.64v-84.74c0-3.57 0-6.8-.04-9.69-.03-2.91-.12-5.6-.19-7.99-.07-1.86-.9-3.02-2.55-3.54l-14.25-4.12-.33-5.45zm49.14 75.24v63.85c3.95.6 8.13.93 12.49.93 9.68 0 17.01-2.84 22.03-8.49 4.99-5.67 7.49-13.87 7.49-24.61 0-10.75-2.54-18.74-7.63-23.96-5.08-5.22-13.31-7.85-24.67-7.85-3.31 0-6.52.05-9.73.12zm0-9.59c3.64.07 7.05.11 10.3.11 9.09 0 15.84-2.17 20.19-6.53 4.35-4.4 6.54-11.76 6.54-22.21 0-9.76-2.26-16.79-6.75-21.04-4.51-4.26-11-6.4-19.54-6.4-1.34 0-2.95.04-4.72.16-1.81.1-3.81.33-6.02.61v55.31zm142.42-65.21h26.81c17.24 0 35.1-.16 53.62-.44l.72.87-6.6 35.37-5.75.84-6.78-25.75h-41.15v56.39h5.74c6.16 0 12.81-.07 19.89-.23 1.84-.07 3.05-1 3.62-2.86l3.82-14.56 7.01-.33c-.2 10.28-.3 17.98-.3 23.09 0 4.98.1 12.56.3 22.77l-7.01.54-3.92-14.99c-.57-1.92-1.67-2.91-3.31-2.97-7.22-.16-13.97-.23-20.22-.23h-5.62v36.47c0 7.82.07 15.54.23 23.2h42.52l13.4-27.95 6.49-.98-2.58 39.82-.73.76c-17.66-.22-34.84-.33-51.57-.33h-28.13c-9.12 0-18.51.07-28.24.23l-.54-5.24 14.27-3.92c1.77-.5 2.72-1.59 2.86-3.31.07-2.84.16-6.01.19-9.55.04-3.48.04-7.36.04-11.64v-84.74c0-3.57 0-6.8-.04-9.69-.03-2.91-.12-5.6-.19-7.99-.07-1.86-.9-3.02-2.55-3.54l-14.25-4.12-.33-5.45c9.94.28 19.35.44 28.28.44zm171.25 75.55v39.53c0 8.36.07 15.35.23 20.99.07 1.94.97 3.22 2.75 3.69l12.34 3.74.33 5.24c-8.83-.23-19.16-.33-31.11-.33-12.21 0-23.27.1-33.14.33l-.54-5.24 14.27-3.92c1.84-.57 2.79-1.66 2.86-3.31.16-5.77.23-12.81.23-21.19v-84.74c0-7.11-.07-13-.23-17.67-.07-1.86-.9-3.02-2.54-3.54l-14.26-4.12-.33-5.45c9.87.28 20.76.44 32.69.44 12.3 0 22.8-.16 31.43-.44l.66 5.45-12.68 3.58c-1.77.51-2.68 1.6-2.75 3.31-.16 5.08-.23 11.07-.23 17.93v34.42h63.59v-34.42c0-6.85-.07-12.85-.21-17.93-.07-1.7-.97-2.8-2.77-3.31l-12.44-3.58-.33-5.45c9 .28 19.65.44 31.91.44 11.97 0 22.78-.16 32.43-.44l.56 5.45-14.5 4.12c-1.61.52-2.5 1.67-2.65 3.54-.14 4.68-.21 10.56-.21 17.67v84.74c0 8.39.07 15.42.21 21.19.14 1.64 1.13 2.74 2.98 3.31l13.84 3.92.33 5.24c-10.16-.23-21.35-.33-33.62-.33-11.97 0-22.24.1-30.75.33l-.54-5.24 12.78-3.74c1.79-.47 2.7-1.74 2.77-3.69.14-5.64.21-12.63.21-20.99v-39.53h-63.59zm199.53 0v39.53c0 8.36.07 15.35.22 20.99.07 1.94.98 3.22 2.76 3.69l12.33 3.74.33 5.24c-8.83-.23-19.16-.33-31.11-.33-12.21 0-23.27.1-33.14.33l-.53-5.24 14.27-3.92c1.84-.57 2.78-1.66 2.85-3.31.16-5.77.23-12.81.23-21.19v-84.74c0-7.11-.07-13-.23-17.67-.07-1.86-.9-3.02-2.54-3.54l-14.25-4.12-.33-5.45c9.86.28 20.75.44 32.69.44 12.29 0 22.8-.16 31.42-.44l.66 5.45-12.67 3.58c-1.77.51-2.69 1.6-2.76 3.31-.15 5.08-.22 11.07-.22 17.93v34.42h63.58v-34.42c0-6.85-.07-12.85-.21-17.93-.07-1.7-.97-2.8-2.77-3.31l-12.43-3.58-.33-5.45c8.99.28 19.64.44 31.9.44 11.97 0 22.79-.16 32.43-.44l.56 5.45-14.5 4.12c-1.61.52-2.5 1.67-2.65 3.54-.13 4.68-.2 10.56-.2 17.67v84.74c0 8.39.07 15.42.2 21.19.14 1.64 1.13 2.74 2.98 3.31l13.84 3.92.33 5.24c-10.16-.23-21.35-.33-33.62-.33-11.97 0-22.23.1-30.75.33l-.53-5.24 12.77-3.74c1.79-.47 2.7-1.74 2.77-3.69.14-5.64.21-12.63.21-20.99v-39.53h-63.58zm187.33-3.26c0 22.67 3.84 40.07 11.5 52.08 7.67 12 18.91 18.04 33.75 18.04 14.64 0 25.44-5.48 32.45-16.4 7.01-10.93 10.49-28.11 10.49-51.5 0-22-3.71-38.88-11.06-50.71-7.41-11.79-18.85-17.72-34.32-17.72-14.98 0-25.87 5.48-32.65 16.44-6.78 10.96-10.16 27.54-10.16 49.77zm123.9-1.46c0 24.54-7.22 44.29-21.7 59.2-14.48 14.93-34.62 22.39-60.43 22.39-24.71 0-43.82-6.89-57.26-20.69-13.47-13.78-20.22-32.43-20.22-55.99 0-24.54 7.25-43.96 21.8-58.23 14.57-14.3 34.66-21.45 60.36-21.45 24.68 0 43.79 6.68 57.23 20.05 13.47 13.4 20.22 31.61 20.22 54.72zm156.96-30.99l-5.84.94-8.1-30.52c-5.58-1.77-11.63-2.65-18.18-2.65-15.64 0-27.77 5.88-36.33 17.64-8.6 11.71-12.88 27.11-12.88 46.13 0 20.32 5.04 36.5 15.17 48.55 10.07 12.09 24.1 18.11 42.02 18.11 10.02 0 20.55-2.03 31.58-6.08l1.37 6.05c-14.17 9.62-30.21 14.41-48.07 14.41-23.16 0-41.87-6.99-56.18-20.97-14.25-13.97-21.4-32.37-21.4-55.21 0-24.34 7.84-43.62 23.48-57.81 15.67-14.19 36.12-21.27 61.33-21.27 12.49 0 25.27 1.46 38.3 4.36l.65 1.09-6.93 37.23zm90.26 108.56c-12.47 0-24.4.1-35.7.33l-.56-5.24 17.03-4.68c1.77-.57 2.69-1.7 2.75-3.41.14-5.31.23-12.16.23-20.55v-103.97h-30.64l-9.76 28.26-5.95.99-2.76-39.71.72-.87c17.41.28 34.12.44 50.09.44h29.65c15.98 0 32.76-.16 50.41-.44l.66.87-7.04 38.84-5.95.97-6.89-29.35h-30.74v103.97c0 8.39.07 15.24.21 20.55.08 1.7 1.02 2.84 2.87 3.41l16.7 4.68.32 5.24c-11.75-.23-23.67-.33-35.64-.33zm108.88-148.84c9.86.28 20.75.44 32.69.44 12.3 0 23.73-.16 34.3-.44l.55 5.45-15.43 4.24c-1.77.58-2.69 1.64-2.76 3.19-.08 2.58-.15 5.31-.19 8.29-.03 2.94-.03 5.98-.03 9.17v32.89c7.01-.61 13.8-.94 20.39-.94 19.25 0 33.4 3.28 42.47 9.83 9.03 6.58 13.58 16.31 13.58 29.19 0 15.53-5.88 27.47-17.61 35.82-11.72 8.32-27.98 12.49-48.74 12.49-3.95 0-8.46-.12-13.51-.36-5.04-.26-10.49-.4-16.37-.4-9.57 0-19.16.1-28.81.33l-.44-5.24 14.17-3.92c1.84-.57 2.79-1.66 2.86-3.31.06-2.84.15-6.01.19-9.55.03-3.48.03-7.36.03-11.64v-84.74c0-3.57 0-6.8-.03-9.69-.04-2.91-.13-5.6-.19-7.99-.07-1.86-.91-3.02-2.55-3.54l-14.25-4.12-.33-5.45zm49.14 138.75c4.18.83 8.25 1.26 12.26 1.26 9.56 0 16.81-2.87 21.82-8.65 4.99-5.72 7.49-14.28 7.49-25.64 0-11.36-2.38-19.72-7.14-25.13-4.76-5.39-12.27-8.1-22.46-8.1-3.42 0-7.39.26-11.97.77v65.48zm160.81-73.87h27.44c2-21.05 9.62-37.7 22.9-49.98 13.28-12.26 30.99-18.41 53.18-18.41 23.37 0 41.41 6.68 54.08 20.05 12.68 13.4 19.02 31.61 19.02 54.72 0 24.54-6.86 44.29-20.54 59.2-13.68 14.93-32.73 22.39-57.13 22.39-22.97 0-40.75-6.89-53.28-20.69-12.56-13.78-18.85-32.36-18.85-55.73v-.23h-26.81v39.35c0 8.35.07 15.34.23 20.95.07 1.97.97 3.22 2.75 3.69l12.33 3.74.33 5.24c-8.82-.23-19.16-.33-31.11-.33-12.21 0-23.26.1-33.13.33l-.54-5.24 14.27-3.92c1.84-.57 2.79-1.66 2.86-3.31.16-5.77.23-12.81.23-21.19v-84.74c0-7.11-.07-13-.23-17.67-.07-1.86-.9-3.02-2.55-3.54l-14.25-4.12-.33-5.45c9.87.28 20.76.44 32.69.44 12.3 0 22.8-.16 31.42-.44l.66 5.45-12.67 3.62c-1.77.47-2.68 1.6-2.75 3.27-.16 5.12-.23 11.1-.23 18v34.56zm61.41 7.85c0 22.75 3.44 40.18 10.35 52.25 6.89 12.05 17.05 18.08 30.52 18.08 13.14 0 22.87-5.48 29.18-16.44 6.28-10.96 9.43-28.19 9.43-51.67 0-22.06-3.34-39.02-9.97-50.85-6.64-11.86-16.99-17.79-31-17.79-13.42 0-23.2 5.49-29.32 16.48-6.14 11-9.19 27.64-9.19 49.94z"/><path d="M4.89 4851.12h2970.62c141.58-135.51 141.74-314.61 141.74-314.61v-623.58h538.7v623.58s.16 179.1 141.74 314.61h2970.6v210.32H4.88v-210.32z" fill="#37460a"/><path class="afil0" d="M3386.65 0c712.62 287.31 1249.98 929.81 1472.29 1578.45l-1.27-3.69c-172.54 363.73-378.66 568.37-485.88 657.52-72.74-138.24-160.45-286.29-265.6-438-19.37-57.58-176.47-572.03 82.42-1262.86-43.26-42.15-87.99-83.01-134.19-122.39-181.73 444.84-199.95 826.44-176.18 1086.49-303.34-361.66-712.35-720.8-1259.51-996.79a2756.74 2756.74 0 00-124.43 125.25c1457.5 709.87 1943.56 2047.08 2091.63 2638.96l.4-.52c-279.24 356.64-695.66 653.7-1199.7 856.95-947.02-381.77-1584.51-1094.57-1584.51-1911.61 0-204.15 39.8-420.27 114.27-635.6 135.57 299.65 313.92 568.84 513 807.98-155.29-.17-396.96-23.21-626.37-135.22 1.55 65.44 6.87 130.31 16.43 194.27 223.85 89.63 446.5 109.73 600.36 109.73 64.45 0 116.16-3.52 151.45-6.87 331.22 359.47 701.85 642.31 1021.79 850.06-112.22 110.69-389.09 317.96-900.48 348.93 70.06 50.48 143.55 98.58 220.19 144.27 467.01-76.47 722.47-293.12 824.71-402.19 151.19 92.39 285.94 165.84 393.33 220.9 49.89-37.65 97.88-76.46 143.92-116.41-179.67-90.45-477.18-253.59-804.22-488.39 17.73-1208.95-752.06-2041.76-1088.33-2347.3-36.05 43.87-70.75 88.48-103.84 133.98 307.51 286.34 987.71 1035.52 1023.81 2087.76-496.66-384.63-1025.28-926.85-1296.48-1623-23.04 50.39-44.44 101.01-63.86 151.76C2178.86 880.14 2701.79 276.06 3386.63-.01zm1538.06 1809.81c30.5 135.3 46.39 269.04 46.39 397.96 0 349.83-116.96 680.51-324.96 974.31a2022.73 2022.73 0 0066.32-100.16c-54.89-192.97-138.31-433.65-263.76-696.46 98.2-76.06 294.79-255.31 476.01-575.65z"/></g></g></symbol></svg>