<svg width="34" height="34" viewBox="0 0 34 34" fill="none" xmlns="http://www.w3.org/2000/svg">
<path d="M31.8086 20.9844C31.8086 18.7873 30.0213 17 27.8242 17C25.6271 17 23.8398 18.7873 23.8398 20.9844C23.8398 23.1815 25.6271 24.9688 27.8242 24.9688C30.0213 24.9688 31.8086 23.1815 31.8086 20.9844ZM27.8242 23.6406C26.3596 23.6406 25.168 22.4489 25.168 20.9844C25.168 19.5198 26.3596 18.3281 27.8242 18.3281C29.2888 18.3281 30.4805 19.5198 30.4805 20.9844C30.4805 22.4489 29.2888 23.6406 27.8242 23.6406Z" fill="#5A9247"/>
<path d="M27.8242 24.9688C26.1508 24.9688 24.4821 25.6634 23.3454 26.7897C21.8492 24.8235 19.5421 23.6406 17 23.6406C14.5655 23.6406 12.2066 24.7514 10.6548 26.7897C9.51788 25.6637 7.84943 24.9688 6.17578 24.9688C2.82823 24.9688 0 27.7057 0 30.9453V32.2734C0 32.6402 0.297272 32.9375 0.664062 32.9375H33.3359C33.7027 32.9375 34 32.6402 34 32.2734V30.9453C34 27.7057 31.1718 24.9688 27.8242 24.9688ZM1.32812 30.9453C1.32812 28.4255 3.54807 26.2969 6.17578 26.2969C7.61363 26.2969 9.03955 26.934 9.92229 27.9467C9.33864 29.074 9.03125 30.3305 9.03125 31.6094H1.32812V30.9453ZM17 24.9688C20.6951 24.9688 23.6406 27.9669 23.6406 31.6094H10.3594C10.3594 27.9184 13.365 24.9688 17 24.9688ZM32.6719 31.6094H24.9688C24.9688 30.3305 24.6614 29.074 24.0777 27.9467C24.9604 26.934 26.3864 26.2969 27.8242 26.2969C30.4519 26.2969 32.6719 28.4255 32.6719 30.9453V31.6094Z" fill="#5A9247"/>
<path d="M10.1602 20.9844C10.1602 18.7873 8.37289 17 6.17578 17C3.97867 17 2.19141 18.7873 2.19141 20.9844C2.19141 23.1815 3.97867 24.9688 6.17578 24.9688C8.37289 24.9688 10.1602 23.1815 10.1602 20.9844ZM6.17578 23.6406C4.71121 23.6406 3.51953 22.4489 3.51953 20.9844C3.51953 19.5198 4.71121 18.3281 6.17578 18.3281C7.64035 18.3281 8.83203 19.5198 8.83203 20.9844C8.83203 22.4489 7.64035 23.6406 6.17578 23.6406Z" fill="#5A9247"/>
<path d="M22.3125 18.3281C22.3125 15.3987 19.9294 13.0156 17 13.0156C14.0706 13.0156 11.6875 15.3987 11.6875 18.3281C11.6875 21.2575 14.0706 23.6406 17 23.6406C19.9294 23.6406 22.3125 21.2575 22.3125 18.3281ZM17 22.3125C14.8029 22.3125 13.0156 20.5252 13.0156 18.3281C13.0156 16.131 14.8029 14.3438 17 14.3438C19.1971 14.3438 20.9844 16.131 20.9844 18.3281C20.9844 20.5252 19.1971 22.3125 17 22.3125Z" fill="#5A9247"/>
<path d="M22.2554 4.9247C22.1773 4.68423 21.9695 4.50914 21.7192 4.47282L18.8549 4.05701L17.5725 1.435C17.4612 1.20699 17.2298 1.0625 16.9761 1.0625C16.7224 1.0625 16.491 1.20699 16.3795 1.43474L15.0973 4.05701L12.233 4.47256C11.9827 4.50888 11.7749 4.68423 11.6968 4.9247C11.6187 5.16516 11.6838 5.42897 11.8649 5.60536L13.9391 7.62686L13.4496 10.4816C13.4068 10.7306 13.5092 10.9825 13.7139 11.1308C13.9173 11.2787 14.1881 11.2997 14.4132 11.1814L16.9761 9.83383L19.54 11.1814C19.7636 11.2992 20.0347 11.2795 20.2394 11.1308C20.4438 10.9822 20.5462 10.7306 20.5034 10.4813L20.0134 7.62686L22.0873 5.60536C22.2684 5.42897 22.3335 5.16516 22.2554 4.9247ZM18.836 6.91948C18.6796 7.07201 18.608 7.29198 18.6451 7.50728L18.9665 9.37988L17.2851 8.49585C17.0915 8.39417 16.8604 8.39417 16.6669 8.49585L14.986 9.37988L15.3071 7.50728C15.344 7.29172 15.2724 7.07201 15.116 6.91948L13.7557 5.59369L15.635 5.3208C15.8524 5.28941 16.0399 5.15245 16.1362 4.95531L16.9761 3.23808L17.8158 4.95531C17.9123 5.15271 18.0998 5.28941 18.3169 5.3208L20.1966 5.59369L18.836 6.91948Z" fill="#B08257"/>
<path d="M32.1811 9.90179C32.103 9.66133 31.8952 9.48624 31.6449 9.44992L29.7043 9.16795L28.8367 7.40923C28.7249 7.18251 28.4943 7.03906 28.2413 7.03906C28.2413 7.03906 28.2413 7.03906 28.2411 7.03906C27.9884 7.03906 27.7576 7.18251 27.6458 7.40923L26.7775 9.16795L24.8367 9.44992C24.5867 9.48624 24.3789 9.66133 24.3008 9.90179C24.2225 10.1423 24.2876 10.4061 24.4686 10.5825L25.8728 11.9518L25.5412 13.8844C25.4987 14.1334 25.6009 14.385 25.8056 14.5336C26.01 14.6823 26.2811 14.702 26.5047 14.5845L28.2411 13.6722L29.977 14.5845C30.2006 14.702 30.4719 14.6823 30.6763 14.5336C30.8807 14.3853 30.9829 14.1334 30.9404 13.8844L30.6089 11.9518L32.0133 10.5825C32.1943 10.4061 32.2592 10.1423 32.1811 9.90179ZM29.432 11.2447C29.2753 11.3972 29.204 11.6169 29.2411 11.8322L29.404 12.7827L28.5503 12.3342C28.3568 12.2325 28.1256 12.2325 27.9324 12.3342L27.0779 12.7829L27.2411 11.8322C27.2779 11.6169 27.2066 11.3972 27.0502 11.2447L26.3591 10.5708L27.314 10.4323C27.5303 10.4009 27.7173 10.265 27.8141 10.0691L28.2411 9.20401L28.6678 10.0688C28.7645 10.265 28.9516 10.4009 29.1679 10.4323L30.1228 10.5708L29.432 11.2447Z" fill="#B08257"/>
<path d="M9.60297 9.90179C9.52489 9.66133 9.31711 9.48624 9.06679 9.44992L7.12622 9.16795L6.25853 7.40923C6.14673 7.18251 5.91612 7.03906 5.66321 7.03906C5.4103 7.03906 5.17943 7.18251 5.06763 7.40923L4.19942 9.16795L2.25859 9.44992C2.00853 9.48624 1.80075 9.66133 1.72267 9.90179C1.64433 10.1423 1.70944 10.4061 1.8905 10.5825L3.29463 11.9518L2.96338 13.8844C2.92058 14.1334 3.02304 14.385 3.22745 14.5336C3.43186 14.6823 3.70293 14.702 3.92679 14.5845L5.66295 13.6722L7.39885 14.5845C7.62401 14.7028 7.89482 14.6815 8.09819 14.5336C8.3026 14.3853 8.40506 14.1334 8.36226 13.8844L8.03075 11.9518L9.43514 10.5825C9.6162 10.4061 9.68105 10.1423 9.60297 9.90179ZM6.85359 11.2447C6.69718 11.3972 6.62584 11.6169 6.66268 11.8322L6.82584 12.7827L5.9719 12.3342C5.77864 12.2325 5.54752 12.2325 5.35427 12.3342L4.49954 12.7829L4.66271 11.8322C4.6998 11.6169 4.62821 11.3972 4.47179 11.2447L3.78075 10.5708L4.73586 10.4323C4.95194 10.4009 5.13896 10.265 5.23572 10.0691L5.66269 9.20401L6.0894 10.0688C6.18616 10.265 6.37319 10.4009 6.58953 10.4323L7.54438 10.5708L6.85359 11.2447Z" fill="#B08257"/>
</svg>
