<svg width="34" height="34" viewBox="0 0 34 34" fill="none" xmlns="http://www.w3.org/2000/svg">
<g clip-path="url(#clip0)">
<path d="M20.4731 15.4527C18.6137 16.9734 17.4184 19.291 17.4184 21.8742C17.4184 24.1254 18.3348 27.1269 19.7426 29.5176C21.4492 32.4062 23.5676 33.9933 25.7059 33.9933C27.8441 33.9933 29.9691 32.4062 31.6691 29.5176C33.0836 27.1269 33.9934 24.1254 33.9934 21.8742C33.9934 20.4664 33.6348 19.0785 32.9574 17.8566C32.7781 17.5379 32.3731 17.4183 32.0543 17.5976C31.7356 17.7769 31.616 18.182 31.7953 18.5008C31.8684 18.6269 31.9281 18.7531 31.9945 18.8859C29.7434 19.4437 27.3395 18.8394 25.6195 17.2789C26.0844 16.5883 26.4231 15.8113 26.609 14.9746C26.941 15.0211 27.2731 15.0875 27.5984 15.1738C27.9504 15.2734 28.3156 15.0676 28.4152 14.7156C28.5149 14.3636 28.309 13.9984 27.957 13.8988C27.4856 13.766 27.0008 13.673 26.5094 13.6265C26.7418 13.1617 27.2199 12.8363 27.7777 12.8363C28.143 12.8363 28.4418 12.5375 28.4418 12.1722C28.4418 11.807 28.143 11.5082 27.7777 11.5082C26.4895 11.5082 25.4004 12.4047 25.1149 13.6066C23.9527 13.6863 22.8637 14.0117 21.8809 14.523L20.4731 15.4527ZM31.357 27.2465L30.1949 26.0843L32.466 23.8133C32.2469 24.9222 31.8617 26.1109 31.357 27.2465ZM32.4527 20.141C32.5856 20.659 32.6586 21.1902 32.6719 21.7281L29.252 25.148L26.6488 22.5449L28.8934 20.3004C29.3649 20.3801 29.843 20.4265 30.3277 20.4265C31.0383 20.4199 31.7488 20.3269 32.4527 20.141ZM18.9524 23.8133L21.2234 26.0843L20.0613 27.2465C19.5566 26.1109 19.1715 24.9222 18.9524 23.8133ZM18.7465 21.7281C18.7531 21.3031 18.8063 20.8781 18.8859 20.473C19.0852 20.4863 19.291 20.4996 19.4902 20.4996C20.4465 20.4996 21.3695 20.3203 22.2195 19.9883L24.7695 22.5383L22.1664 25.1414L18.7465 21.7281ZM24.7828 18.3082C25.5598 19.0054 26.4563 19.5367 27.4125 19.8953L25.7059 21.6019L23.468 19.364C23.9461 19.0586 24.391 18.7066 24.7828 18.3082ZM25.7059 23.4812L28.309 26.0843L25.7059 28.6875L23.1027 26.0843L25.7059 23.4812ZM25.2609 14.9281C24.5637 17.4781 22.0934 19.2511 19.2977 19.1648C20.3004 16.8008 22.5715 15.1008 25.2609 14.9281ZM20.8848 28.8468C20.8184 28.734 20.752 28.6144 20.6856 28.4949L22.1598 27.0207L24.7629 29.6238L22.95 31.4367C22.2262 30.8058 21.5223 29.9293 20.8848 28.8468ZM24.0524 32.2203L25.7059 30.5668L27.3594 32.2203C26.8082 32.5191 26.2504 32.6719 25.7059 32.6719C25.168 32.6719 24.6102 32.5191 24.0524 32.2203ZM28.4617 31.4433L26.6488 29.6304L29.252 27.0273L30.7262 28.5015C30.6598 28.6211 30.5934 28.734 30.527 28.8535C29.8895 29.9293 29.1922 30.8058 28.4617 31.4433Z" fill="#B08257"/>
<path d="M30.4473 16.5684C30.6199 16.5684 30.7926 16.4953 30.9188 16.3758C31.0449 16.2496 31.1113 16.0836 31.1113 15.9043C31.1113 15.7316 31.0383 15.559 30.9188 15.4328C30.7926 15.3066 30.6266 15.2402 30.4473 15.2402C30.2746 15.2402 30.102 15.3133 29.9758 15.4328C29.8496 15.559 29.7832 15.725 29.7832 15.9043C29.7832 16.077 29.8562 16.2496 29.9758 16.3758C30.102 16.4953 30.2746 16.5684 30.4473 16.5684Z" fill="#B08257"/>
<path d="M17.2985 19.2446C17.4446 18.9059 17.2852 18.5141 16.9532 18.3747C14.8149 17.4583 12.504 17.1196 10.2462 17.352C10.6313 17.0731 11.0099 16.7809 11.3884 16.4888C14.1841 14.9614 17.4446 14.6028 20.4794 15.4595L21.9802 14.6759L22.3321 14.304C22.1794 14.3704 22.0333 14.4434 21.8872 14.5165C19.4036 13.5934 16.7341 13.4274 14.204 14.0052C14.6556 13.5602 15.1005 13.1087 15.5255 12.6505C17.7036 11.0966 20.4329 10.5587 23.0427 11.1696C23.4013 11.2559 23.7599 11.0302 23.8395 10.6716C23.9259 10.313 23.7001 9.95438 23.3415 9.87469C21.4489 9.42977 19.4899 9.52274 17.677 10.1005C18.2813 9.31688 18.8458 8.51336 19.3837 7.68329C19.3837 7.68329 19.3837 7.68329 19.3903 7.67665C20.672 6.38172 22.2923 5.50516 24.0786 5.12665C24.4372 5.0536 24.6696 4.70165 24.5899 4.34305C24.5169 3.98446 24.1649 3.75204 23.8063 3.83173C22.8435 4.03758 21.9204 4.36962 21.0638 4.81454C21.7278 3.55282 22.3188 2.25126 22.8435 0.903209C22.9763 0.557897 22.8036 0.179381 22.4649 0.0465687C22.1263 -0.0862438 21.7411 0.0864125 21.6083 0.425084C21.097 1.74657 20.5126 3.02157 19.8552 4.25672C19.8552 3.45321 19.7622 2.64305 19.5763 1.84618C19.4899 1.48758 19.138 1.26844 18.7794 1.34813C18.4208 1.43446 18.2017 1.78641 18.2813 2.14501C18.6864 3.89149 18.5868 5.69774 17.9892 7.37118C17.8165 7.62352 17.6438 7.88251 17.4645 8.12821C17.7102 6.73368 17.6704 5.29266 17.345 3.87821C17.2587 3.51962 16.9067 3.30048 16.5481 3.38016C16.1895 3.46649 15.9704 3.81844 16.0501 4.17704C16.661 6.79344 16.1165 9.54266 14.5427 11.7274C14.1442 12.1591 13.7392 12.5774 13.3208 12.9825C14.2106 10.5454 14.3899 7.87587 13.7856 5.2993C13.6993 4.94071 13.3474 4.72157 12.9888 4.80126C12.6302 4.88758 12.411 5.23954 12.4907 5.59813C13.2876 9.01141 12.5704 12.5907 10.5317 15.4395C9.94071 15.911 9.32978 16.3626 8.70556 16.7942C10.0005 14.5165 10.6114 11.8802 10.4255 9.21063C10.3989 8.8454 10.0802 8.56649 9.71493 8.59305C9.3497 8.61962 9.07079 8.93837 9.09735 9.3036C9.34306 12.8099 8.06142 16.2431 5.57118 18.7333C4.98681 19.052 4.39579 19.3575 3.7915 19.6431C5.43173 17.3255 6.30829 14.5298 6.26181 11.6345C6.25517 11.2692 5.9497 10.977 5.58446 10.9837C5.21923 10.9903 4.92704 11.2958 4.93368 11.661C4.99345 15.1606 3.55243 18.5009 0.96923 20.8516C0.789933 20.9181 0.603995 20.9911 0.424698 21.0509C0.0793856 21.177 -0.0999113 21.5556 0.01962 21.9009C0.119229 22.1731 0.371573 22.3391 0.643839 22.3391C0.716886 22.3391 0.796573 22.3259 0.86962 22.2993C1.53368 22.0602 2.18446 21.8079 2.83525 21.529C5.73056 20.5595 8.90478 20.7122 11.7138 21.9872C12.0458 22.1399 12.4442 21.9938 12.5903 21.6552C12.7364 21.3165 12.597 20.9247 12.2583 20.7786C10.5384 19.995 8.69892 19.5966 6.85282 19.57C9.89423 18.2751 13.3341 18.2751 16.3954 19.5833C16.7606 19.736 17.1524 19.5833 17.2985 19.2446Z" fill="#5A9247"/>
</g>
<defs>
<clipPath id="clip0">
<rect width="34" height="34" fill="white"/>
</clipPath>
</defs>
</svg>
